<svg width="44" height="43" viewBox="0 0 44 43" fill="none" xmlns="http://www.w3.org/2000/svg">
<g clip-path="url(#clip0)">
<path d="M21.6328 43C33.5069 43 43.1328 33.3741 43.1328 21.5C43.1328 9.62588 33.5069 0 21.6328 0C9.75863 0 0.132751 9.62588 0.132751 21.5C0.132751 33.3741 9.75863 43 21.6328 43Z" fill="#F7931A"/>
<path d="M31.2929 18.8394C31.7149 16.0229 29.5689 14.5085 26.6368 13.498L27.5882 9.68172L25.2662 9.10391L24.339 12.8194C23.729 12.6662 23.1028 12.5237 22.4779 12.3813L23.4118 8.64166L21.0898 8.0625L20.1385 11.8774C19.6332 11.7618 19.136 11.649 18.655 11.528L18.6577 11.5159L15.4542 10.7164L14.836 13.197C14.836 13.197 16.5601 13.592 16.5238 13.6162C17.4644 13.8514 17.6337 14.4735 17.6055 14.968L16.5224 19.3151C16.5869 19.3312 16.6703 19.3554 16.7643 19.3917L16.5184 19.3312L15 25.4211C14.8844 25.7059 14.5928 26.1346 13.9344 25.972C13.9586 26.0056 12.2466 25.5514 12.2466 25.5514L11.0937 28.2093L14.1171 28.9632C14.6788 29.1043 15.2298 29.2521 15.7713 29.3905L14.8105 33.2498L17.1312 33.8276L18.0825 30.0113C18.7168 30.182 19.3322 30.3405 19.9342 30.491L18.9855 34.2912L21.3075 34.869L22.2683 31.0178C26.2297 31.7676 29.2074 31.4653 30.4612 27.8828C31.4717 24.9991 30.4114 23.3342 28.3273 22.2498C29.8457 21.9004 30.9879 20.902 31.2929 18.8394ZM25.9851 26.2811C25.2689 29.1661 20.4113 27.606 18.8364 27.215L20.1129 22.102C21.6878 22.4957 26.7363 23.2738 25.9851 26.2811ZM26.704 18.7977C26.0496 21.4221 22.0076 20.0877 20.6975 19.7612L21.8531 15.1252C23.1633 15.4518 27.3867 16.0605 26.704 18.7977Z" fill="white"/>
</g>
<defs>
<clipPath id="clip0">
<rect width="43" height="43" fill="white" transform="translate(0.132751)"/>
</clipPath>
</defs>
</svg>
