<svg width="409" height="299" viewBox="0 0 409 299" fill="none" xmlns="http://www.w3.org/2000/svg">
<path d="M342.188 210.371C379.087 173.472 379.087 113.646 342.188 76.7462C305.288 39.8467 245.462 39.8467 208.563 76.7462C171.663 113.646 171.663 173.472 208.563 210.371C245.462 247.27 305.288 247.27 342.188 210.371Z" fill="#3A86FF"/>
<path opacity="0.4" d="M342.188 210.371C379.087 173.472 379.087 113.646 342.188 76.7462C305.288 39.8467 245.462 39.8467 208.563 76.7462C171.663 113.646 171.663 173.472 208.563 210.371C245.462 247.27 305.288 247.27 342.188 210.371Z" fill="black"/>
<path d="M336.437 200.437C373.337 163.538 373.337 103.712 336.437 66.8126C299.538 29.9132 239.712 29.9132 202.812 66.8126C165.913 103.712 165.913 163.538 202.812 200.437C239.712 237.337 299.538 237.337 336.437 200.437Z" fill="#3A86FF"/>
<path opacity="0.2" d="M275.892 202.571C315.468 198.725 344.511 164.323 340.761 125.731C337.011 87.1392 301.889 58.9718 262.312 62.8174C222.736 66.663 193.693 101.065 197.443 139.657C201.193 178.249 236.316 206.417 275.892 202.571Z" fill="white"/>
<path d="M275.878 202.269C257.238 204.08 238.626 198.55 223.998 186.855C209.37 175.16 199.879 158.221 197.542 139.639C197.542 140.323 197.618 141.007 197.683 141.691C199.53 160.691 208.849 178.179 223.59 190.308C238.33 202.437 257.285 208.213 276.285 206.366C295.285 204.52 312.773 195.201 324.902 180.46C337.031 165.72 342.808 146.764 340.961 127.765C340.885 127.081 340.787 126.408 340.711 125.724C341.994 144.412 335.939 162.863 323.832 177.157C311.726 191.45 294.522 200.459 275.878 202.269Z" fill="#FAFAFA"/>
<path opacity="0.3" d="M262.343 63.062C280.984 61.254 299.596 66.7845 314.225 78.4788C328.854 90.1731 338.347 107.11 340.689 125.692C340.635 125.008 340.602 124.335 340.537 123.64C338.69 104.64 329.372 87.1524 314.631 75.0234C299.89 62.8943 280.935 57.1178 261.936 58.9645C242.936 60.8112 225.448 70.1299 213.319 84.8706C201.19 99.6113 195.413 118.566 197.26 137.566C197.336 138.261 197.434 138.934 197.52 139.607C196.237 120.921 202.291 102.471 214.395 88.1777C226.5 73.8844 243.7 64.8744 262.343 63.062Z" fill="black"/>
<path d="M308.43 149.441C307.453 139.379 302.026 133.333 294.699 131.357C299.475 127.656 302.297 121.469 301.516 113.513C300.561 103.625 294.363 97.1446 283.715 95.8095L282.521 83.5984L271.254 84.6838L272.339 96.0375L265.99 96.7104L264.904 85.3568L253.627 86.4422L254.712 97.7958L244.444 98.7945L237.291 99.4891L238.376 110.767L245.529 110.061L250.794 164.854L242.881 165.625L243.966 176.902L251.879 176.132L262.147 175.133L263.428 188.332L274.706 187.246L273.425 174.048L279.818 173.429L281.186 186.617L292.463 185.531L291.139 171.898C303.654 168.87 309.548 160.903 308.43 149.441ZM259.792 108.65L275.064 107.174C283.53 106.349 288.675 109.421 289.37 116.606C290.065 123.792 285.603 127.678 277.137 128.546L259.77 130.229L257.697 108.9L259.792 108.65ZM282.836 161.76L264.383 163.551L263.081 163.682L260.91 141.354L280.676 139.433C289.902 138.532 295.22 141.474 295.969 149.202C296.718 156.93 292.04 160.849 282.836 161.75V161.76Z" fill="#3A86FF"/>
<path opacity="0.3" d="M308.43 149.441C307.453 139.379 302.026 133.333 294.699 131.357C299.475 127.656 302.297 121.469 301.516 113.513C300.561 103.625 294.363 97.1446 283.715 95.8095L282.521 83.5984L271.254 84.6838L272.339 96.0375L265.99 96.7104L264.904 85.3568L253.627 86.4422L254.712 97.7958L244.444 98.7945L237.291 99.4891L238.376 110.767L245.529 110.061L250.794 164.854L242.881 165.625L243.966 176.902L251.879 176.132L262.147 175.133L263.428 188.332L274.706 187.246L273.425 174.048L279.818 173.429L281.186 186.617L292.463 185.531L291.139 171.898C303.654 168.87 309.548 160.903 308.43 149.441ZM259.792 108.65L275.064 107.174C283.53 106.349 288.675 109.421 289.37 116.606C290.065 123.792 285.603 127.678 277.137 128.546L259.77 130.229L257.697 108.9L259.792 108.65ZM282.836 161.76L264.383 163.551L263.081 163.682L260.91 141.354L280.676 139.433C289.902 138.532 295.22 141.474 295.969 149.202C296.718 156.93 292.04 160.849 282.836 161.75V161.76Z" fill="black"/>
<path d="M302.959 149.973C301.983 139.911 296.545 133.865 289.229 131.889C293.994 128.188 296.827 122.001 296.045 114.045C295.079 104.156 288.892 97.6763 278.233 96.3413L277.05 84.1301L265.772 85.2156L266.858 96.5692L260.454 97.1879L259.368 85.8343L248.102 86.9197L249.187 98.2733L238.919 99.2719L231.766 99.9666L232.851 111.244L240.004 110.55L245.366 165.397L237.464 166.156L238.55 177.434L246.452 176.663L256.72 175.665L258.012 188.864L269.278 187.778L267.998 174.579L274.402 173.961L275.683 187.159L286.96 186.074L285.625 172.441C298.173 169.434 304.067 161.435 302.959 149.973ZM254.321 109.182L269.582 107.695C278.049 106.87 283.194 109.942 283.899 117.127C284.605 124.313 280.133 128.199 271.656 129.067L254.289 130.749L252.205 109.421L254.321 109.182ZM277.354 162.281L258.902 164.072L257.599 164.203L255.428 141.875L275.205 139.954C284.42 139.053 289.75 141.995 290.499 149.723C291.248 157.451 286.613 161.38 277.354 162.281Z" fill="#3A86FF"/>
<path d="M354.995 92.9658C354.829 92.7697 354.687 92.5548 354.572 92.3254L353.486 90.3607C353.031 89.4815 352.401 88.4178 351.685 87.1913C350.968 85.9648 350.122 84.5103 349.058 82.9689C343.288 74.1136 336.079 66.2847 327.729 59.8058C321.97 55.3549 315.725 51.5715 309.114 48.5281C301.508 45.0652 293.479 42.62 285.234 41.2557C280.791 40.491 276.294 40.07 271.786 39.9966C267.07 39.8776 262.351 40.1316 257.675 40.7564C252.847 41.3891 248.075 42.3944 243.402 43.7631C233.757 46.5876 224.629 50.9412 216.364 56.658C212.353 59.4223 208.567 62.5001 205.042 65.8625C198.365 72.2296 192.659 79.5441 188.11 87.5712C183.991 94.8342 180.845 102.607 178.753 110.691C176.994 117.743 176.037 124.97 175.899 132.237C175.755 138.246 176.199 144.256 177.223 150.179C177.989 154.658 179.077 159.077 180.479 163.4C181.011 165.191 181.565 166.743 182.107 168.099C182.65 169.456 183.052 170.585 183.442 171.497L184.278 173.581C184.391 173.814 184.468 174.063 184.506 174.319C184.351 174.114 184.22 173.892 184.115 173.657L183.128 171.638C182.683 170.748 182.162 169.63 181.64 168.284C181.119 166.938 180.436 165.397 179.86 163.606C178.334 159.283 177.148 154.849 176.311 150.342C175.18 144.367 174.645 138.295 174.715 132.215C174.867 116.288 179.046 100.658 186.861 86.7788C191.455 78.5994 197.235 71.1449 204.011 64.6577C207.601 61.2339 211.451 58.0948 215.528 55.2687C223.933 49.4417 233.225 45.0103 243.044 42.1458C247.805 40.7547 252.668 39.7385 257.588 39.1066C262.331 38.4894 267.114 38.2462 271.894 38.3793C276.481 38.4719 281.053 38.9182 285.571 39.7144C301.274 42.361 316.048 48.9489 328.511 58.8615C333.285 62.6288 337.671 66.865 341.601 71.5068C344.56 74.9923 347.245 78.701 349.633 82.5999C350.664 84.1738 351.446 85.6608 352.14 86.9416C352.835 88.2224 353.4 89.297 353.812 90.1979L354.756 92.2494C354.995 92.7162 355.06 92.9549 354.995 92.9658Z" fill="#FAFAFA"/>
<path d="M259.368 85.8563C259.368 86.1494 255.027 86.8332 248.167 87.6581L248.796 86.8875C249.187 90.1438 249.61 94.0296 250.045 98.2194L250.121 99.0552L249.285 99.142L246.246 99.4459C240.916 99.9669 235.956 100.39 231.842 100.694L232.482 99.9344C232.992 106.751 233.166 111.245 232.873 111.277C232.58 111.31 231.896 106.859 231.082 100.065L230.995 99.3808L231.712 99.3048C235.804 98.8055 240.753 98.2737 246.083 97.7526L249.122 97.4705L248.362 98.3822C247.971 94.1924 247.646 90.2957 247.396 87.0286V86.3122L248.069 86.2579C254.875 85.7369 259.347 85.5632 259.368 85.8563Z" fill="#FAFAFA"/>
<path d="M279.438 84.0978C279.438 84.5645 276.464 85.2375 272.698 85.6065C268.931 85.9755 265.849 85.8887 265.805 85.422C265.762 84.9553 268.769 84.2823 272.535 83.9241C276.301 83.5659 279.395 83.6853 279.438 84.0978Z" fill="#FAFAFA"/>
<path d="M244.693 164.659C244.227 164.659 242.675 152.719 241.242 137.859C239.809 123 239.006 110.951 239.473 110.908C239.939 110.864 241.481 122.848 242.924 137.696C244.368 152.545 245.16 164.615 244.693 164.659Z" fill="#FAFAFA"/>
<path d="M277.376 128.568C277.376 129.035 272.589 129.892 266.576 130.468C260.562 131.043 255.667 131.151 255.624 130.685C255.58 130.218 260.41 129.371 266.413 128.785C272.415 128.199 277.332 128.101 277.376 128.568Z" fill="#FAFAFA"/>
<path d="M281.044 162.01C281.099 162.477 276.258 163.323 270.255 163.909C264.253 164.496 259.347 164.582 259.292 164.126C259.238 163.671 264.079 162.802 270.092 162.216C276.106 161.63 281.001 161.543 281.044 162.01Z" fill="#FAFAFA"/>
<path d="M256.123 236.069C253.917 232.969 252.027 229.656 250.479 226.181C252.68 229.284 254.571 232.596 256.123 236.069Z" fill="#263238"/>
<path d="M240.569 231.109C239.429 229.68 238.44 228.138 237.616 226.507C236.631 224.968 235.809 223.331 235.163 221.622C237.3 224.585 239.119 227.765 240.59 231.109H240.569Z" fill="#263238"/>
<path d="M226.317 224.282C225.184 222.851 224.198 221.309 223.376 219.679C222.388 218.141 221.562 216.504 220.912 214.795C222.051 216.224 223.04 217.766 223.864 219.397C224.849 220.936 225.671 222.573 226.317 224.282Z" fill="#263238"/>
<path d="M272.502 238.077C271.327 236.579 270.302 234.968 269.441 233.269C268.415 231.667 267.553 229.965 266.869 228.189C268.046 229.683 269.071 231.29 269.93 232.987C270.958 234.592 271.82 236.297 272.502 238.077Z" fill="#263238"/>
<path d="M287.785 237.231C285.584 234.128 283.693 230.816 282.141 227.342C284.347 230.442 286.237 233.755 287.785 237.231Z" fill="#263238"/>
<path d="M302.764 233.964C301.584 232.47 300.556 230.863 299.692 229.166C298.675 227.555 297.813 225.85 297.12 224.075C298.301 225.572 299.33 227.183 300.192 228.884C301.211 230.49 302.072 232.191 302.764 233.964Z" fill="#263238"/>
<path d="M316.462 228.949C315.281 227.452 314.252 225.841 313.391 224.14C312.374 222.532 311.513 220.831 310.818 219.061C312.001 220.552 313.03 222.159 313.89 223.858C314.908 225.469 315.769 227.174 316.462 228.949Z" fill="#263238"/>
<path d="M329.553 221.275C328.374 219.776 327.346 218.165 326.481 216.466C325.463 214.855 324.602 213.151 323.908 211.375C325.09 212.872 326.119 214.483 326.98 216.184C328 217.794 328.862 219.498 329.553 221.275Z" fill="#263238"/>
<path d="M340.885 211.875C339.707 210.376 338.678 208.765 337.813 207.066C336.795 205.455 335.934 203.751 335.241 201.976C336.422 203.472 337.451 205.083 338.312 206.784C339.333 208.394 340.194 210.099 340.885 211.875Z" fill="#263238"/>
<path d="M349.904 201.997C348.732 200.496 347.707 198.886 346.843 197.189C345.815 195.584 344.953 193.878 344.271 192.098C345.446 193.597 346.472 195.207 347.332 196.907C348.362 198.51 349.225 200.216 349.904 201.997Z" fill="#263238"/>
<path d="M358.089 190.579C355.89 187.47 354 184.155 352.445 180.68C353.623 182.179 354.652 183.789 355.516 185.488C356.539 187.096 357.401 188.801 358.089 190.579Z" fill="#263238"/>
<path d="M364.764 177.619C363.583 176.122 362.554 174.511 361.692 172.81C360.672 171.201 359.81 169.496 359.12 167.72C360.298 169.219 361.327 170.829 362.192 172.528C363.209 174.139 364.071 175.844 364.764 177.619Z" fill="#263238"/>
<path d="M368.997 163.074C367.816 161.577 366.787 159.966 365.926 158.265C364.904 156.649 364.043 154.936 363.353 153.153C364.531 154.652 365.56 156.262 366.425 157.961C367.444 159.579 368.305 161.291 368.997 163.074Z" fill="#263238"/>
<path d="M370.962 147.639C369.577 145.785 368.346 143.821 367.282 141.767C366.054 139.807 364.99 137.748 364.102 135.612C366.706 139.432 369 143.453 370.962 147.639Z" fill="#263238"/>
<path d="M368.835 125.898C367.456 124.042 366.229 122.078 365.166 120.025C363.941 118.066 362.873 116.011 361.975 113.882C363.363 115.733 364.593 117.698 365.654 119.754C366.876 121.714 367.94 123.768 368.835 125.898Z" fill="#263238"/>
<path d="M120.506 154.951C142.072 133.385 142.072 98.4202 120.506 76.8543C98.9406 55.2884 63.9753 55.2884 42.4094 76.8543C20.8435 98.4202 20.8435 133.385 42.4094 154.951C63.9753 176.517 98.9405 176.517 120.506 154.951Z" fill="#3A86FF"/>
<path opacity="0.4" d="M120.506 154.951C142.072 133.385 142.072 98.4202 120.506 76.8543C98.9406 55.2884 63.9753 55.2884 42.4094 76.8543C20.8435 98.4202 20.8435 133.385 42.4094 154.951C63.9753 176.517 98.9405 176.517 120.506 154.951Z" fill="black"/>
<path d="M117.146 149.146C138.712 127.58 138.712 92.6146 117.146 71.0486C95.5797 49.4827 60.6145 49.4827 39.0485 71.0486C17.4826 92.6145 17.4826 127.58 39.0485 149.146C60.6145 170.712 95.5797 170.712 117.146 149.146Z" fill="#3A86FF"/>
<path opacity="0.2" d="M81.76 150.393C104.89 148.145 121.865 128.039 119.673 105.484C117.481 82.9285 96.9536 66.466 73.8232 68.7136C50.6928 70.9612 33.7186 91.0677 35.9103 113.623C38.1019 136.178 58.6295 152.64 81.76 150.393Z" fill="white"/>
<path d="M81.7519 150.216C70.8574 151.274 59.9797 148.042 51.4304 141.207C42.8811 134.372 37.3342 124.473 35.9685 113.612C35.9685 114.012 36.0129 114.412 36.051 114.811C37.1303 125.916 42.5766 136.137 51.1918 143.225C59.807 150.314 70.8854 153.69 81.9898 152.611C93.0942 151.532 103.315 146.085 110.404 137.47C117.493 128.855 120.869 117.777 119.789 106.672C119.745 106.272 119.688 105.879 119.644 105.479C120.393 116.402 116.854 127.185 109.779 135.539C102.703 143.893 92.6484 149.158 81.7519 150.216Z" fill="#FAFAFA"/>
<path opacity="0.3" d="M73.841 68.8566C84.7358 67.7999 95.6135 71.0322 104.163 77.867C112.713 84.7017 118.262 94.6004 119.631 105.46C119.599 105.061 119.58 104.668 119.542 104.262C118.463 93.1571 113.016 82.9363 104.401 75.8474C95.7858 68.7586 84.7075 65.3825 73.6031 66.4618C62.4987 67.5412 52.2778 72.9875 45.189 81.6027C38.1002 90.2179 34.7241 101.296 35.8034 112.401C35.8478 112.807 35.9049 113.2 35.9556 113.593C35.2058 102.672 38.7439 91.8892 45.8183 83.5355C52.8926 75.1818 62.9456 69.9158 73.841 68.8566Z" fill="black"/>
<path d="M100.777 119.341C100.206 113.46 97.034 109.927 92.752 108.772C95.5432 106.609 97.1926 102.993 96.7359 98.3427C96.1776 92.5635 92.5553 88.7762 86.332 87.9959L85.6342 80.8591L79.0493 81.4935L79.6837 88.1291L75.9725 88.5225L75.3382 81.8868L68.7469 82.5212L69.3813 89.1568L63.38 89.7405L59.1995 90.1465L59.8338 96.7377L64.0144 96.3254L67.0912 128.349L62.4665 128.799L63.1009 135.391L67.7256 134.94L73.7268 134.357L74.4754 142.071L81.0666 141.436L80.3181 133.722L84.0546 133.361L84.8539 141.068L91.4451 140.434L90.6712 132.466C97.9856 130.696 101.43 126.04 100.777 119.341ZM72.3502 95.5007L81.276 94.6379C86.2241 94.1558 89.2311 95.9511 89.6371 100.151C90.0431 104.35 87.4358 106.621 82.4876 107.129L72.3375 108.112L71.1259 95.6466L72.3502 95.5007ZM85.8181 126.541L75.0337 127.588L74.2724 127.664L73.0036 114.615L84.5557 113.492C89.948 112.965 93.0565 114.684 93.4942 119.201C93.9319 123.718 91.1977 126.008 85.8181 126.535V126.541Z" fill="#3A86FF"/>
<path opacity="0.3" d="M100.777 119.341C100.206 113.46 97.034 109.927 92.752 108.772C95.5432 106.609 97.1926 102.993 96.7359 98.3427C96.1776 92.5635 92.5553 88.7762 86.332 87.9959L85.6342 80.8591L79.0493 81.4935L79.6837 88.1291L75.9725 88.5225L75.3382 81.8868L68.7469 82.5212L69.3813 89.1568L63.38 89.7405L59.1995 90.1465L59.8338 96.7377L64.0144 96.3254L67.0912 128.349L62.4665 128.799L63.1009 135.391L67.7256 134.94L73.7268 134.357L74.4754 142.071L81.0666 141.436L80.3181 133.722L84.0546 133.361L84.8539 141.068L91.4451 140.434L90.6712 132.466C97.9856 130.696 101.43 126.04 100.777 119.341ZM72.3502 95.5007L81.276 94.6379C86.2241 94.1558 89.2311 95.9511 89.6371 100.151C90.0431 104.35 87.4358 106.621 82.4876 107.129L72.3375 108.112L71.1259 95.6466L72.3502 95.5007ZM85.8181 126.541L75.0337 127.588L74.2724 127.664L73.0036 114.615L84.5557 113.492C89.948 112.965 93.0565 114.684 93.4942 119.201C93.9319 123.718 91.1977 126.008 85.8181 126.535V126.541Z" fill="black"/>
<path d="M97.5796 119.652C97.0086 113.771 93.8304 110.237 89.5547 109.083C92.3396 106.919 93.9953 103.304 93.5386 98.6535C92.974 92.8743 89.358 89.087 83.1284 88.3067L82.4369 81.1699L75.8456 81.8043L76.48 88.4399L72.7372 88.8015L72.1028 82.1659L65.5179 82.8003L66.1523 89.4359L60.151 90.0195L55.9705 90.4256L56.6048 97.0168L60.7854 96.6108L63.9193 128.666L59.301 129.11L59.9353 135.701L64.5537 135.251L70.5549 134.667L71.3098 142.381L77.8947 141.747L77.1461 134.033L80.889 133.671L81.6376 141.385L88.2288 140.751L87.4485 132.783C94.782 131.026 98.2267 126.351 97.5796 119.652ZM69.1529 95.8115L78.0723 94.9423C83.0205 94.4602 86.0275 96.2555 86.4398 100.455C86.8522 104.655 84.2385 106.926 79.284 107.433L69.1339 108.417L67.9159 95.951L69.1529 95.8115ZM82.6145 126.845L71.83 127.892L71.0688 127.968L69.8 114.919L81.3584 113.796C86.7443 113.27 89.8592 114.989 90.2969 119.506C90.7346 124.022 88.0258 126.319 82.6145 126.845Z" fill="#3A86FF"/>
<path d="M127.992 86.3339C127.895 86.2193 127.812 86.0937 127.744 85.9596L127.11 84.8114C126.844 84.2975 126.476 83.6758 126.057 82.959C125.638 82.2421 125.143 81.3921 124.522 80.4912C121.15 75.3157 116.936 70.7401 112.056 66.9535C108.69 64.3522 105.041 62.141 101.176 60.3623C96.7313 58.3383 92.0387 56.9092 87.22 56.1119C84.6228 55.665 81.995 55.4189 79.36 55.376C76.6036 55.3065 73.846 55.4549 71.1131 55.8201C68.2912 56.1899 65.5022 56.7774 62.7709 57.5774C57.1343 59.2281 51.799 61.7726 46.9685 65.1138C44.6243 66.7294 42.4118 68.5282 40.3519 70.4934C36.449 74.2146 33.1145 78.4896 30.4555 83.181C28.0482 87.4259 26.2096 91.969 24.9871 96.6934C23.9591 100.815 23.3994 105.039 23.3187 109.286C23.2348 112.798 23.4941 116.31 24.0926 119.772C24.5403 122.39 25.1763 124.973 25.9958 127.499C26.3066 128.546 26.6302 129.453 26.9474 130.246C27.2645 131.039 27.4993 131.699 27.7276 132.231L28.2161 133.449C28.2821 133.586 28.327 133.731 28.3493 133.881C28.2586 133.761 28.182 133.631 28.121 133.494L27.5437 132.314C27.2836 131.794 26.9791 131.14 26.6746 130.354C26.3701 129.567 25.9704 128.666 25.6342 127.619C24.7423 125.093 24.0487 122.501 23.5598 119.867C22.8987 116.376 22.5863 112.827 22.6272 109.273C22.716 99.9644 25.158 90.8293 29.726 82.7179C32.4109 77.9374 35.7885 73.5807 39.7492 69.7892C41.847 67.7882 44.0974 65.9535 46.48 64.3018C51.3927 60.8962 56.8231 58.3063 62.5616 56.6321C65.3445 55.8191 68.1867 55.2252 71.0623 54.8558C73.8339 54.4951 76.6296 54.353 79.4235 54.4308C82.104 54.4849 84.7763 54.7458 87.4167 55.2111C96.5941 56.7579 105.229 60.6082 112.513 66.4016C115.304 68.6034 117.867 71.0793 120.164 73.7922C121.893 75.8293 123.462 77.9968 124.858 80.2755C125.461 81.1954 125.917 82.0645 126.323 82.8131C126.729 83.5616 127.059 84.1897 127.3 84.7162L127.852 85.9152C127.992 86.188 128.03 86.3275 127.992 86.3339Z" fill="#FAFAFA"/>
<path d="M72.1028 82.1787C72.1028 82.35 69.5652 82.7496 65.5559 83.2317L65.9239 82.7813C66.1523 84.6845 66.3997 86.9556 66.6534 89.4043L66.6978 89.8928L66.2094 89.9435L64.4331 90.1211C61.3183 90.4256 58.4191 90.673 56.0148 90.8507L56.3891 90.4066C56.6873 94.3905 56.7888 97.0169 56.6175 97.0359C56.4462 97.0549 56.0466 94.454 55.5708 90.4827L55.52 90.0831L55.9387 90.0387C58.3303 89.7469 61.2231 89.436 64.3379 89.1315L66.1142 88.9666L65.6701 89.4994C65.4417 87.0507 65.2514 84.7733 65.1055 82.8638V82.4451L65.4988 82.4134C69.4764 82.1089 72.0901 82.0074 72.1028 82.1787Z" fill="#FAFAFA"/>
<path d="M83.8327 81.151C83.8327 81.4237 82.0944 81.817 79.8931 82.0327C77.6918 82.2484 75.8901 82.1977 75.8648 81.9249C75.8394 81.6521 77.5966 81.2588 79.798 81.0495C81.9993 80.8401 83.8073 80.9099 83.8327 81.151Z" fill="#FAFAFA"/>
<path d="M63.5259 128.235C63.2531 128.235 62.3459 121.257 61.5086 112.572C60.6712 103.887 60.2018 96.8458 60.4745 96.8204C60.7473 96.795 61.6481 103.799 62.4918 112.477C63.3356 121.155 63.7987 128.21 63.5259 128.235Z" fill="#FAFAFA"/>
<path d="M82.6271 107.142C82.6271 107.414 79.8295 107.916 76.315 108.252C72.8006 108.588 69.9395 108.652 69.9141 108.379C69.8887 108.106 72.7118 107.611 76.2199 107.269C79.728 106.926 82.6018 106.869 82.6271 107.142Z" fill="#FAFAFA"/>
<path d="M84.7712 126.687C84.8029 126.959 81.9736 127.454 78.4655 127.797C74.9574 128.139 72.09 128.19 72.0582 127.924C72.0265 127.657 74.8559 127.15 78.3703 126.807C81.8848 126.465 84.7458 126.414 84.7712 126.687Z" fill="#FAFAFA"/>
<path d="M70.206 169.971C68.9169 168.159 67.8118 166.223 66.9072 164.191C68.1937 166.005 69.2986 167.941 70.206 169.971Z" fill="#263238"/>
<path d="M61.1152 167.072C60.4494 166.237 59.8711 165.335 59.3896 164.382C58.814 163.483 58.3335 162.526 57.9559 161.527C59.2047 163.259 60.2679 165.118 61.1279 167.072H61.1152Z" fill="#263238"/>
<path d="M52.7858 163.081C52.1234 162.245 51.5474 161.344 51.0666 160.391C50.4893 159.492 50.0067 158.535 49.6266 157.537C50.2924 158.372 50.8706 159.273 51.3521 160.226C51.9277 161.126 52.4082 162.082 52.7858 163.081Z" fill="#263238"/>
<path d="M79.7788 171.144C79.0918 170.269 78.4926 169.327 77.9898 168.334C77.3898 167.398 76.8861 166.403 76.4863 165.365C77.1742 166.238 77.7735 167.177 78.2753 168.169C78.8763 169.107 79.38 170.104 79.7788 171.144Z" fill="#263238"/>
<path d="M88.7109 170.649C87.4244 168.836 86.3195 166.9 85.4121 164.87C86.7012 166.682 87.8063 168.618 88.7109 170.649Z" fill="#263238"/>
<path d="M97.4654 168.74C96.7759 167.867 96.1745 166.928 95.6701 165.936C95.0752 164.995 94.5718 163.998 94.1666 162.961C94.857 163.836 95.4584 164.777 95.9619 165.771C96.5574 166.71 97.0609 167.704 97.4654 168.74Z" fill="#263238"/>
<path d="M105.471 165.809C104.781 164.935 104.179 163.993 103.676 162.999C103.082 162.059 102.578 161.065 102.172 160.03C102.864 160.902 103.465 161.841 103.968 162.834C104.563 163.776 105.066 164.772 105.471 165.809Z" fill="#263238"/>
<path d="M113.122 161.324C112.433 160.448 111.832 159.507 111.327 158.514C110.732 157.572 110.228 156.576 109.823 155.539C110.514 156.413 111.115 157.355 111.618 158.349C112.215 159.29 112.718 160.286 113.122 161.324Z" fill="#263238"/>
<path d="M119.745 155.831C119.056 154.954 118.455 154.013 117.95 153.02C117.355 152.079 116.851 151.082 116.446 150.045C117.137 150.92 117.738 151.861 118.242 152.855C118.838 153.796 119.341 154.792 119.745 155.831Z" fill="#263238"/>
<path d="M125.017 150.058C124.331 149.18 123.732 148.239 123.228 147.247C122.627 146.309 122.123 145.312 121.724 144.272C122.411 145.148 123.01 146.089 123.513 147.082C124.115 148.02 124.619 149.017 125.017 150.058Z" fill="#263238"/>
<path d="M129.8 143.384C128.515 141.567 127.41 139.629 126.501 137.598C127.19 138.474 127.791 139.415 128.296 140.408C128.894 141.348 129.398 142.345 129.8 143.384Z" fill="#263238"/>
<path d="M133.701 135.809C133.011 134.935 132.41 133.993 131.906 132.999C131.31 132.058 130.806 131.062 130.403 130.024C131.091 130.9 131.693 131.841 132.198 132.834C132.793 133.776 133.296 134.772 133.701 135.809Z" fill="#263238"/>
<path d="M136.175 127.309C135.485 126.434 134.884 125.492 134.38 124.498C133.783 123.553 133.28 122.553 132.877 121.51C133.565 122.386 134.167 123.328 134.672 124.321C135.268 125.266 135.771 126.267 136.175 127.309Z" fill="#263238"/>
<path d="M137.324 118.288C136.514 117.204 135.795 116.057 135.173 114.856C134.455 113.71 133.833 112.507 133.314 111.259C134.836 113.491 136.177 115.841 137.324 118.288Z" fill="#263238"/>
<path d="M136.08 105.581C135.274 104.496 134.557 103.348 133.936 102.149C133.22 101.003 132.596 99.8026 132.071 98.5581C132.882 99.6403 133.601 100.788 134.222 101.99C134.936 103.136 135.557 104.336 136.08 105.581Z" fill="#263238"/>
<path d="M161.569 272.224C176.166 257.626 176.166 233.959 161.569 219.361C146.971 204.764 123.304 204.764 108.706 219.361C94.1086 233.959 94.1086 257.626 108.706 272.224C123.304 286.821 146.971 286.821 161.569 272.224Z" fill="#3A86FF"/>
<path opacity="0.4" d="M161.569 272.224C176.166 257.626 176.166 233.959 161.569 219.361C146.971 204.764 123.304 204.764 108.706 219.361C94.1086 233.959 94.1086 257.626 108.706 272.224C123.304 286.821 146.971 286.821 161.569 272.224Z" fill="black"/>
<path d="M159.294 268.294C173.891 253.696 173.891 230.029 159.294 215.432C144.696 200.834 121.029 200.834 106.431 215.432C91.8337 230.029 91.8337 253.696 106.431 268.294C121.029 282.892 144.696 282.892 159.294 268.294Z" fill="#3A86FF"/>
<path opacity="0.2" d="M135.342 269.138C150.999 267.617 162.488 254.007 161.005 238.74C159.521 223.473 145.626 212.329 129.97 213.851C114.313 215.372 102.824 228.982 104.307 244.249C105.791 259.516 119.685 270.659 135.342 269.138Z" fill="white"/>
<path d="M135.336 269.018C127.962 269.735 120.599 267.547 114.812 262.92C109.025 258.294 105.271 251.593 104.346 244.242C104.346 244.512 104.376 244.783 104.402 245.053C105.133 252.57 108.819 259.488 114.651 264.286C120.482 269.085 127.981 271.37 135.497 270.639C143.014 269.909 149.932 266.222 154.73 260.391C159.529 254.559 161.814 247.06 161.083 239.544C161.053 239.274 161.015 239.007 160.985 238.737C161.492 246.13 159.097 253.429 154.307 259.084C149.518 264.738 142.712 268.302 135.336 269.018Z" fill="#FAFAFA"/>
<path opacity="0.3" d="M129.982 213.948C137.356 213.232 144.719 215.42 150.506 220.046C156.294 224.673 160.049 231.373 160.976 238.724C160.954 238.454 160.942 238.187 160.916 237.912C160.185 230.396 156.499 223.478 150.667 218.679C144.836 213.881 137.337 211.596 129.821 212.327C122.304 213.057 115.386 216.744 110.588 222.575C105.789 228.407 103.504 235.905 104.235 243.422C104.265 243.697 104.303 243.963 104.338 244.229C103.83 236.837 106.225 229.538 111.014 223.883C115.802 218.229 122.607 214.664 129.982 213.948Z" fill="black"/>
<path d="M148.214 248.119C147.828 244.139 145.681 241.747 142.782 240.965C144.672 239.501 145.788 237.054 145.479 233.906C145.101 229.994 142.649 227.431 138.437 226.903L137.964 222.072L133.507 222.501L133.936 226.993L131.424 227.259L130.995 222.767L126.534 223.197L126.963 227.688L122.901 228.083L120.071 228.358L120.5 232.82L123.33 232.541L125.413 254.217L122.282 254.522L122.712 258.983L125.842 258.678L129.904 258.283L130.411 263.505L134.873 263.075L134.366 257.854L136.895 257.609L137.436 262.826L141.898 262.397L141.374 257.004C146.325 255.806 148.656 252.654 148.214 248.119ZM128.973 231.982L135.014 231.398C138.364 231.072 140.399 232.287 140.674 235.13C140.949 237.973 139.184 239.51 135.834 239.853L128.964 240.519L128.144 232.081L128.973 231.982ZM138.089 252.993L130.789 253.702L130.274 253.753L129.415 244.92L137.234 244.16C140.884 243.804 142.988 244.968 143.285 248.025C143.581 251.082 141.73 252.632 138.089 252.989V252.993Z" fill="#3A86FF"/>
<path opacity="0.3" d="M148.214 248.119C147.828 244.139 145.681 241.747 142.782 240.965C144.672 239.501 145.788 237.054 145.479 233.906C145.101 229.994 142.649 227.431 138.437 226.903L137.964 222.072L133.507 222.501L133.936 226.993L131.424 227.259L130.995 222.767L126.534 223.197L126.963 227.688L122.901 228.083L120.071 228.358L120.5 232.82L123.33 232.541L125.413 254.217L122.282 254.522L122.712 258.983L125.842 258.678L129.904 258.283L130.411 263.505L134.873 263.075L134.366 257.854L136.895 257.609L137.436 262.826L141.898 262.397L141.374 257.004C146.325 255.806 148.656 252.654 148.214 248.119ZM128.973 231.982L135.014 231.398C138.364 231.072 140.399 232.287 140.674 235.13C140.949 237.973 139.184 239.51 135.834 239.853L128.964 240.519L128.144 232.081L128.973 231.982ZM138.089 252.993L130.789 253.702L130.274 253.753L129.415 244.92L137.234 244.16C140.884 243.804 142.988 244.968 143.285 248.025C143.581 251.082 141.73 252.632 138.089 252.989V252.993Z" fill="black"/>
<path d="M146.05 248.33C145.663 244.349 143.512 241.957 140.618 241.176C142.503 239.712 143.624 237.264 143.315 234.117C142.932 230.205 140.485 227.641 136.268 227.113L135.8 222.282L131.339 222.712L131.768 227.203L129.234 227.448L128.805 222.956L124.348 223.386L124.777 227.877L120.715 228.272L117.885 228.547L118.315 233.009L121.145 232.734L123.266 254.432L120.14 254.732L120.569 259.194L123.695 258.889L127.757 258.494L128.268 263.715L132.726 263.286L132.219 258.064L134.752 257.82L135.259 263.041L139.72 262.612L139.192 257.218C144.156 256.029 146.488 252.864 146.05 248.33ZM126.808 232.193L132.846 231.605C136.195 231.278 138.23 232.493 138.51 235.336C138.789 238.179 137.02 239.716 133.666 240.059L126.795 240.725L125.971 232.287L126.808 232.193ZM135.92 253.199L128.62 253.908L128.105 253.959L127.246 245.126L135.07 244.366C138.716 244.01 140.824 245.174 141.12 248.231C141.417 251.288 139.583 252.843 135.92 253.199Z" fill="#3A86FF"/>
<path d="M166.635 225.778C166.57 225.7 166.514 225.615 166.468 225.524L166.039 224.747C165.858 224.399 165.609 223.978 165.326 223.493C165.042 223.008 164.707 222.433 164.287 221.823C162.004 218.32 159.152 215.222 155.849 212.659C153.571 210.899 151.1 209.402 148.485 208.198C145.476 206.828 142.299 205.861 139.038 205.321C137.28 205.018 135.501 204.852 133.717 204.823C131.852 204.776 129.985 204.876 128.135 205.123C126.225 205.374 124.337 205.771 122.489 206.313C118.673 207.43 115.062 209.152 111.792 211.414C110.205 212.508 108.708 213.725 107.314 215.055C104.672 217.574 102.415 220.468 100.615 223.643C98.9854 226.517 97.7409 229.592 96.9134 232.79C96.2175 235.579 95.8387 238.439 95.7841 241.313C95.7273 243.691 95.9028 246.068 96.3079 248.411C96.6109 250.183 97.0414 251.931 97.5961 253.641C97.8065 254.35 98.0255 254.964 98.2402 255.501C98.4549 256.038 98.6138 256.484 98.7684 256.845L99.099 257.669C99.1437 257.761 99.1741 257.86 99.1892 257.961C99.1278 257.88 99.076 257.792 99.0346 257.699L98.6439 256.901C98.4678 256.549 98.2617 256.106 98.0556 255.574C97.8495 255.041 97.579 254.432 97.3514 253.723C96.7477 252.013 96.2782 250.259 95.9472 248.476C95.4997 246.112 95.2883 243.71 95.316 241.305C95.3761 235.004 97.0291 228.82 100.121 223.33C101.938 220.094 104.225 217.145 106.906 214.579C108.326 213.224 109.849 211.982 111.462 210.864C114.787 208.559 118.463 206.806 122.347 205.673C124.231 205.123 126.154 204.721 128.101 204.471C129.977 204.226 131.869 204.13 133.76 204.183C135.575 204.22 137.384 204.396 139.171 204.711C145.383 205.758 151.228 208.364 156.158 212.286C158.047 213.776 159.782 215.452 161.337 217.288C162.507 218.667 163.57 220.134 164.514 221.677C164.922 222.299 165.231 222.888 165.506 223.394C165.781 223.901 166.004 224.326 166.167 224.683L166.541 225.494C166.635 225.679 166.661 225.773 166.635 225.778Z" fill="#FAFAFA"/>
<path d="M128.805 222.965C128.805 223.081 127.088 223.351 124.374 223.678L124.623 223.373C124.777 224.661 124.945 226.198 125.117 227.856L125.147 228.186L124.816 228.221L123.614 228.341C121.505 228.547 119.543 228.715 117.915 228.835L118.169 228.534C118.371 231.231 118.439 233.009 118.323 233.021C118.207 233.034 117.937 231.274 117.615 228.586L117.581 228.315L117.864 228.285C119.483 228.088 121.441 227.877 123.549 227.671L124.752 227.559L124.451 227.92C124.296 226.263 124.168 224.721 124.069 223.429V223.145L124.335 223.124C127.027 222.918 128.797 222.849 128.805 222.965Z" fill="#FAFAFA"/>
<path d="M136.745 222.269C136.745 222.454 135.568 222.72 134.078 222.866C132.588 223.012 131.369 222.978 131.352 222.793C131.334 222.609 132.524 222.342 134.014 222.201C135.504 222.059 136.728 222.106 136.745 222.269Z" fill="#FAFAFA"/>
<path d="M123 254.14C122.815 254.14 122.201 249.416 121.634 243.538C121.067 237.659 120.75 232.893 120.934 232.876C121.119 232.858 121.729 237.599 122.3 243.473C122.871 249.347 123.184 254.122 123 254.14Z" fill="#FAFAFA"/>
<path d="M135.929 239.862C135.929 240.047 134.035 240.386 131.656 240.613C129.277 240.841 127.341 240.884 127.324 240.699C127.306 240.515 129.217 240.18 131.592 239.948C133.966 239.716 135.912 239.677 135.929 239.862Z" fill="#FAFAFA"/>
<path d="M137.38 253.092C137.402 253.277 135.486 253.612 133.112 253.844C130.737 254.075 128.796 254.11 128.775 253.929C128.753 253.749 130.669 253.406 133.047 253.174C135.426 252.942 137.363 252.907 137.38 253.092Z" fill="#FAFAFA"/>
<path d="M127.521 282.39C126.649 281.163 125.901 279.853 125.288 278.478C126.159 279.706 126.907 281.016 127.521 282.39Z" fill="#263238"/>
<path d="M121.368 280.428C120.917 279.863 120.526 279.252 120.2 278.607C119.81 277.998 119.485 277.351 119.229 276.675C120.075 277.847 120.794 279.105 121.376 280.428H121.368Z" fill="#263238"/>
<path d="M115.73 277.727C115.281 277.161 114.892 276.551 114.566 275.906C114.175 275.297 113.849 274.65 113.591 273.974C114.042 274.539 114.433 275.149 114.759 275.794C115.149 276.403 115.474 277.051 115.73 277.727Z" fill="#263238"/>
<path d="M134.001 283.184C133.536 282.591 133.13 281.954 132.79 281.282C132.384 280.648 132.043 279.975 131.772 279.272C132.238 279.863 132.643 280.499 132.983 281.17C133.39 281.805 133.731 282.48 134.001 283.184Z" fill="#263238"/>
<path d="M140.047 282.849C139.176 281.622 138.428 280.312 137.814 278.938C138.687 280.164 139.435 281.474 140.047 282.849Z" fill="#263238"/>
<path d="M145.973 281.557C145.506 280.966 145.099 280.33 144.757 279.659C144.355 279.022 144.014 278.347 143.74 277.645C144.207 278.237 144.614 278.874 144.955 279.547C145.358 280.183 145.699 280.856 145.973 281.557Z" fill="#263238"/>
<path d="M151.392 279.573C150.924 278.981 150.517 278.344 150.177 277.671C149.774 277.035 149.434 276.362 149.159 275.661C149.627 276.251 150.034 276.887 150.374 277.559C150.777 278.196 151.117 278.871 151.392 279.573Z" fill="#263238"/>
<path d="M156.57 276.537C156.104 275.944 155.697 275.307 155.355 274.635C154.952 273.998 154.612 273.323 154.337 272.621C154.805 273.213 155.212 273.85 155.553 274.523C155.956 275.16 156.297 275.835 156.57 276.537Z" fill="#263238"/>
<path d="M161.053 272.819C160.587 272.226 160.18 271.588 159.838 270.916C159.435 270.279 159.095 269.605 158.82 268.902C159.288 269.494 159.695 270.132 160.036 270.805C160.439 271.441 160.78 272.116 161.053 272.819Z" fill="#263238"/>
<path d="M164.622 268.911C164.158 268.318 163.752 267.681 163.411 267.009C163.004 266.374 162.663 265.699 162.393 264.995C162.858 265.588 163.264 266.225 163.604 266.897C164.012 267.532 164.353 268.207 164.622 268.911Z" fill="#263238"/>
<path d="M167.859 264.394C166.99 263.164 166.242 261.852 165.626 260.478C166.093 261.07 166.5 261.708 166.842 262.38C167.246 263.016 167.587 263.691 167.859 264.394Z" fill="#263238"/>
<path d="M170.5 259.267C170.033 258.675 169.626 258.037 169.285 257.364C168.881 256.728 168.54 256.053 168.267 255.351C168.733 255.944 169.14 256.581 169.482 257.253C169.885 257.89 170.226 258.565 170.5 259.267Z" fill="#263238"/>
<path d="M172.175 253.513C171.707 252.921 171.3 252.283 170.96 251.61C170.555 250.971 170.215 250.294 169.942 249.588C170.408 250.181 170.815 250.818 171.157 251.49C171.56 252.13 171.901 252.807 172.175 253.513Z" fill="#263238"/>
<path d="M172.952 247.407C172.404 246.673 171.917 245.896 171.496 245.084C171.01 244.308 170.589 243.494 170.238 242.649C171.268 244.16 172.176 245.751 172.952 247.407Z" fill="#263238"/>
<path d="M172.11 238.806C171.565 238.072 171.08 237.295 170.659 236.483C170.174 235.707 169.752 234.895 169.397 234.052C169.946 234.785 170.433 235.562 170.852 236.375C171.336 237.151 171.756 237.963 172.11 238.806Z" fill="#263238"/>
</svg>
