<svg width="338" height="281" viewBox="0 0 338 281" fill="none" xmlns="http://www.w3.org/2000/svg">
<path d="M61.07 220.67L88.07 280.28H101.1L102.96 275.73L105.28 280.28H113.83L112.83 245.49L112.41 224.93L61.07 220.67Z" fill="#1F75FF"/>
<path opacity="0.3" d="M61.07 220.67L88.07 280.28H101.1L102.96 275.73L105.28 280.28H113.83L112.83 245.49L112.41 224.93L61.07 220.67Z" fill="black"/>
<path d="M179.22 227.06L205.55 280.28H218.58L220.45 276.12L222.76 280.28H231.31L230.32 248.43L229.89 229.61L179.22 227.06Z" fill="#1F75FF"/>
<path opacity="0.3" d="M179.22 227.06L205.55 280.28H218.58L220.45 276.12L222.76 280.28H231.31L230.32 248.43L229.89 229.61L179.22 227.06Z" fill="black"/>
<path d="M328.97 70.21L329.22 70.29L329.92 70.6C330.799 71.0374 331.619 71.5852 332.36 72.23C333.74 73.4184 334.87 74.8695 335.683 76.4987C336.497 78.128 336.979 79.9029 337.1 81.72C337.255 84.2552 336.616 86.7758 335.27 88.93C333.735 91.4123 331.462 93.3528 328.77 94.48C327.297 95.1356 325.702 95.4744 324.09 95.4744C322.478 95.4744 320.883 95.1356 319.41 94.48C317.827 93.7364 316.584 92.4218 315.93 90.8C315.572 89.9702 315.428 89.0636 315.512 88.1637C315.596 87.2637 315.905 86.3993 316.41 85.65C316.949 84.9305 317.64 84.3381 318.433 83.9148C319.226 83.4914 320.102 83.2474 321 83.2C322.743 83.1317 324.451 83.6964 325.81 84.79C327.07 85.807 328.075 87.1041 328.745 88.5781C329.415 90.052 329.732 91.6621 329.67 93.28C329.58 96.2046 328.525 99.0174 326.67 101.28C325.845 102.305 324.863 103.193 323.76 103.91C322.73 104.54 321.625 105.037 320.47 105.39C318.474 105.965 316.38 106.122 314.32 105.85C312.772 105.655 311.261 105.241 309.83 104.62C308.93 104.226 308.069 103.747 307.26 103.19L306.65 102.73C306.52 102.63 306.45 102.57 306.46 102.56C307.547 103.294 308.702 103.92 309.91 104.43C311.329 105.015 312.824 105.396 314.35 105.56C316.365 105.794 318.406 105.617 320.35 105.04C321.468 104.687 322.537 104.193 323.53 103.57C324.592 102.872 325.534 102.008 326.32 101.01C328.101 98.8123 329.106 96.0879 329.18 93.26C329.238 91.7202 328.934 90.1883 328.293 88.7869C327.652 87.3856 326.692 86.1537 325.49 85.19C324.229 84.1697 322.64 83.6435 321.02 83.71C320.2 83.7548 319.4 83.9774 318.674 84.3625C317.949 84.7476 317.316 85.2859 316.82 85.94C316.369 86.6208 316.094 87.4033 316.021 88.2169C315.947 89.0304 316.078 89.8494 316.4 90.6C317.006 92.1015 318.156 93.3193 319.62 94.01C321.037 94.639 322.57 94.964 324.12 94.964C325.67 94.964 327.203 94.639 328.62 94.01C331.228 92.9301 333.434 91.0634 334.93 88.67C336.26 86.587 336.901 84.1377 336.76 81.67C336.653 79.6454 336.086 77.6718 335.1 75.9C334.361 74.553 333.401 73.3396 332.26 72.31C331.26 71.4689 330.154 70.7628 328.97 70.21V70.21Z" fill="#1F75FF"/>
<path d="M316.08 124.14C320 212.59 245.85 256.72 161.91 256.72C77.97 256.72 9.91 199.25 9.91 128.36C9.91 57.47 77.96 0 161.91 0C245.86 0 312.94 53.32 316.08 124.14Z" fill="#1F75FF"/>
<path opacity="0.3" d="M151.32 31.66C151.32 31.66 161.4 28.46 170.83 39.12C180.26 49.78 193.38 67.94 193.38 67.94C192.2 73.85 188.75 78.46 182.06 81.2L151.32 31.66Z" fill="black"/>
<path d="M61.98 220.32C90.7209 220.32 114.02 202.465 114.02 180.44C114.02 158.415 90.7209 140.56 61.98 140.56C33.2391 140.56 9.94 158.415 9.94 180.44C9.94 202.465 33.2391 220.32 61.98 220.32Z" fill="#1F75FF"/>
<path d="M110.51 73.83C110.51 73.83 141.01 26.51 154.98 31.64C168.95 36.77 182.06 81.24 182.06 81.24" fill="#1F75FF"/>
<path d="M76.02 62.98L74.6 50.17C74.6 50.17 55.5 42.17 38.4 38.28C21.3 34.39 17.93 38.28 17.93 38.28L44.98 76.19L76.02 62.98Z" fill="#1F75FF"/>
<path opacity="0.3" d="M116.73 17.6L126.85 23.6C126.85 23.6 175.85 10.6 213.51 23.6L199.7 11.84C199.7 11.84 154.05 2.03999 116.73 17.6Z" fill="black"/>
<path opacity="0.3" d="M61.98 220.32C90.7209 220.32 114.02 202.465 114.02 180.44C114.02 158.415 90.7209 140.56 61.98 140.56C33.2391 140.56 9.94 158.415 9.94 180.44C9.94 202.465 33.2391 220.32 61.98 220.32Z" fill="black"/>
<path d="M48.75 220.32C75.6739 220.32 97.5 202.465 97.5 180.44C97.5 158.415 75.6739 140.56 48.75 140.56C21.8261 140.56 0 158.415 0 180.44C0 202.465 21.8261 220.32 48.75 220.32Z" fill="#1F75FF"/>
<path opacity="0.3" d="M31.9 161.74H28.15C26.3054 161.74 24.81 163.235 24.81 165.08V195.82C24.81 197.665 26.3054 199.16 28.15 199.16H31.9C33.7446 199.16 35.24 197.665 35.24 195.82V165.08C35.24 163.235 33.7446 161.74 31.9 161.74Z" fill="black"/>
<path opacity="0.3" d="M59.91 161.74H56.16C54.3154 161.74 52.82 163.235 52.82 165.08V195.82C52.82 197.665 54.3154 199.16 56.16 199.16H59.91C61.7546 199.16 63.25 197.665 63.25 195.82V165.08C63.25 163.235 61.7546 161.74 59.91 161.74Z" fill="black"/>
<path opacity="0.3" d="M73.06 64.24C77.45 61.76 79.81 58.06 78.15 51.96C78.15 51.96 55.5 42.19 38.4 38.28C21.3 34.37 17.93 38.28 17.93 38.28L44.98 76.19L73.06 64.24Z" fill="black"/>
<path d="M74.6 65.28C74.6 65.28 73.33 64.41 71.19 62.98C61.09 56.25 31.61 36.98 24.19 36.77C13.93 36.48 13.92 45.32 13.93 52.17C13.93 57.02 17.93 99.17 17.93 99.17" fill="#1F75FF"/>
<path d="M182.06 81.24C182.011 81.1484 181.974 81.051 181.95 80.95C181.87 80.73 181.77 80.44 181.65 80.08L180.53 76.73C179.53 73.83 178.08 69.64 176.07 64.54C173.765 58.5545 171.093 52.7168 168.07 47.06C166.306 43.7174 164.234 40.547 161.88 37.59C160.657 36.0253 159.235 34.6269 157.65 33.43C156.1 32.1232 154.115 31.4484 152.09 31.54C150.07 31.7944 148.126 32.4762 146.39 33.54C144.661 34.532 143.016 35.6623 141.47 36.92C138.552 39.3258 135.799 41.925 133.23 44.7C128.871 49.4054 124.752 54.3283 120.89 59.45C117.56 63.81 115 67.45 113.24 69.94L111.24 72.84L110.72 73.59C110.664 73.6812 110.597 73.7652 110.52 73.84L110.67 73.56L111.16 72.78C111.59 72.1 112.24 71.1 113.09 69.83C114.8 67.28 117.32 63.62 120.61 59.23C124.444 54.0648 128.546 49.1046 132.9 44.37C135.471 41.5678 138.235 38.9481 141.17 36.53C142.741 35.2471 144.413 34.0933 146.17 33.08C147.98 32.0029 149.998 31.3213 152.09 31.08C153.167 30.9771 154.254 31.1313 155.26 31.53C156.231 31.9274 157.148 32.4448 157.99 33.07C159.608 34.297 161.063 35.7251 162.32 37.32C164.682 40.3109 166.761 43.5147 168.53 46.89C171.54 52.576 174.186 58.4479 176.45 64.47C178.45 69.59 179.82 73.8 180.75 76.73C181.22 78.19 181.56 79.33 181.75 80.11C181.85 80.47 181.93 80.77 182 80.99C182.029 81.071 182.049 81.1548 182.06 81.24Z" fill="#263238"/>
<path d="M199.7 11.85L199.95 12.03L200.65 12.6L203.31 14.82L213.03 23.07L213.68 23.62L212.86 23.39C199.787 19.7041 186.282 17.7771 172.7 17.66C157.338 17.5027 142.034 19.5606 127.26 23.77H127.2H127.14L119.44 19.26L117.44 18.04L116.93 17.72C116.869 17.6866 116.812 17.6464 116.76 17.6L116.95 17.68L117.49 17.97L119.56 19.11L127.33 23.5H127.2C133.568 21.6154 140.052 20.1457 146.61 19.1C150.49 18.46 154.61 17.99 159.04 17.61C163.47 17.23 168.04 17.08 172.73 17.17C180.216 17.243 187.686 17.868 195.08 19.04C201.127 20.0034 207.108 21.3393 212.99 23.04L212.82 23.36L203.18 14.98L200.58 12.68L199.92 12.07C199.837 12.0065 199.763 11.9326 199.7 11.85V11.85Z" fill="#263238"/>
<g opacity="0.2">
<path opacity="0.2" d="M143.33 143.27C143.1 144.7 141.63 145.77 139.54 146.49C137.019 147.275 134.391 147.663 131.75 147.64C129.107 147.709 126.47 147.372 123.93 146.64C121.83 145.97 120.34 144.93 120.08 143.51C119.82 142.09 120.89 140.57 122.98 139.34C125.659 137.965 128.621 137.233 131.633 137.2C134.644 137.167 137.621 137.834 140.33 139.15C142.45 140.35 143.56 141.86 143.33 143.27Z" fill="white"/>
</g>
<path d="M77.83 148.43C77.7267 148.386 77.6293 148.328 77.54 148.26L76.74 147.72L75.43 146.84C74.9 146.52 74.27 146.19 73.56 145.79C69.5248 143.67 65.1821 142.195 60.69 141.42C57.5896 140.893 54.4542 140.599 51.31 140.54C47.6981 140.518 44.0902 140.782 40.52 141.33C32.3164 142.539 24.4917 145.584 17.63 150.24C15.8692 151.488 14.1984 152.858 12.63 154.34C11.0997 155.786 9.68222 157.348 8.39 159.01C5.94622 162.155 3.97848 165.642 2.55 169.36C0.267414 175.739 -0.176128 182.631 1.27 189.25C1.86511 191.773 2.74754 194.219 3.9 196.54C4.8088 198.275 5.87672 199.922 7.09 201.46L8.48 203.1L9.6 204.2L10.28 204.88C10.43 205.04 10.51 205.12 10.5 205.13C10.4084 205.071 10.3244 205 10.25 204.92L9.52 204.27L8.36 203.2L6.94 201.59C5.68721 200.061 4.58226 198.417 3.64 196.68C2.45179 194.347 1.53899 191.884 0.919998 189.34C-0.60394 182.647 -0.194714 175.659 2.1 169.19C2.79724 167.346 3.63296 165.558 4.6 163.84C5.59499 162.041 6.72841 160.323 7.99 158.7C9.29779 157.017 10.7284 155.432 12.27 153.96C13.8712 152.459 15.5753 151.073 17.37 149.81C24.2951 145.106 32.2026 142.045 40.49 140.86C44.0836 140.315 47.7156 140.064 51.35 140.11C54.5157 140.187 57.6713 140.501 60.79 141.05C65.2993 141.887 69.6448 143.444 73.66 145.66C74.36 146.08 74.99 146.43 75.52 146.76L76.8 147.69L77.58 148.27C77.75 148.35 77.84 148.42 77.83 148.43Z" fill="#263238"/>
<path d="M34.94 165.24C35.0295 165.765 35.0697 166.297 35.06 166.83C35.06 167.95 35.17 169.41 35.24 171.18C35.4 174.84 35.7 179.91 35.83 185.51C35.83 186.92 35.83 188.29 35.83 189.61C35.8549 190.896 35.7612 192.181 35.55 193.45C35.4077 194.552 35.0146 195.606 34.4009 196.532C33.7872 197.457 32.9692 198.23 32.01 198.79C31.3363 199.132 30.585 199.291 29.8307 199.252C29.0764 199.214 28.3453 198.979 27.71 198.57C27.3722 198.347 27.0831 198.058 26.86 197.72C26.7751 197.609 26.7107 197.484 26.67 197.35C26.9962 197.758 27.3842 198.112 27.82 198.4C28.428 198.744 29.1125 198.931 29.8111 198.943C30.5097 198.955 31.2003 198.793 31.82 198.47C32.7079 197.915 33.4599 197.168 34.0206 196.283C34.5814 195.399 34.9366 194.4 35.06 193.36C35.2489 192.119 35.3292 190.865 35.3 189.61C35.3 188.29 35.3 186.92 35.25 185.53C35.12 179.93 34.87 174.86 34.81 171.19C34.81 169.35 34.81 167.86 34.81 166.83C34.8159 166.298 34.8593 165.766 34.94 165.24Z" fill="#263238"/>
<path d="M62.59 165.24C62.6657 165.767 62.7025 166.298 62.7 166.83C62.7 167.95 62.81 169.41 62.88 171.18C63.04 174.84 63.34 179.91 63.48 185.51C63.48 186.92 63.48 188.29 63.48 189.61C63.4967 190.896 63.3996 192.181 63.19 193.45C63.0492 194.552 62.6567 195.607 62.0428 196.533C61.429 197.459 60.6102 198.231 59.65 198.79C58.9761 199.131 58.2249 199.289 57.4708 199.251C56.7167 199.212 55.9857 198.978 55.35 198.57C55.0155 198.343 54.7271 198.054 54.5 197.72C54.35 197.49 54.3 197.35 54.32 197.35C54.641 197.759 55.026 198.114 55.46 198.4C56.068 198.744 56.7525 198.931 57.4511 198.943C58.1497 198.955 58.8403 198.793 59.46 198.47C60.3479 197.915 61.0999 197.168 61.6606 196.283C62.2214 195.399 62.5766 194.4 62.7 193.36C62.8924 192.12 62.9761 190.865 62.95 189.61C62.95 188.29 62.95 186.92 62.9 185.53C62.76 179.93 62.52 174.86 62.46 171.19C62.46 169.35 62.46 167.86 62.46 166.83C62.4529 166.297 62.4964 165.765 62.59 165.24V165.24Z" fill="#263238"/>
<path d="M96.92 189.13C96.8644 189.365 96.7909 189.596 96.7 189.82C96.53 190.26 96.34 190.93 95.96 191.74C94.9707 194.077 93.7478 196.309 92.31 198.4C90.1804 201.507 87.6934 204.353 84.9 206.88C83.246 208.368 81.5028 209.754 79.68 211.03C77.711 212.378 75.653 213.591 73.52 214.66C69.4023 216.769 65.0342 218.348 60.52 219.36C56.8352 220.141 53.0765 220.52 49.31 220.49C46.11 220.49 43.52 220.29 41.74 220.17L39.68 220C39.4408 219.996 39.2027 219.966 38.97 219.91C39.2094 219.886 39.4506 219.886 39.69 219.91L41.75 219.97C43.53 220.04 46.12 220.16 49.31 220.13C53.0463 220.112 56.7703 219.7 60.42 218.9C64.8729 217.869 69.182 216.294 73.25 214.21C75.3652 213.152 77.4065 211.953 79.36 210.62C81.1654 209.359 82.8981 207.997 84.55 206.54C87.3332 204.049 89.8258 201.251 91.98 198.2C93.4394 196.138 94.7112 193.949 95.78 191.66C96.18 190.87 96.4 190.21 96.61 189.78C96.6868 189.552 96.7909 189.333 96.92 189.13V189.13Z" fill="#263238"/>
<path d="M34.34 164.13C34.1361 163.779 33.9054 163.445 33.65 163.13C33.2857 162.732 32.8445 162.411 32.353 162.187C31.8614 161.964 31.3298 161.842 30.79 161.83C29.9936 161.824 29.2054 161.99 28.4788 162.316C27.7523 162.642 27.1046 163.121 26.58 163.72C25.9495 164.417 25.5087 165.264 25.3 166.18C25.0761 167.181 24.9753 168.205 25 169.23C25 173.53 25.05 177.44 25 180.23C25 181.55 25 182.67 25 183.57C25.0135 183.978 24.9867 184.387 24.92 184.79C24.8301 184.39 24.7898 183.98 24.8 183.57C24.8 182.67 24.73 181.57 24.68 180.23C24.61 177.41 24.53 173.51 24.5 169.23C24.4745 168.161 24.582 167.093 24.82 166.05C25.066 165.06 25.5539 164.146 26.24 163.39C26.818 162.751 27.5301 162.247 28.3253 161.916C29.1205 161.584 29.9792 161.432 30.84 161.47C31.4196 161.499 31.9865 161.651 32.5034 161.915C33.0204 162.178 33.4759 162.548 33.84 163C34.0293 163.244 34.1841 163.514 34.3 163.8C34.33 164.01 34.36 164.12 34.34 164.13Z" fill="white"/>
<path d="M52.66 166.43C52.8 166.43 52.92 171.7 52.92 178.2C52.92 184.7 52.8 189.98 52.66 189.98C52.52 189.98 52.4 184.71 52.4 178.2C52.4 171.69 52.52 166.43 52.66 166.43Z" fill="white"/>
<path d="M44.27 143.73C44.0699 143.774 43.8647 143.791 43.66 143.78C43.25 143.78 42.66 143.78 41.9 143.78C39.7461 143.86 37.6006 144.094 35.48 144.48C27.4096 145.983 19.9468 149.79 13.9932 155.442C8.03965 161.094 3.84987 168.349 1.93001 176.33C1.73001 177.06 1.64001 177.65 1.54001 178.04C1.50506 178.242 1.44806 178.44 1.37001 178.63C1.36318 178.425 1.38335 178.22 1.43001 178.02C1.50001 177.62 1.56001 177.02 1.73001 176.28C2.16679 174.155 2.78231 172.071 3.57001 170.05C6.14031 163.315 10.4358 157.375 16.0259 152.824C21.6159 148.273 28.3042 145.271 35.42 144.12C37.5575 143.757 39.722 143.577 41.89 143.58C42.66 143.58 43.26 143.63 43.66 143.64C43.8657 143.651 44.07 143.681 44.27 143.73V143.73Z" fill="white"/>
<path d="M18.12 92.79C18.088 92.9877 18.0274 93.1798 17.94 93.36L17.32 94.94C17.04 95.62 16.71 96.46 16.32 97.45C15.93 98.44 15.53 99.55 15.15 100.81C14.77 102.07 14.29 103.43 13.89 104.93C13.49 106.43 13.08 108.03 12.67 109.72C10.999 117.09 10.2135 124.634 10.33 132.19C10.39 133.93 10.41 135.59 10.54 137.13C10.67 138.67 10.77 140.13 10.92 141.42C11.07 142.71 11.23 143.91 11.37 144.95C11.51 145.99 11.66 146.88 11.79 147.6C11.92 148.32 12 148.84 12.07 149.28C12.1168 149.473 12.137 149.672 12.13 149.87C12.0545 149.687 12.0008 149.496 11.97 149.3L11.59 147.64C11.43 146.92 11.24 146.03 11.08 145C10.92 143.97 10.69 142.78 10.55 141.47C10.41 140.16 10.21 138.72 10.11 137.16C10.01 135.6 9.92 133.95 9.85 132.16C9.70024 124.589 10.5066 117.029 12.25 109.66C12.68 107.96 13.06 106.35 13.53 104.86C14 103.37 14.41 101.99 14.85 100.74C15.29 99.49 15.72 98.38 16.09 97.4C16.46 96.42 16.83 95.58 17.09 94.91C17.35 94.24 17.61 93.77 17.8 93.37C17.8813 93.1637 17.9889 92.9688 18.12 92.79V92.79Z" fill="white"/>
<path d="M19.62 40.79C19.62 40.79 19.21 41.33 18.62 42.38C17.7991 43.8755 17.2346 45.498 16.95 47.18C16.5383 49.6823 16.331 52.214 16.33 54.75C16.25 57.62 16.24 60.75 16.33 64.09C16.49 70.72 17.02 76.71 17.52 81.02C17.79 83.12 18 84.84 18.16 86.13L18.34 87.52C18.3534 87.683 18.3534 87.8469 18.34 88.01C18.2695 87.8622 18.2255 87.7031 18.21 87.54C18.13 87.16 18.04 86.71 17.93 86.16C17.71 84.97 17.43 83.23 17.13 81.07C16.3645 75.4328 15.9138 69.7574 15.78 64.07C15.7 60.75 15.78 57.58 15.78 54.7C15.7974 52.1396 16.0451 49.586 16.52 47.07C16.8431 45.3624 17.4696 43.7265 18.37 42.24C18.6197 41.8417 18.9006 41.4639 19.21 41.11C19.48 40.9 19.6 40.78 19.62 40.79Z" fill="white"/>
<path d="M116.96 9.46002C116.752 9.55818 116.538 9.64497 116.32 9.72002L114.46 10.38L107.61 12.73C100.055 15.2521 92.6385 18.1695 85.39 21.47C78.1477 24.7856 71.3124 28.9263 65.02 33.81C62.63 35.71 60.79 37.36 59.55 38.54C58.92 39.11 58.46 39.59 58.13 39.9C57.9745 40.0695 57.8 40.2204 57.61 40.35C57.7414 40.1643 57.8886 39.9903 58.05 39.83C58.36 39.5 58.8 38.99 59.41 38.39C61.1186 36.6755 62.9143 35.05 64.79 33.52C71.048 28.527 77.896 24.3221 85.18 21C92.4421 17.6858 99.8953 14.8073 107.5 12.38C110.41 11.43 112.77 10.68 114.41 10.18L116.3 9.62003C116.514 9.54314 116.735 9.48949 116.96 9.46002V9.46002Z" fill="white"/>
<path d="M151.76 34.25C151.76 34.25 151.62 34.39 151.31 34.61L149.98 35.55C148.82 36.35 147.16 37.55 145.14 39.07C143.12 40.59 140.78 42.48 138.26 44.66C135.74 46.84 133.07 49.38 130.39 52.14C127.71 54.9 125.31 57.7 123.2 60.29C121.09 62.88 119.31 65.29 117.87 67.38C116.43 69.47 115.29 71.15 114.54 72.38L113.65 73.74C113.553 73.9045 113.439 74.0586 113.31 74.2C113.368 74.0186 113.452 73.8467 113.56 73.69C113.77 73.31 114.04 72.84 114.37 72.27C115.07 71.04 116.16 69.27 117.57 67.2C118.98 65.13 120.75 62.65 122.83 60.02C124.91 57.39 127.34 54.61 130.01 51.81C132.68 49.01 135.41 46.52 137.94 44.33C140.47 42.14 142.87 40.33 144.94 38.8C147.01 37.27 148.69 36.16 149.89 35.41L151.28 34.55C151.43 34.4345 151.591 34.334 151.76 34.25V34.25Z" fill="white"/>
<path d="M305.88 103.82C306.37 104.616 306.769 105.465 307.07 106.35C308.712 110.527 309.821 114.895 310.37 119.35C310.526 120.268 310.579 121.2 310.53 122.13C310.28 121.236 310.103 120.323 310 119.4C309.71 117.72 309.27 115.4 308.63 112.87C307.99 110.34 307.27 108.08 306.72 106.46C306.374 105.602 306.093 104.72 305.88 103.82Z" fill="white"/>
<path d="M281.96 218.45C281.96 218.45 281.79 218.59 281.46 218.83L279.99 219.83L277.59 221.52L276.06 222.66L274.27 223.82C267.158 228.509 259.753 232.738 252.1 236.48C249.68 237.66 247.1 238.84 244.43 240.06L240.28 241.82L238.18 242.66L235.98 243.5L231.46 245.23L226.74 246.86C225.15 247.44 223.51 247.93 221.84 248.44C220.17 248.95 218.51 249.51 216.78 249.95C209.601 251.98 202.317 253.619 194.96 254.86C187.065 256.236 179.088 257.095 171.08 257.43C163.072 257.777 155.05 257.527 147.08 256.68L144.19 256.4C143.24 256.3 142.29 256.14 141.35 256.01L135.74 255.22L130.29 254.22L127.62 253.71L124.99 253.11C112.635 250.403 100.576 246.484 88.99 241.41C81.173 238.042 73.6502 234.028 66.5 229.41C63.92 227.83 62.09 226.41 60.78 225.47L59.33 224.4C59 224.16 58.84 224.02 58.84 224.02L59.36 224.36L60.85 225.36C62.17 226.24 64.02 227.67 66.61 229.22C73.7887 233.779 81.3231 237.752 89.14 241.1C100.709 246.104 112.735 249.975 125.05 252.66L127.67 253.25L130.34 253.75L135.78 254.75L141.37 255.53C142.31 255.66 143.26 255.82 144.21 255.91L147.09 256.19C155.04 257.034 163.043 257.281 171.03 256.93C179.014 256.601 186.968 255.749 194.84 254.38C202.181 253.142 209.451 251.516 216.62 249.51C218.35 249.07 220.01 248.51 221.68 248.01C223.35 247.51 224.97 247.01 226.56 246.45L231.28 244.83L235.79 243.12L237.99 242.28L240.12 241.39L244.27 239.65C246.94 238.44 249.52 237.28 251.94 236.11C259.599 232.415 267.026 228.258 274.18 223.66C274.807 223.247 275.407 222.867 275.98 222.52L277.53 221.46L279.95 219.82L281.45 218.82L281.96 218.45Z" fill="#263238"/>
<path d="M238.88 229.16L258.98 280.55H272.72L275.71 276.08L279.24 280.55H284.09L285.9 199.1L238.88 229.16Z" fill="#1F75FF"/>
<path d="M112.63 236.39L129.63 280.55H145.25L148.44 275.44L151.52 280.55H155.39C155.39 280.55 157.09 230.73 155.39 229.32C153.69 227.91 112.63 236.39 112.63 236.39Z" fill="#1F75FF"/>
<path d="M311.07 137.66C311.083 137.76 311.083 137.86 311.07 137.96C311.07 138.18 311.07 138.46 311 138.82C310.92 139.61 310.82 140.71 310.69 142.11C310.62 142.83 310.54 143.63 310.45 144.49C310.36 145.35 310.16 146.3 310 147.31C309.64 149.31 309.35 151.63 308.7 154.12C308.41 155.38 308.1 156.69 307.78 158.06C307.46 159.43 306.98 160.81 306.56 162.26C305.76 165.18 304.56 168.2 303.4 171.39C297.968 185.165 290.012 197.805 279.94 208.66C277.56 211.1 275.36 213.47 273.06 215.45C271.94 216.45 270.89 217.45 269.8 218.37L266.66 220.91C264.66 222.57 262.73 223.83 261.07 225.02C260.23 225.61 259.46 226.17 258.73 226.65L256.68 227.89L253.85 229.59L253.1 230.02L252.84 230.16C252.84 230.16 252.91 230.09 253.07 229.98L253.79 229.5L256.58 227.72L258.58 226.44C259.31 225.95 260.06 225.38 260.89 224.79C262.53 223.57 264.47 222.29 266.42 220.62L269.53 218.07C270.61 217.18 271.64 216.15 272.76 215.14C275.03 213.14 277.22 210.78 279.57 208.34C289.561 197.492 297.485 184.908 302.95 171.21C304.13 168.04 305.32 165.04 306.13 162.13C306.56 160.69 307.04 159.31 307.38 157.95C307.72 156.59 308.03 155.29 308.38 154.04C309.06 151.56 309.38 149.26 309.75 147.26C309.93 146.26 310.12 145.32 310.25 144.46C310.38 143.6 310.44 142.81 310.53 142.09C310.7 140.69 310.84 139.59 310.93 138.81C310.98 138.46 311.02 138.18 311.05 137.95C311.045 137.853 311.051 137.756 311.07 137.66V137.66Z" fill="white"/>
<g opacity="0.2">
<path opacity="0.2" d="M289.33 94.34C284.77 83.03 274.82 72.34 263.33 67.69C261.14 66.8227 258.776 66.4882 256.432 66.7142C254.087 66.9403 251.83 67.7203 249.847 68.99C247.863 70.2597 246.209 71.9826 245.023 74.0169C243.836 76.0511 243.149 78.3384 243.02 80.69C243.025 80.7633 243.025 80.8368 243.02 80.91C242.66 88.15 245.51 95.17 249.02 101.53C252.53 107.89 256.68 113.91 259.39 120.63C263.856 131.844 263.999 144.317 259.79 155.63C257.11 162.75 252.67 170.34 256.69 177.43C259.33 182.09 264.64 184.38 269.97 183.9C280.18 182.97 285.48 173.75 290.32 165.37C294.21 158.63 297.42 148.15 297.6 140.24C298.139 124.526 295.32 108.878 289.33 94.34Z" fill="white"/>
</g>
<path d="M134.56 126.28C134.19 126.38 133.56 124.89 132.62 122.73C132.08 121.529 131.347 120.424 130.45 119.46C129.489 118.38 128.142 117.719 126.7 117.62C125.229 117.639 123.812 118.177 122.7 119.14C121.727 119.978 120.925 120.997 120.34 122.14C119.34 124.21 118.89 125.74 118.5 125.67C118.11 125.6 117.9 124.03 118.63 121.45C119.088 119.893 119.931 118.476 121.08 117.33C121.824 116.584 122.708 115.993 123.681 115.59C124.654 115.186 125.697 114.979 126.75 114.98C127.883 115.013 128.99 115.329 129.97 115.9C130.831 116.401 131.596 117.051 132.23 117.82C133.234 119.066 133.954 120.517 134.34 122.07C134.96 124.66 134.88 126.19 134.56 126.28Z" fill="#263238"/>
<path d="M58.61 120.17C58.61 121.592 58.1883 122.982 57.3982 124.165C56.6082 125.347 55.4853 126.268 54.1715 126.813C52.8577 127.357 51.412 127.499 50.0173 127.222C48.6226 126.944 47.3414 126.26 46.3359 125.254C45.3303 124.249 44.6456 122.967 44.3681 121.573C44.0907 120.178 44.2331 118.732 44.7773 117.419C45.3215 116.105 46.243 114.982 47.4254 114.192C48.6078 113.402 49.9979 112.98 51.42 112.98C53.3269 112.98 55.1557 113.738 56.5041 115.086C57.8525 116.434 58.61 118.263 58.61 120.17V120.17Z" fill="#263238"/>
<path d="M286.97 60.03C286.787 59.8685 286.623 59.6875 286.48 59.49L285.18 57.88C284.6 57.17 283.9 56.31 283.04 55.35C282.18 54.39 281.25 53.24 280.13 52.06C279.01 50.88 277.83 49.54 276.48 48.19C275.13 46.84 273.67 45.4 272.13 43.91C268.98 40.98 265.41 37.91 261.49 34.84C257.57 31.77 253.65 29.15 250.02 26.84C248.18 25.72 246.45 24.63 244.78 23.71C243.11 22.79 241.55 21.91 240.11 21.16C238.67 20.41 237.35 19.76 236.19 19.16C235.03 18.56 234.03 18.11 233.19 17.74L231.29 16.85C231.061 16.7575 230.843 16.6401 230.64 16.5C230.876 16.5655 231.107 16.649 231.33 16.75L233.27 17.55C234.11 17.9 235.14 18.34 236.27 18.9C237.4 19.46 238.79 20.05 240.27 20.81C241.75 21.57 243.27 22.36 244.98 23.32C246.69 24.28 248.41 25.32 250.26 26.41C253.92 28.7 257.85 31.36 261.8 34.41C265.75 37.46 269.31 40.58 272.45 43.54C273.99 45.05 275.45 46.47 276.78 47.87C278.11 49.27 279.32 50.57 280.4 51.79C281.48 53.01 282.4 54.15 283.25 55.14C284.1 56.13 284.78 57.01 285.32 57.74L286.59 59.41C286.74 59.6014 286.868 59.8094 286.97 60.03V60.03Z" fill="white"/>
<path d="M211.37 27.72C211.103 27.6693 210.842 27.5923 210.59 27.49L208.4 26.74C207.4 26.39 206.29 25.99 204.91 25.59C203.53 25.19 202 24.65 200.25 24.22L197.52 23.5C196.57 23.25 195.52 23.06 194.52 22.82C192.46 22.33 190.23 21.97 187.89 21.55C182.79 20.7622 177.648 20.278 172.49 20.1C167.33 19.9758 162.167 20.1662 157.03 20.67C154.67 20.95 152.41 21.18 150.33 21.55C149.33 21.73 148.27 21.86 147.33 22.06L144.56 22.62C142.79 22.95 141.22 23.38 139.83 23.72C138.44 24.06 137.25 24.37 136.28 24.66L134.05 25.29C133.791 25.3703 133.527 25.4337 133.26 25.48C133.502 25.3556 133.757 25.2583 134.02 25.19L136.22 24.47C137.22 24.15 138.36 23.78 139.75 23.47C141.14 23.16 142.75 22.65 144.48 22.3L147.25 21.7C148.25 21.5 149.25 21.35 150.25 21.17C152.34 20.77 154.6 20.52 156.97 20.23C167.296 19.1168 177.725 19.4162 187.97 21.12C190.32 21.55 192.56 21.93 194.63 22.44C195.63 22.69 196.63 22.89 197.63 23.15L200.36 23.91C202.11 24.36 203.65 24.91 205.01 25.35C206.37 25.79 207.54 26.21 208.48 26.59L210.64 27.44C210.89 27.5139 211.134 27.6075 211.37 27.72V27.72Z" fill="white"/>
</svg>
