<svg width="161" height="100" viewBox="0 0 161 100" fill="none" xmlns="http://www.w3.org/2000/svg">
<path d="M44.4 2.10003C42.6 2.60003 39.6 4.80003 37.7 6.90003C33.2 11.9 32.1 17.7 34.5 23.8C40.3 38.2 60 38 65.6 23.4C67.1 19.4 67.2 18.1 66.1 14.1C63.5 4.20003 54.4 -0.799967 44.4 2.10003ZM50.8 4.40003C51.9 2.70003 58.1 4.80003 58.7 7.10003C59 8.10003 59.8 9.00003 60.6 9.00003C62.6 9.00003 63.9 12.2 63.8 17.1C63.8 22.5 62.2 27 60.4 27C59.6 27 59 27.6 59 28.4C59 30.1 54.5 31.8 50 31.8C45.6 31.8 41 30.1 41 28.5C41 27.8 40.1 27 39.1 26.7C37.1 26.2 34.6 19.8 36.1 19.2C36.6 19 36.7 17.6 36.4 16.1C35.7 12.9 37.4 9.00003 39.4 9.00003C40.2 9.00003 41 8.10003 41.3 7.10003C41.9 4.80003 48.1 2.70003 49.3 4.40003C49.8 5.20003 50.2 5.20003 50.8 4.40003Z" fill="#1F75FF"/>
<path d="M44.4 8.1C41.4 9.6 39 14.2 39 18.5C39 24 44.2 29 50 29C55.8 29 61 24 61 18.5C61 9.7 52.4 4.3 44.4 8.1ZM56.1 11.9C58.1 13.9 59 15.8 59 18C59 22.3 54.3 27 50 27C45.7 27 41 22.3 41 18C41 15.8 41.9 13.9 43.9 11.9C47.9 8 52.1 8 56.1 11.9Z" fill="#1F75FF"/>
<path d="M47.7 12.5C46.3 14.4 46.2 15.4 47 17C47.6 18.1 48.7 19 49.5 19C50.3 19 51 19.7 51 20.5C51 22.5 50 22.4 48.5 20.3C47.8 19.3 47.1 19.1 46.7 19.7C46.3 20.3 46.9 21.9 48 23.1L50 25.5L52 23.1C54.4 20.3 54.2 18.9 51.2 17.5C50 17 49 16 49 15.3C49 13.7 50.2 13.6 51.8 15.2C53.8 17.2 54.3 15.2 52.3 12.6C50.1 9.5 49.9 9.5 47.7 12.5Z" fill="#1F75FF"/>
<path d="M27 39C25.6 40.1 23.5 41 22.4 41C19.4 41 18.2 42.8 18 47.5C17.7 54.1 17.7 54.3 20.7 53.6C24.5 52.6 25.1 54.6 22.9 60.2C19.6 68.7 21.3 78.4 27 83.5C30 86.2 32 90.3 32 93.8C32 97.8 34 99.2 39.2 98.8C42.7 98.6 43.7 98 44.8 95.7C46.5 92.2 51.3 91.9 53.1 95.2C54.7 98.3 55.9 99 60.1 99C64.3 99 65.5 97.9 66.4 93.1C66.8 90.9 68.8 87.7 71.9 84.5C79.1 76.9 80.5 70.3 77.2 60.7C74.9 54.2 75.2 52.9 79.1 53.7C82.3 54.3 82.3 54.2 82 47.5C81.8 42.8 80.6 41 77.5 41C76.3 41 74.1 40.1 72.7 39C69.5 36.4 68.3 36.5 66.9 39.2C66.3 40.5 65.6 41.6 65.5 41.8C65.4 41.9 63.8 41.2 61.9 40.3C57.2 37.8 42.8 37.8 38.1 40.3C36.2 41.2 34.6 41.9 34.5 41.8C34.4 41.6 33.7 40.5 33.1 39.2C31.7 36.5 30.3 36.4 27 39ZM60.6 42.1L66.3 44.3L67.9 42.1C69.5 40 69.6 40 72.3 45.5C73.8 48.6 74.7 51.7 74.3 52.3C73.9 53 73.7 56.5 73.9 60.2C74.3 70.1 70.2 76.9 61.8 80.5C56.4 82.7 42.7 82.5 37.5 80.1C29.6 76.6 25.3 68.7 26.3 59.6C26.6 56.7 26.4 53.7 25.9 52.7C25.2 51.5 25.7 49.6 27.5 46C29.9 41.2 32 39.5 32 42.4C32 44.4 34.5 45 36.6 43.6C42.5 39.6 52.2 39 60.6 42.1ZM24.8 46.2C21.8 51.7 20 52.2 20 47.6C20 44 20 44 26.8 42.1C27 42 26.1 43.9 24.8 46.2ZM79.7 44C79.9 44 80 45.6 80 47.6C80 52.2 78.3 51.7 75.2 46.2L72.9 42.1L76.2 43.1C78 43.6 79.6 44 79.7 44ZM76 74.4C75.3 76.6 72.7 80.5 69.9 83.5C66.6 87 64.8 89.9 64.2 92.6C63.5 96.1 63.1 96.5 60 96.8C57 97 56.2 96.6 54.8 94C53.2 91.2 52.6 90.9 48.8 91.2C45.3 91.4 44.3 92 43.2 94.2C40.9 99.1 34 97.5 34 92.2C34 89.2 32.5 86.4 28.4 81.8C25.2 78.2 22.9 72.5 23.1 68.5C23.1 67.1 23.6 67.5 24.7 70C26.6 74.6 31.5 79.7 36.5 82.3C42.3 85.4 57.7 85.3 63.6 82.3C68.6 79.6 73.4 74.3 75.2 69.4C76.3 66.1 76.5 65.9 76.8 68C77 69.3 76.7 72.2 76 74.4Z" fill="#1F75FF"/>
<path d="M33.6 53.8C32.3 56 34.2 58.1 37.4 57.8C39.9 57.6 40.6 57 40.8 55C41 52.7 40.9 52.6 39.7 54.2C37.9 56.4 36.4 56.5 35.2 54.4C34.6 53.4 34 53.1 33.6 53.8Z" fill="#1F75FF"/>
<path d="M59.2 55C59.4 57 60.1 57.6 62.6 57.8C64.8 58 65.9 57.6 66.4 56.5C67.3 54.1 65.9 52.3 64.8 54.4C63.6 56.5 62.1 56.4 60.3 54.2C59.1 52.6 59 52.7 59.2 55Z" fill="#1F75FF"/>
<path d="M43.5 62.6C37.9 65.5 37.5 68.9 42.4 71.9C46.8 74.6 53.2 74.6 57.6 71.9C61.3 69.6 61.9 67.1 59.3 64.5C55.7 60.8 48.6 59.9 43.5 62.6ZM57.1 65.6C58.1 66.5 59 67.6 59 67.9C59 69.3 53 72 50 72C47 72 41 69.3 41 67.9C41 67.1 44.1 64.4 46 63.7C48.6 62.6 55.1 63.7 57.1 65.6Z" fill="#1F75FF"/>
<path d="M46 67.5C46 68.3 46.5 69 47 69C47.6 69 48 68.3 48 67.5C48 66.7 47.6 66 47 66C46.5 66 46 66.7 46 67.5Z" fill="#1F75FF"/>
<path d="M52 67.5C52 68.3 52.5 69 53 69C53.6 69 54 68.3 54 67.5C54 66.7 53.6 66 53 66C52.5 66 52 66.7 52 67.5Z" fill="#1F75FF"/>
<path d="M106.207 87.4648C106.207 86.8633 105.992 86.3945 105.562 86.0586C105.141 85.7227 104.395 85.375 103.324 85.0156C102.254 84.6562 101.379 84.3086 100.699 83.9727C98.4883 82.8867 97.3828 81.3945 97.3828 79.4961C97.3828 78.5508 97.6562 77.7188 98.2031 77C98.7578 76.2734 99.5391 75.7109 100.547 75.3125C101.555 74.9062 102.688 74.7031 103.945 74.7031C105.172 74.7031 106.27 74.9219 107.238 75.3594C108.215 75.7969 108.973 76.4219 109.512 77.2344C110.051 78.0391 110.32 78.9609 110.32 80H106.219C106.219 79.3047 106.004 78.7656 105.574 78.3828C105.152 78 104.578 77.8086 103.852 77.8086C103.117 77.8086 102.535 77.9727 102.105 78.3008C101.684 78.6211 101.473 79.0312 101.473 79.5312C101.473 79.9688 101.707 80.3672 102.176 80.7266C102.645 81.0781 103.469 81.4453 104.648 81.8281C105.828 82.2031 106.797 82.6094 107.555 83.0469C109.398 84.1094 110.32 85.5742 110.32 87.4414C110.32 88.9336 109.758 90.1055 108.633 90.957C107.508 91.8086 105.965 92.2344 104.004 92.2344C102.621 92.2344 101.367 91.9883 100.242 91.4961C99.125 90.9961 98.2812 90.3164 97.7109 89.457C97.1484 88.5898 96.8672 87.5938 96.8672 86.4688H100.992C100.992 87.3828 101.227 88.0586 101.695 88.4961C102.172 88.9258 102.941 89.1406 104.004 89.1406C104.684 89.1406 105.219 88.9961 105.609 88.707C106.008 88.4102 106.207 87.9961 106.207 87.4648ZM122.121 88.8125H116.484L115.5 92H111.105L117.363 74.9375H121.23L127.535 92H123.117L122.121 88.8125ZM117.469 85.6367H121.137L119.297 79.7188L117.469 85.6367ZM134.496 87.3594L137.895 74.9375H142.488L136.746 92H132.246L126.551 74.9375H131.109L134.496 87.3594ZM154.324 84.7695H147.855V88.8359H155.496V92H143.742V74.9375H155.52V78.1133H147.855V81.7109H154.324V84.7695Z" fill="#1F75FF"/>
<path d="M101.438 52.8359H108.598V56H97.3242V38.9375H101.438V52.8359ZM124.031 47.8203C124.031 49.4844 123.723 50.957 123.105 52.2383C122.488 53.5195 121.609 54.5078 120.469 55.2031C119.336 55.8906 118.043 56.2344 116.59 56.2344C115.137 56.2344 113.848 55.9023 112.723 55.2383C111.598 54.5664 110.719 53.6094 110.086 52.3672C109.461 51.125 109.133 49.6992 109.102 48.0898V47.1289C109.102 45.457 109.406 43.9844 110.016 42.7109C110.633 41.4297 111.512 40.4414 112.652 39.7461C113.801 39.0508 115.105 38.7031 116.566 38.7031C118.012 38.7031 119.301 39.0469 120.434 39.7344C121.566 40.4219 122.445 41.4023 123.07 42.6758C123.703 43.9414 124.023 45.3945 124.031 47.0352V47.8203ZM119.848 47.1055C119.848 45.4102 119.562 44.125 118.992 43.25C118.43 42.3672 117.621 41.9258 116.566 41.9258C114.504 41.9258 113.414 43.4727 113.297 46.5664L113.285 47.8203C113.285 49.4922 113.562 50.7773 114.117 51.6758C114.672 52.5742 115.496 53.0234 116.59 53.0234C117.629 53.0234 118.43 52.582 118.992 51.6992C119.555 50.8164 119.84 49.5469 119.848 47.8906V47.1055ZM139.957 50.2227C139.902 51.4102 139.582 52.4609 138.996 53.375C138.41 54.2812 137.586 54.9844 136.523 55.4844C135.469 55.9844 134.262 56.2344 132.902 56.2344C130.66 56.2344 128.895 55.5039 127.605 54.043C126.316 52.582 125.672 50.5195 125.672 47.8555V47.0117C125.672 45.3398 125.961 43.8789 126.539 42.6289C127.125 41.3711 127.965 40.4023 129.059 39.7227C130.152 39.0352 131.418 38.6914 132.855 38.6914C134.926 38.6914 136.59 39.2383 137.848 40.332C139.105 41.418 139.82 42.918 139.992 44.832H135.891C135.859 43.793 135.598 43.0469 135.105 42.5938C134.613 42.1406 133.863 41.9141 132.855 41.9141C131.832 41.9141 131.082 42.2969 130.605 43.0625C130.129 43.8281 129.879 45.0508 129.855 46.7305V47.9375C129.855 49.7578 130.082 51.0586 130.535 51.8398C130.996 52.6211 131.785 53.0117 132.902 53.0117C133.848 53.0117 134.57 52.7891 135.07 52.3438C135.57 51.8984 135.836 51.1914 135.867 50.2227H139.957ZM147.703 49.6484L146.016 51.5V56H141.902V38.9375H146.016V46.4609L147.445 44.293L151.125 38.9375H156.211L150.445 46.4844L156.211 56H151.336L147.703 49.6484Z" fill="#1F75FF"/>
</svg>
