<svg width="338" height="358" viewBox="0 0 338 358" fill="none" xmlns="http://www.w3.org/2000/svg">
<path d="M61.07 297.67L88.07 357.28H101.1L102.96 352.73L105.28 357.28H113.83L112.83 322.49L112.41 301.93L61.07 297.67Z" fill="#1F75FF"/>
<path opacity="0.3" d="M61.07 297.67L88.07 357.28H101.1L102.96 352.73L105.28 357.28H113.83L112.83 322.49L112.41 301.93L61.07 297.67Z" fill="black"/>
<path d="M179.22 304.06L205.55 357.28H218.58L220.45 353.12L222.76 357.28H231.31L230.32 325.43L229.89 306.61L179.22 304.06Z" fill="#1F75FF"/>
<path opacity="0.3" d="M179.22 304.06L205.55 357.28H218.58L220.45 353.12L222.76 357.28H231.31L230.32 325.43L229.89 306.61L179.22 304.06Z" fill="black"/>
<path d="M328.97 147.21L329.22 147.29L329.92 147.6C330.799 148.037 331.619 148.585 332.36 149.23C333.74 150.418 334.87 151.869 335.683 153.499C336.497 155.128 336.979 156.903 337.1 158.72C337.255 161.255 336.616 163.776 335.27 165.93C333.735 168.412 331.462 170.353 328.77 171.48C327.297 172.136 325.702 172.474 324.09 172.474C322.477 172.474 320.883 172.136 319.41 171.48C317.827 170.736 316.584 169.422 315.93 167.8C315.572 166.97 315.428 166.064 315.512 165.164C315.596 164.264 315.905 163.399 316.41 162.65C316.949 161.93 317.639 161.338 318.433 160.915C319.226 160.491 320.102 160.247 321 160.2C322.743 160.132 324.451 160.696 325.81 161.79C327.07 162.807 328.075 164.104 328.745 165.578C329.415 167.052 329.732 168.662 329.67 170.28C329.58 173.205 328.525 176.017 326.67 178.28C325.845 179.305 324.863 180.193 323.76 180.91C322.73 181.54 321.625 182.037 320.47 182.39C318.473 182.965 316.38 183.122 314.32 182.85C312.772 182.655 311.261 182.241 309.83 181.62C308.93 181.226 308.069 180.747 307.26 180.19L306.65 179.73C306.52 179.63 306.45 179.57 306.46 179.56C307.547 180.294 308.702 180.92 309.91 181.43C311.329 182.015 312.824 182.396 314.35 182.56C316.365 182.794 318.406 182.617 320.35 182.04C321.468 181.687 322.537 181.193 323.53 180.57C324.592 179.872 325.534 179.008 326.32 178.01C328.101 175.812 329.106 173.088 329.18 170.26C329.237 168.72 328.934 167.188 328.293 165.787C327.652 164.386 326.692 163.154 325.49 162.19C324.229 161.17 322.64 160.643 321.02 160.71C320.2 160.755 319.4 160.977 318.674 161.362C317.949 161.748 317.316 162.286 316.82 162.94C316.369 163.621 316.094 164.403 316.021 165.217C315.947 166.03 316.078 166.849 316.4 167.6C317.006 169.102 318.156 170.319 319.62 171.01C321.037 171.639 322.57 171.964 324.12 171.964C325.67 171.964 327.203 171.639 328.62 171.01C331.228 169.93 333.434 168.063 334.93 165.67C336.26 163.587 336.901 161.138 336.76 158.67C336.653 156.645 336.086 154.672 335.1 152.9C334.361 151.553 333.401 150.34 332.26 149.31C331.26 148.469 330.154 147.763 328.97 147.21Z" fill="#1F75FF"/>
<path d="M316.08 201.14C320 289.59 245.85 333.72 161.91 333.72C77.97 333.72 9.91003 276.25 9.91003 205.36C9.91003 134.47 77.96 77 161.91 77C245.86 77 312.94 130.32 316.08 201.14Z" fill="#1F75FF"/>
<path opacity="0.3" d="M151.32 108.66C151.32 108.66 161.4 105.46 170.83 116.12C180.26 126.78 193.38 144.94 193.38 144.94C192.2 150.85 188.75 155.46 182.06 158.2L151.32 108.66Z" fill="black"/>
<path d="M61.98 297.32C90.7209 297.32 114.02 279.465 114.02 257.44C114.02 235.415 90.7209 217.56 61.98 217.56C33.2391 217.56 9.94 235.415 9.94 257.44C9.94 279.465 33.2391 297.32 61.98 297.32Z" fill="#1F75FF"/>
<path d="M110.51 150.83C110.51 150.83 141.01 103.51 154.98 108.64C168.95 113.77 182.06 158.24 182.06 158.24" fill="#1F75FF"/>
<path d="M76.02 139.98L74.6 127.17C74.6 127.17 55.5 119.17 38.4 115.28C21.3 111.39 17.93 115.28 17.93 115.28L44.98 153.19L76.02 139.98Z" fill="#1F75FF"/>
<path opacity="0.3" d="M116.73 94.6L126.85 100.6C126.85 100.6 175.85 87.6 213.51 100.6L199.7 88.84C199.7 88.84 154.05 79.04 116.73 94.6Z" fill="black"/>
<path opacity="0.3" d="M61.98 297.32C90.7209 297.32 114.02 279.465 114.02 257.44C114.02 235.415 90.7209 217.56 61.98 217.56C33.2391 217.56 9.94 235.415 9.94 257.44C9.94 279.465 33.2391 297.32 61.98 297.32Z" fill="black"/>
<path d="M48.75 297.32C75.6739 297.32 97.5 279.465 97.5 257.44C97.5 235.415 75.6739 217.56 48.75 217.56C21.8261 217.56 0 235.415 0 257.44C0 279.465 21.8261 297.32 48.75 297.32Z" fill="#1F75FF"/>
<path opacity="0.3" d="M31.9 238.74H28.15C26.3054 238.74 24.81 240.235 24.81 242.08V272.82C24.81 274.665 26.3054 276.16 28.15 276.16H31.9C33.7446 276.16 35.24 274.665 35.24 272.82V242.08C35.24 240.235 33.7446 238.74 31.9 238.74Z" fill="black"/>
<path opacity="0.3" d="M59.91 238.74H56.16C54.3154 238.74 52.82 240.235 52.82 242.08V272.82C52.82 274.665 54.3154 276.16 56.16 276.16H59.91C61.7546 276.16 63.25 274.665 63.25 272.82V242.08C63.25 240.235 61.7546 238.74 59.91 238.74Z" fill="black"/>
<path opacity="0.3" d="M73.06 141.24C77.45 138.76 79.81 135.06 78.15 128.96C78.15 128.96 55.5 119.19 38.4 115.28C21.3 111.37 17.93 115.28 17.93 115.28L44.98 153.19L73.06 141.24Z" fill="black"/>
<path d="M74.6 142.28C74.6 142.28 73.33 141.41 71.19 139.98C61.09 133.25 31.61 113.98 24.19 113.77C13.93 113.48 13.92 122.32 13.93 129.17C13.93 134.02 17.93 176.17 17.93 176.17" fill="#1F75FF"/>
<path d="M182.06 158.24C182.011 158.148 181.974 158.051 181.95 157.95C181.87 157.73 181.77 157.44 181.65 157.08L180.53 153.73C179.53 150.83 178.08 146.64 176.07 141.54C173.765 135.555 171.093 129.717 168.07 124.06C166.306 120.717 164.234 117.547 161.88 114.59C160.657 113.025 159.235 111.627 157.65 110.43C156.1 109.123 154.115 108.448 152.09 108.54C150.07 108.794 148.126 109.476 146.39 110.54C144.661 111.532 143.016 112.662 141.47 113.92C138.552 116.326 135.799 118.925 133.23 121.7C128.871 126.405 124.752 131.328 120.89 136.45C117.56 140.81 115 144.45 113.24 146.94L111.24 149.84L110.72 150.59C110.664 150.681 110.597 150.765 110.52 150.84L110.67 150.56L111.16 149.78C111.59 149.1 112.24 148.1 113.09 146.83C114.8 144.28 117.32 140.62 120.61 136.23C124.444 131.065 128.546 126.105 132.9 121.37C135.471 118.568 138.235 115.948 141.17 113.53C142.741 112.247 144.413 111.093 146.17 110.08C147.98 109.003 149.998 108.321 152.09 108.08C153.167 107.977 154.254 108.131 155.26 108.53C156.231 108.927 157.148 109.445 157.99 110.07C159.608 111.297 161.063 112.725 162.32 114.32C164.682 117.311 166.761 120.515 168.53 123.89C171.54 129.576 174.186 135.448 176.45 141.47C178.45 146.59 179.82 150.8 180.75 153.73C181.22 155.19 181.56 156.33 181.75 157.11C181.85 157.47 181.93 157.77 182 157.99C182.029 158.071 182.049 158.155 182.06 158.24Z" fill="#263238"/>
<path d="M199.7 88.85L199.95 89.03L200.65 89.6L203.31 91.82L213.03 100.07L213.68 100.62L212.86 100.39C199.787 96.7041 186.282 94.7771 172.7 94.66C157.338 94.5027 142.034 96.5606 127.26 100.77H127.2H127.14L119.44 96.26L117.44 95.04L116.93 94.72C116.869 94.6866 116.812 94.6464 116.76 94.6L116.95 94.68L117.49 94.97L119.56 96.11L127.33 100.5H127.2C133.568 98.6154 140.052 97.1457 146.61 96.1C150.49 95.46 154.61 94.99 159.04 94.61C163.47 94.23 168.04 94.08 172.73 94.17C180.216 94.243 187.686 94.868 195.08 96.04C201.127 97.0034 207.108 98.3393 212.99 100.04L212.82 100.36L203.18 91.98L200.58 89.68L199.92 89.07C199.837 89.0065 199.763 88.9326 199.7 88.85Z" fill="#263238"/>
<g opacity="0.2">
<path opacity="0.2" d="M143.33 220.27C143.1 221.7 141.63 222.77 139.54 223.49C137.019 224.275 134.391 224.663 131.75 224.64C129.107 224.709 126.47 224.372 123.93 223.64C121.83 222.97 120.34 221.93 120.08 220.51C119.82 219.09 120.89 217.57 122.98 216.34C125.659 214.965 128.621 214.233 131.633 214.2C134.644 214.167 137.621 214.834 140.33 216.15C142.45 217.35 143.56 218.86 143.33 220.27Z" fill="white"/>
</g>
<path d="M77.83 225.43C77.7267 225.386 77.6293 225.328 77.54 225.26L76.74 224.72L75.43 223.84C74.9 223.52 74.27 223.19 73.56 222.79C69.5248 220.67 65.1821 219.195 60.69 218.42C57.5896 217.893 54.4542 217.599 51.31 217.54C47.6981 217.518 44.0902 217.782 40.52 218.33C32.3164 219.539 24.4917 222.584 17.63 227.24C15.8692 228.488 14.1984 229.858 12.63 231.34C11.0997 232.786 9.68222 234.348 8.39 236.01C5.94622 239.155 3.97848 242.642 2.55 246.36C0.267414 252.739 -0.176128 259.631 1.27 266.25C1.86511 268.773 2.74754 271.219 3.9 273.54C4.8088 275.275 5.87672 276.922 7.09 278.46L8.48 280.1L9.6 281.2L10.28 281.88C10.43 282.04 10.51 282.12 10.5 282.13C10.4084 282.071 10.3244 282 10.25 281.92L9.52 281.27L8.36 280.2L6.94 278.59C5.68721 277.061 4.58226 275.417 3.64 273.68C2.45179 271.347 1.53899 268.884 0.919998 266.34C-0.60394 259.647 -0.194714 252.659 2.1 246.19C2.79724 244.346 3.63296 242.558 4.6 240.84C5.59499 239.041 6.72841 237.323 7.99 235.7C9.29779 234.017 10.7284 232.432 12.27 230.96C13.8712 229.459 15.5753 228.073 17.37 226.81C24.2951 222.106 32.2026 219.045 40.49 217.86C44.0836 217.315 47.7156 217.064 51.35 217.11C54.5157 217.187 57.6712 217.501 60.79 218.05C65.2993 218.887 69.6448 220.444 73.66 222.66C74.36 223.08 74.99 223.43 75.52 223.76L76.8 224.69L77.58 225.27C77.75 225.35 77.84 225.42 77.83 225.43Z" fill="#263238"/>
<path d="M34.94 242.24C35.0295 242.765 35.0697 243.297 35.06 243.83C35.06 244.95 35.17 246.41 35.24 248.18C35.4 251.84 35.7 256.91 35.83 262.51C35.83 263.92 35.83 265.29 35.83 266.61C35.8549 267.896 35.7611 269.181 35.55 270.45C35.4077 271.552 35.0146 272.606 34.4009 273.532C33.7872 274.457 32.9692 275.23 32.01 275.79C31.3363 276.132 30.585 276.291 29.8307 276.252C29.0764 276.214 28.3453 275.979 27.71 275.57C27.3722 275.347 27.0831 275.058 26.86 274.72C26.775 274.609 26.7107 274.484 26.67 274.35C26.9961 274.758 27.3842 275.112 27.82 275.4C28.428 275.744 29.1125 275.931 29.8111 275.943C30.5097 275.955 31.2003 275.793 31.82 275.47C32.7079 274.915 33.4599 274.168 34.0206 273.283C34.5814 272.399 34.9365 271.4 35.06 270.36C35.2489 269.119 35.3292 267.865 35.3 266.61C35.3 265.29 35.3 263.92 35.25 262.53C35.12 256.93 34.87 251.86 34.81 248.19C34.81 246.35 34.81 244.86 34.81 243.83C34.8158 243.298 34.8593 242.766 34.94 242.24Z" fill="#263238"/>
<path d="M62.59 242.24C62.6657 242.767 62.7025 243.298 62.7 243.83C62.7 244.95 62.81 246.41 62.88 248.18C63.04 251.84 63.34 256.91 63.48 262.51C63.48 263.92 63.48 265.29 63.48 266.61C63.4967 267.896 63.3996 269.181 63.19 270.45C63.0492 271.552 62.6567 272.607 62.0428 273.533C61.429 274.459 60.6102 275.231 59.65 275.79C58.9761 276.131 58.2249 276.289 57.4708 276.251C56.7167 276.212 55.9857 275.978 55.35 275.57C55.0155 275.343 54.7271 275.054 54.5 274.72C54.35 274.49 54.3 274.35 54.32 274.35C54.641 274.759 55.026 275.114 55.46 275.4C56.068 275.744 56.7525 275.931 57.4511 275.943C58.1497 275.955 58.8403 275.793 59.46 275.47C60.3479 274.915 61.0999 274.168 61.6606 273.283C62.2214 272.399 62.5766 271.4 62.7 270.36C62.8924 269.12 62.9761 267.865 62.95 266.61C62.95 265.29 62.95 263.92 62.9 262.53C62.76 256.93 62.52 251.86 62.46 248.19C62.46 246.35 62.46 244.86 62.46 243.83C62.4529 243.297 62.4964 242.765 62.59 242.24Z" fill="#263238"/>
<path d="M96.92 266.13C96.8644 266.365 96.7909 266.596 96.7 266.82C96.53 267.26 96.34 267.93 95.96 268.74C94.9707 271.077 93.7478 273.309 92.31 275.4C90.1804 278.507 87.6934 281.353 84.9 283.88C83.246 285.368 81.5028 286.754 79.68 288.03C77.711 289.378 75.653 290.591 73.52 291.66C69.4023 293.769 65.0342 295.348 60.52 296.36C56.8352 297.141 53.0765 297.52 49.31 297.49C46.11 297.49 43.52 297.29 41.74 297.17L39.68 297C39.4408 296.996 39.2027 296.966 38.97 296.91C39.2094 296.886 39.4506 296.886 39.69 296.91L41.75 296.97C43.53 297.04 46.12 297.16 49.31 297.13C53.0463 297.112 56.7703 296.7 60.42 295.9C64.8729 294.869 69.182 293.294 73.25 291.21C75.3652 290.152 77.4065 288.953 79.36 287.62C81.1654 286.359 82.8981 284.997 84.55 283.54C87.3332 281.049 89.8258 278.251 91.98 275.2C93.4394 273.138 94.7112 270.949 95.78 268.66C96.18 267.87 96.4 267.21 96.61 266.78C96.6868 266.552 96.7909 266.333 96.92 266.13Z" fill="#263238"/>
<path d="M34.34 241.13C34.1361 240.779 33.9054 240.445 33.65 240.13C33.2857 239.732 32.8445 239.411 32.353 239.187C31.8614 238.964 31.3298 238.842 30.79 238.83C29.9936 238.824 29.2054 238.99 28.4788 239.316C27.7523 239.642 27.1046 240.121 26.58 240.72C25.9495 241.417 25.5087 242.264 25.3 243.18C25.0761 244.181 24.9753 245.205 25 246.23C25 250.53 25.05 254.44 25 257.23C25 258.55 25 259.67 25 260.57C25.0135 260.978 24.9867 261.387 24.92 261.79C24.8301 261.39 24.7898 260.98 24.8 260.57C24.8 259.67 24.73 258.57 24.68 257.23C24.61 254.41 24.53 250.51 24.5 246.23C24.4745 245.161 24.582 244.093 24.82 243.05C25.066 242.06 25.5539 241.146 26.24 240.39C26.818 239.751 27.5301 239.247 28.3253 238.916C29.1205 238.584 29.9792 238.432 30.84 238.47C31.4196 238.499 31.9865 238.651 32.5034 238.915C33.0204 239.178 33.4759 239.548 33.84 240C34.0293 240.244 34.1841 240.514 34.3 240.8C34.33 241.01 34.36 241.12 34.34 241.13Z" fill="white"/>
<path d="M52.66 243.43C52.8 243.43 52.92 248.7 52.92 255.2C52.92 261.7 52.8 266.98 52.66 266.98C52.52 266.98 52.4 261.71 52.4 255.2C52.4 248.69 52.52 243.43 52.66 243.43Z" fill="white"/>
<path d="M44.27 220.73C44.0699 220.774 43.8647 220.791 43.66 220.78C43.25 220.78 42.66 220.78 41.9 220.78C39.7461 220.86 37.6006 221.094 35.48 221.48C27.4096 222.983 19.9468 226.79 13.9932 232.442C8.03965 238.094 3.84987 245.349 1.93001 253.33C1.73001 254.06 1.64001 254.65 1.54001 255.04C1.50506 255.242 1.44806 255.44 1.37001 255.63C1.36318 255.425 1.38335 255.22 1.43001 255.02C1.50001 254.62 1.56001 254.02 1.73001 253.28C2.16679 251.155 2.78231 249.071 3.57001 247.05C6.14031 240.315 10.4358 234.375 16.0259 229.824C21.6159 225.273 28.3042 222.271 35.42 221.12C37.5575 220.757 39.722 220.577 41.89 220.58C42.66 220.58 43.26 220.63 43.66 220.64C43.8657 220.651 44.07 220.681 44.27 220.73Z" fill="white"/>
<path d="M18.12 169.79C18.088 169.988 18.0274 170.18 17.94 170.36L17.32 171.94C17.04 172.62 16.71 173.46 16.32 174.45C15.93 175.44 15.53 176.55 15.15 177.81C14.77 179.07 14.29 180.43 13.89 181.93C13.49 183.43 13.08 185.03 12.67 186.72C10.999 194.09 10.2135 201.634 10.33 209.19C10.39 210.93 10.41 212.59 10.54 214.13C10.67 215.67 10.77 217.13 10.92 218.42C11.07 219.71 11.23 220.91 11.37 221.95C11.51 222.99 11.66 223.88 11.79 224.6C11.92 225.32 12 225.84 12.07 226.28C12.1168 226.473 12.137 226.672 12.13 226.87C12.0545 226.687 12.0008 226.496 11.97 226.3L11.59 224.64C11.43 223.92 11.24 223.03 11.08 222C10.92 220.97 10.69 219.78 10.55 218.47C10.41 217.16 10.21 215.72 10.11 214.16C10.01 212.6 9.92 210.95 9.85 209.16C9.70024 201.589 10.5066 194.029 12.25 186.66C12.68 184.96 13.06 183.35 13.53 181.86C14 180.37 14.41 178.99 14.85 177.74C15.29 176.49 15.72 175.38 16.09 174.4C16.46 173.42 16.83 172.58 17.09 171.91C17.35 171.24 17.61 170.77 17.8 170.37C17.8813 170.164 17.9889 169.969 18.12 169.79Z" fill="white"/>
<path d="M19.62 117.79C19.62 117.79 19.21 118.33 18.62 119.38C17.7991 120.875 17.2346 122.498 16.95 124.18C16.5383 126.682 16.331 129.214 16.33 131.75C16.25 134.62 16.24 137.75 16.33 141.09C16.49 147.72 17.02 153.71 17.52 158.02C17.79 160.12 18 161.84 18.16 163.13L18.34 164.52C18.3534 164.683 18.3534 164.847 18.34 165.01C18.2695 164.862 18.2255 164.703 18.21 164.54C18.13 164.16 18.04 163.71 17.93 163.16C17.71 161.97 17.43 160.23 17.13 158.07C16.3645 152.433 15.9138 146.757 15.78 141.07C15.7 137.75 15.78 134.58 15.78 131.7C15.7974 129.14 16.0451 126.586 16.52 124.07C16.8431 122.362 17.4696 120.727 18.37 119.24C18.6197 118.842 18.9006 118.464 19.21 118.11C19.48 117.9 19.6 117.78 19.62 117.79Z" fill="white"/>
<path d="M116.96 86.46C116.752 86.5582 116.538 86.645 116.32 86.72L114.46 87.38L107.61 89.73C100.055 92.2521 92.6385 95.1695 85.39 98.47C78.1477 101.786 71.3124 105.926 65.02 110.81C62.63 112.71 60.79 114.36 59.55 115.54C58.92 116.11 58.46 116.59 58.13 116.9C57.9745 117.069 57.8 117.22 57.61 117.35C57.7414 117.164 57.8886 116.99 58.05 116.83C58.36 116.5 58.8 115.99 59.41 115.39C61.1186 113.676 62.9143 112.05 64.79 110.52C71.048 105.527 77.896 101.322 85.18 98C92.4421 94.6858 99.8953 91.8073 107.5 89.38C110.41 88.43 112.77 87.68 114.41 87.18L116.3 86.62C116.514 86.5431 116.735 86.4895 116.96 86.46Z" fill="white"/>
<path d="M151.76 111.25C151.76 111.25 151.62 111.39 151.31 111.61L149.98 112.55C148.82 113.35 147.16 114.55 145.14 116.07C143.12 117.59 140.78 119.48 138.26 121.66C135.74 123.84 133.07 126.38 130.39 129.14C127.71 131.9 125.31 134.7 123.2 137.29C121.09 139.88 119.31 142.29 117.87 144.38C116.43 146.47 115.29 148.15 114.54 149.38L113.65 150.74C113.553 150.904 113.439 151.059 113.31 151.2C113.368 151.019 113.452 150.847 113.56 150.69C113.77 150.31 114.04 149.84 114.37 149.27C115.07 148.04 116.16 146.27 117.57 144.2C118.98 142.13 120.75 139.65 122.83 137.02C124.91 134.39 127.34 131.61 130.01 128.81C132.68 126.01 135.41 123.52 137.94 121.33C140.47 119.14 142.87 117.33 144.94 115.8C147.01 114.27 148.69 113.16 149.89 112.41L151.28 111.55C151.43 111.434 151.591 111.334 151.76 111.25Z" fill="white"/>
<path d="M305.88 180.82C306.37 181.616 306.769 182.465 307.07 183.35C308.712 187.527 309.821 191.895 310.37 196.35C310.526 197.268 310.579 198.2 310.53 199.13C310.28 198.236 310.103 197.323 310 196.4C309.71 194.72 309.27 192.4 308.63 189.87C307.99 187.34 307.27 185.08 306.72 183.46C306.374 182.602 306.093 181.72 305.88 180.82Z" fill="white"/>
<path d="M281.96 295.45C281.96 295.45 281.79 295.59 281.46 295.83L279.99 296.83L277.59 298.52L276.06 299.66L274.27 300.82C267.158 305.509 259.753 309.738 252.1 313.48C249.68 314.66 247.1 315.84 244.43 317.06L240.28 318.82L238.18 319.66L235.98 320.5L231.46 322.23L226.74 323.86C225.15 324.44 223.51 324.93 221.84 325.44C220.17 325.95 218.51 326.51 216.78 326.95C209.601 328.98 202.317 330.619 194.96 331.86C187.065 333.236 179.088 334.095 171.08 334.43C163.072 334.777 155.05 334.527 147.08 333.68L144.19 333.4C143.24 333.3 142.29 333.14 141.35 333.01L135.74 332.22L130.29 331.22L127.62 330.71L124.99 330.11C112.635 327.403 100.576 323.484 88.99 318.41C81.173 315.042 73.6502 311.028 66.5 306.41C63.92 304.83 62.09 303.41 60.78 302.47L59.33 301.4C59 301.16 58.84 301.02 58.84 301.02L59.36 301.36L60.85 302.36C62.17 303.24 64.02 304.67 66.61 306.22C73.7887 310.779 81.3231 314.752 89.14 318.1C100.709 323.104 112.735 326.975 125.05 329.66L127.67 330.25L130.34 330.75L135.78 331.75L141.37 332.53C142.31 332.66 143.26 332.82 144.21 332.91L147.09 333.19C155.04 334.034 163.043 334.281 171.03 333.93C179.014 333.601 186.968 332.749 194.84 331.38C202.181 330.142 209.451 328.516 216.62 326.51C218.35 326.07 220.01 325.51 221.68 325.01C223.35 324.51 224.97 324.01 226.56 323.45L231.28 321.83L235.79 320.12L237.99 319.28L240.12 318.39L244.27 316.65C246.94 315.44 249.52 314.28 251.94 313.11C259.599 309.415 267.026 305.258 274.18 300.66C274.807 300.247 275.407 299.867 275.98 299.52L277.53 298.46L279.95 296.82L281.45 295.82L281.96 295.45Z" fill="#263238"/>
<path d="M238.88 306.16L258.98 357.55H272.72L275.71 353.08L279.24 357.55H284.09L285.9 276.1L238.88 306.16Z" fill="#1F75FF"/>
<path d="M112.63 313.39L129.63 357.55H145.25L148.44 352.44L151.52 357.55H155.39C155.39 357.55 157.09 307.73 155.39 306.32C153.69 304.91 112.63 313.39 112.63 313.39Z" fill="#1F75FF"/>
<path d="M311.07 214.66C311.083 214.76 311.083 214.86 311.07 214.96C311.07 215.18 311.07 215.46 311 215.82C310.92 216.61 310.82 217.71 310.69 219.11C310.62 219.83 310.54 220.63 310.45 221.49C310.36 222.35 310.16 223.3 310 224.31C309.64 226.31 309.35 228.63 308.7 231.12C308.41 232.38 308.1 233.69 307.78 235.06C307.46 236.43 306.98 237.81 306.56 239.26C305.76 242.18 304.56 245.2 303.4 248.39C297.968 262.165 290.012 274.805 279.94 285.66C277.56 288.1 275.36 290.47 273.06 292.45C271.94 293.45 270.89 294.45 269.8 295.37L266.66 297.91C264.66 299.57 262.73 300.83 261.07 302.02C260.23 302.61 259.46 303.17 258.73 303.65L256.68 304.89L253.85 306.59L253.1 307.02L252.84 307.16C252.84 307.16 252.91 307.09 253.07 306.98L253.79 306.5L256.58 304.72L258.58 303.44C259.31 302.95 260.06 302.38 260.89 301.79C262.53 300.57 264.47 299.29 266.42 297.62L269.53 295.07C270.61 294.18 271.64 293.15 272.76 292.14C275.03 290.14 277.22 287.78 279.57 285.34C289.561 274.492 297.485 261.908 302.95 248.21C304.13 245.04 305.32 242.04 306.13 239.13C306.56 237.69 307.04 236.31 307.38 234.95C307.72 233.59 308.03 232.29 308.38 231.04C309.06 228.56 309.38 226.26 309.75 224.26C309.93 223.26 310.12 222.32 310.25 221.46C310.38 220.6 310.44 219.81 310.53 219.09C310.7 217.69 310.84 216.59 310.93 215.81C310.98 215.46 311.02 215.18 311.05 214.95C311.045 214.853 311.051 214.756 311.07 214.66Z" fill="white"/>
<g opacity="0.2">
<path opacity="0.2" d="M289.33 171.34C284.77 160.03 274.82 149.34 263.33 144.69C261.14 143.823 258.776 143.488 256.432 143.714C254.087 143.94 251.83 144.72 249.847 145.99C247.863 147.26 246.209 148.983 245.023 151.017C243.836 153.051 243.149 155.338 243.02 157.69C243.025 157.763 243.025 157.837 243.02 157.91C242.66 165.15 245.51 172.17 249.02 178.53C252.53 184.89 256.68 190.91 259.39 197.63C263.856 208.844 263.999 221.317 259.79 232.63C257.11 239.75 252.67 247.34 256.69 254.43C259.33 259.09 264.64 261.38 269.97 260.9C280.18 259.97 285.48 250.75 290.32 242.37C294.21 235.63 297.42 225.15 297.6 217.24C298.139 201.526 295.32 185.878 289.33 171.34Z" fill="white"/>
</g>
<path d="M134.56 203.28C134.19 203.38 133.56 201.89 132.62 199.73C132.08 198.529 131.347 197.424 130.45 196.46C129.489 195.38 128.142 194.719 126.7 194.62C125.229 194.638 123.812 195.177 122.7 196.14C121.727 196.978 120.925 197.997 120.34 199.14C119.34 201.21 118.89 202.74 118.5 202.67C118.11 202.6 117.9 201.03 118.63 198.45C119.088 196.893 119.931 195.476 121.08 194.33C121.824 193.584 122.708 192.993 123.681 192.59C124.654 192.186 125.697 191.979 126.75 191.98C127.883 192.013 128.99 192.329 129.97 192.9C130.831 193.401 131.596 194.051 132.23 194.82C133.234 196.066 133.954 197.517 134.34 199.07C134.96 201.66 134.88 203.19 134.56 203.28Z" fill="#263238"/>
<path d="M58.61 197.17C58.61 198.592 58.1883 199.982 57.3982 201.165C56.6082 202.347 55.4853 203.268 54.1715 203.813C52.8577 204.357 51.412 204.499 50.0173 204.222C48.6226 203.944 47.3414 203.26 46.3359 202.254C45.3303 201.249 44.6456 199.967 44.3681 198.573C44.0907 197.178 44.2331 195.732 44.7773 194.418C45.3215 193.105 46.243 191.982 47.4254 191.192C48.6078 190.402 49.9979 189.98 51.42 189.98C53.3269 189.98 55.1557 190.737 56.5041 192.086C57.8525 193.434 58.61 195.263 58.61 197.17Z" fill="#263238"/>
<path d="M286.97 137.03C286.787 136.869 286.623 136.687 286.48 136.49L285.18 134.88C284.6 134.17 283.9 133.31 283.04 132.35C282.18 131.39 281.25 130.24 280.13 129.06C279.01 127.88 277.83 126.54 276.48 125.19C275.13 123.84 273.67 122.4 272.13 120.91C268.98 117.98 265.41 114.91 261.49 111.84C257.57 108.77 253.65 106.15 250.02 103.84C248.18 102.72 246.45 101.63 244.78 100.71C243.11 99.79 241.55 98.91 240.11 98.16C238.67 97.41 237.35 96.76 236.19 96.16C235.03 95.56 234.03 95.11 233.19 94.74L231.29 93.85C231.061 93.7575 230.843 93.6401 230.64 93.5C230.876 93.5655 231.107 93.649 231.33 93.75L233.27 94.55C234.11 94.9 235.14 95.34 236.27 95.9C237.4 96.46 238.79 97.05 240.27 97.81C241.75 98.57 243.27 99.36 244.98 100.32C246.69 101.28 248.41 102.32 250.26 103.41C253.92 105.7 257.85 108.36 261.8 111.41C265.75 114.46 269.31 117.58 272.45 120.54C273.99 122.05 275.45 123.47 276.78 124.87C278.11 126.27 279.32 127.57 280.4 128.79C281.48 130.01 282.4 131.15 283.25 132.14C284.1 133.13 284.78 134.01 285.32 134.74L286.59 136.41C286.74 136.601 286.868 136.809 286.97 137.03Z" fill="white"/>
<path d="M211.37 104.72C211.103 104.669 210.842 104.592 210.59 104.49L208.4 103.74C207.4 103.39 206.29 102.99 204.91 102.59C203.53 102.19 202 101.65 200.25 101.22L197.52 100.5C196.57 100.25 195.52 100.06 194.52 99.82C192.46 99.33 190.23 98.97 187.89 98.55C182.79 97.7622 177.648 97.278 172.49 97.1C167.33 96.9758 162.167 97.1662 157.03 97.67C154.67 97.95 152.41 98.18 150.33 98.55C149.33 98.73 148.27 98.86 147.33 99.06L144.56 99.62C142.79 99.95 141.22 100.38 139.83 100.72C138.44 101.06 137.25 101.37 136.28 101.66L134.05 102.29C133.791 102.37 133.527 102.434 133.26 102.48C133.502 102.356 133.757 102.258 134.02 102.19L136.22 101.47C137.22 101.15 138.36 100.78 139.75 100.47C141.14 100.16 142.75 99.65 144.48 99.3L147.25 98.7C148.25 98.5 149.25 98.35 150.25 98.17C152.34 97.77 154.6 97.52 156.97 97.23C167.296 96.1168 177.725 96.4162 187.97 98.12C190.32 98.55 192.56 98.93 194.63 99.44C195.63 99.69 196.63 99.89 197.63 100.15L200.36 100.91C202.11 101.36 203.65 101.91 205.01 102.35C206.37 102.79 207.54 103.21 208.48 103.59L210.64 104.44C210.89 104.514 211.134 104.608 211.37 104.72Z" fill="white"/>
<path d="M212 47.1689C212 47.3745 212 47.5692 212 47.7748V47.9966C211.971 49.7771 211.837 51.5545 211.6 53.3194C211.6 53.3951 211.6 53.4654 211.567 53.5358C211.325 55.3299 210.972 57.1075 210.512 58.8586C210.512 58.9271 210.491 59.0028 210.448 59.0858C209.974 60.8941 209.385 62.6702 208.684 64.4032L208.592 64.6304C207.843 66.4566 206.978 68.2327 206.001 69.9478C205.964 70.0258 205.922 70.1017 205.877 70.175C204.81 72.0303 203.615 73.8089 202.301 75.4978C202.247 75.5735 202.187 75.6438 202.128 75.7142C200.637 77.6179 198.994 79.398 197.216 81.037L196.973 81.2588C194.795 83.2566 192.429 85.0391 189.908 86.5816L189.535 86.8034C185.171 89.4269 180.399 91.301 175.417 92.348C169.096 93.6823 162.566 93.6823 156.246 92.348C151.263 91.301 146.491 89.4269 142.127 86.8034L141.754 86.5816C139.233 85.0391 136.867 83.2566 134.689 81.2588L134.446 81.037C132.672 79.3951 131.032 77.6153 129.54 75.7142C129.48 75.6438 129.421 75.5735 129.367 75.4978C128.052 73.8089 126.858 72.0303 125.791 70.175C125.745 70.1017 125.704 70.0258 125.667 69.9478C124.688 68.2339 123.822 66.4576 123.075 64.6304L122.984 64.4032C122.285 62.6693 121.696 60.8934 121.22 59.0858C121.194 59.0118 121.174 58.9358 121.161 58.8586C120.689 57.1087 120.328 55.3309 120.079 53.5358L120.041 53.3302C119.805 51.5652 119.673 49.7879 119.646 48.0074C119.641 47.9336 119.641 47.8594 119.646 47.7856C119.646 47.58 119.646 47.3853 119.646 47.1798C119.646 45.6044 119.725 44.0301 119.884 42.4628C119.884 42.3871 119.884 42.3167 119.911 42.241C120.097 40.4505 120.391 38.6729 120.793 36.9182C120.793 36.8425 120.82 36.7667 120.841 36.6964C121.261 34.8922 121.789 33.1147 122.421 31.3736C122.453 31.3033 122.475 31.2275 122.502 31.1572C123.191 29.3301 123.995 27.5486 124.909 25.8236C124.942 25.7478 124.985 25.6721 125.023 25.5964C125.999 23.7502 127.102 21.9735 128.323 20.279C128.372 20.2002 128.426 20.1244 128.485 20.0518C129.852 18.1647 131.362 16.3852 133.002 14.729L133.218 14.5072C135.182 12.5453 137.318 10.7638 139.601 9.18438L139.92 8.96799C143.176 6.75421 146.7 4.96545 150.409 3.64518L151.042 3.42339C160.651 0.192283 171.054 0.192283 180.664 3.42339L181.302 3.64518C185.001 4.96734 188.515 6.758 191.758 8.97341C191.866 9.04373 191.975 9.11405 192.077 9.18978C194.36 10.7692 196.496 12.5507 198.46 14.5126C198.536 14.5829 198.606 14.6586 198.677 14.7344C200.318 16.3906 201.83 18.17 203.199 20.0572L203.361 20.2844C204.58 21.979 205.681 23.7556 206.656 25.6018C206.699 25.6752 206.739 25.7511 206.775 25.829C207.678 27.5504 208.47 29.3283 209.144 31.1518L209.225 31.3682C209.857 33.1093 210.385 34.8868 210.805 36.691C210.805 36.7613 210.842 36.837 210.853 36.9128C211.257 38.6674 211.553 40.445 211.74 42.2356C211.74 42.3113 211.74 42.3816 211.74 42.4574C211.906 44.0225 211.993 45.595 212 47.1689V47.1689Z" fill="white" stroke="#263238" stroke-linejoin="round"/>
<path d="M181.275 3.64518H150.382L151.015 3.42339C160.624 0.192283 171.027 0.192283 180.637 3.42339L181.275 3.64518Z" fill="white" stroke="#263238" stroke-linejoin="round"/>
<path d="M192.077 9.18436H139.574L139.893 8.96797C143.148 6.75419 146.673 4.96543 150.382 3.64516L151.015 3.42337H180.626L181.264 3.64516C184.976 4.96435 188.503 6.7551 191.758 8.97338C191.866 9.0383 191.985 9.10863 192.077 9.18436Z" fill="#CFCFCF" stroke="#263238" stroke-linejoin="round"/>
<path d="M198.677 14.729H132.975L133.191 14.5072C135.155 12.5453 137.291 10.7638 139.574 9.18437L139.893 8.96799H191.758C191.866 9.03831 191.975 9.10864 192.077 9.18437C194.36 10.7638 196.496 12.5453 198.46 14.5072C198.536 14.5775 198.606 14.6532 198.677 14.729Z" fill="#333333" stroke="#263238" stroke-linejoin="round"/>
<path d="M203.345 20.279H128.295C128.345 20.2002 128.399 20.1243 128.458 20.0518C129.825 18.1647 131.335 16.3852 132.975 14.729L133.191 14.5072H198.477C198.552 14.5775 198.623 14.6532 198.693 14.729C200.334 16.3851 201.846 18.1646 203.215 20.0518L203.345 20.279Z" fill="#7D7D7D" stroke="#263238" stroke-linejoin="round"/>
<path d="M206.775 25.8236H124.909C124.942 25.7478 124.985 25.6721 125.023 25.5964C125.999 23.7502 127.102 21.9735 128.322 20.279C128.372 20.2002 128.426 20.1244 128.485 20.0518H203.199L203.361 20.279C204.58 21.9735 205.681 23.7502 206.655 25.5964C206.699 25.6698 206.739 25.7457 206.775 25.8236V25.8236Z" fill="#D4D4D4" stroke="#263238" stroke-linejoin="round"/>
<path d="M209.225 31.3628H122.432C122.464 31.2924 122.486 31.2167 122.513 31.1464C123.198 29.3232 123.999 27.5453 124.909 25.8236C124.942 25.7478 124.985 25.6721 125.023 25.5964H206.704C206.748 25.6698 206.788 25.7457 206.823 25.8236C207.727 27.5449 208.518 29.3229 209.193 31.1464L209.225 31.3628Z" fill="#CFCFCF" stroke="#263238" stroke-linejoin="round"/>
<path d="M210.853 36.9074H120.804C120.804 36.8316 120.831 36.7559 120.852 36.6856C121.272 34.8814 121.799 33.1039 122.432 31.3628C122.464 31.2925 122.486 31.2167 122.513 31.1464H209.144L209.225 31.3628C209.857 33.1039 210.385 34.8814 210.805 36.6856C210.821 36.7559 210.842 36.8316 210.853 36.9074Z" fill="#CFCFCF" stroke="#263238" stroke-linejoin="round"/>
<path d="M211.762 42.452H119.895C119.895 42.3762 119.895 42.3059 119.922 42.2302C120.108 40.4397 120.402 38.6621 120.804 36.9074C120.804 36.8316 120.831 36.7559 120.852 36.6856H210.805C210.805 36.7559 210.842 36.8316 210.853 36.9074C211.257 38.662 211.553 40.4396 211.74 42.2302C211.746 42.3059 211.757 42.3762 211.762 42.452Z" fill="#E8E8E8" stroke="#263238" stroke-linejoin="round"/>
<path d="M212 47.1689C212 47.3745 212 47.5692 212 47.7748V47.9965H119.668C119.662 47.9227 119.662 47.8486 119.668 47.7748C119.668 47.5692 119.668 47.3745 119.668 47.1689C119.668 45.5936 119.747 44.0193 119.906 42.4519C119.906 42.3762 119.906 42.3059 119.933 42.2302H211.74C211.74 42.3059 211.74 42.3762 211.74 42.4519C211.906 44.0189 211.993 45.5932 212 47.1689V47.1689Z" fill="#F7F7F7" stroke="#263238" stroke-linejoin="round"/>
<path d="M212 47.7748V47.9966C211.971 49.7771 211.837 51.5545 211.6 53.3194C211.6 53.3951 211.6 53.4654 211.567 53.5358H120.095L120.041 53.3302C119.805 51.5652 119.673 49.7879 119.646 48.0074C119.641 47.9335 119.641 47.8594 119.646 47.7856L212 47.7748Z" fill="white" stroke="#263238" stroke-linejoin="round"/>
<path d="M211.594 53.3302C211.594 53.4059 211.594 53.4762 211.562 53.5466C211.319 55.3407 210.967 57.1183 210.507 58.8694C210.507 58.9379 210.485 59.0136 210.442 59.0966H121.215C121.189 59.0226 121.169 58.9466 121.155 58.8694C120.683 57.1195 120.322 55.3417 120.073 53.5466L120.041 53.3302H211.594Z" fill="white" stroke="#263238" stroke-linejoin="round"/>
<path d="M210.507 58.8586C210.507 58.9271 210.485 59.0028 210.442 59.0858C209.969 60.8941 209.38 62.6702 208.679 64.4031L208.587 64.6304H123.07L122.978 64.4031C122.28 62.6693 121.691 60.8934 121.215 59.0858C121.189 59.0118 121.169 58.9358 121.155 58.8586H210.507Z" fill="white" stroke="#263238" stroke-linejoin="round"/>
<path d="M208.679 64.4032L208.587 64.6304C207.838 66.4566 206.973 68.2327 205.996 69.9478C205.959 70.0258 205.917 70.1017 205.871 70.175H125.813C125.767 70.1017 125.725 70.0258 125.688 69.9478C124.709 68.2339 123.844 66.4576 123.097 64.6304L123.005 64.4032H208.679Z" fill="#CFCFCF" stroke="#263238" stroke-linejoin="round"/>
<path d="M205.996 69.9478C205.959 70.0258 205.917 70.1017 205.871 70.175C204.805 72.0303 203.61 73.8089 202.296 75.4978C202.242 75.5735 202.182 75.6438 202.123 75.7141H129.534C129.475 75.6438 129.415 75.5735 129.361 75.4978C128.047 73.8089 126.852 72.0303 125.786 70.175C125.74 70.1017 125.698 70.0258 125.661 69.9478H205.996Z" fill="#D4D4D4" stroke="#263238" stroke-linejoin="round"/>
<path d="M202.296 75.5086C202.242 75.5843 202.182 75.6547 202.123 75.725C200.631 77.6287 198.989 79.4088 197.211 81.0478L196.967 81.2696H134.684L134.441 81.0478C132.667 79.4059 131.026 77.6261 129.534 75.725C129.475 75.6547 129.415 75.5843 129.361 75.5086H202.296Z" fill="#7D7D7D" stroke="#263238" stroke-linejoin="round"/>
<path d="M197.211 81.037L196.967 81.2587C194.79 83.2566 192.424 85.0391 189.903 86.5816L189.53 86.8033H142.122L141.749 86.5816C139.228 85.0391 136.862 83.2566 134.684 81.2587L134.441 81.037H197.211Z" fill="#333333" stroke="#263238" stroke-linejoin="round"/>
<path d="M189.903 86.5815L189.529 86.8033C185.166 89.4268 180.394 91.301 175.411 92.3479H156.24C151.258 91.301 146.485 89.4268 142.122 86.8033L141.749 86.5815H189.903Z" fill="#CFCFCF" stroke="#263238" stroke-linejoin="round"/>
<path d="M162.174 93.3487C187.676 93.3487 208.349 72.6757 208.349 47.1743C208.349 21.6729 187.676 1 162.174 1C136.673 1 116 21.6729 116 47.1743C116 72.6757 136.673 93.3487 162.174 93.3487Z" fill="white" stroke="#263238" stroke-linejoin="round"/>
<path d="M162.174 84.2934C182.675 84.2934 199.293 67.6746 199.293 47.1743C199.293 26.674 182.675 10.0553 162.174 10.0553C141.674 10.0553 125.055 26.674 125.055 47.1743C125.055 67.6746 141.674 84.2934 162.174 84.2934Z" fill="white" stroke="#263238" stroke-linejoin="round"/>
<path d="M157.539 49.1704C150.663 62.9264 138.606 66.886 131.444 68.0004C134.227 72.1261 137.811 75.65 141.984 78.3626C146.157 81.0751 150.832 82.9209 155.732 83.7901C160.633 84.6593 165.658 84.5342 170.509 83.4223C175.36 82.3104 179.938 80.2343 183.97 77.3175C188.002 74.4007 191.407 70.7028 193.982 66.4437C196.556 62.1846 198.248 57.4513 198.957 52.5252C199.665 47.5991 199.375 42.5808 198.105 37.7688C196.835 32.9568 194.611 28.4494 191.563 24.5145C177.299 25.8452 164.825 34.5975 157.539 49.1704Z" fill="#263238"/>
<path d="M125.05 47.1743C125.052 56.841 128.825 66.1253 135.568 73.0525C142.31 79.9796 151.489 84.0029 161.152 84.2664H161.747C152.181 83.866 143.14 79.7842 136.512 72.874C129.885 65.9637 126.185 56.7596 126.185 47.1852C126.185 37.6107 129.885 28.4066 136.512 21.4963C143.14 14.5861 152.181 10.5043 161.747 10.1039L161.152 10.0553C151.484 10.3189 142.301 14.3458 135.558 21.2788C128.815 28.2118 125.045 37.503 125.05 47.1743Z" fill="#263238" stroke="#263238" stroke-miterlimit="10"/>
<path d="M160.276 34.5272C160.276 31.2005 161.606 29.9347 163.938 29.9347C166.269 29.9347 167.594 31.2005 167.594 34.5272V36.4584H174.518V34.9924C174.518 28.6689 171.857 24.6768 166.664 23.6328V20.1708H160.676V23.6328C155.548 24.7633 152.957 28.7554 152.957 34.9924C152.957 48.3049 167.265 48.7701 167.265 58.3555C167.265 61.6822 165.799 62.8777 163.478 62.8777C161.157 62.8777 159.691 61.6822 159.691 58.3555V54.6933H152.757V57.8849C152.757 64.2084 155.418 68.2708 160.676 69.3365V72.7282H166.664V69.3365C171.857 68.2546 174.583 64.2084 174.583 57.8849C174.583 44.5778 160.276 44.1343 160.276 34.5272Z" fill="#263238" stroke="white" stroke-miterlimit="10"/>
<path d="M158.821 34.5272C158.821 31.2005 160.157 29.9347 162.483 29.9347C164.809 29.9347 166.145 31.2005 166.145 34.5272V36.4584H173.053V34.9924C173.053 28.6689 170.391 24.6768 165.204 23.6328V20.1708H159.221V23.6328C154.098 24.7633 151.502 28.7554 151.502 34.9924C151.502 48.3049 165.809 48.7701 165.809 58.3555C165.809 61.6822 164.349 62.8777 162.023 62.8777C159.697 62.8777 158.236 61.6822 158.236 58.3555V54.6933H151.312V57.8849C151.312 64.2084 153.974 68.2708 159.232 69.3365V72.7282H165.225V69.3365C170.413 68.2546 173.145 64.2084 173.145 57.8849C173.134 44.5778 158.821 44.1343 158.821 34.5272Z" fill="white" stroke="#263238" stroke-linejoin="round"/>
</svg>
