<svg xmlns="http://www.w3.org/2000/svg" viewBox="0 0 500 500"><g id="freepik--background-complete--inject-97"><path d="M78.94,218.34s-10.66,1.47-18-9.2c-4.54-6.61-15.12-18.11-20.62-15.42L29.65,207.86a48.34,48.34,0,0,1,15,14.56C50.23,231.48,66,236.78,66,236.78Z" style="fill:#f5f5f5"></path><g style="opacity:0.4"><path d="M47.11,221.14a8.47,8.47,0,0,1,1.94-12.66c3.83-2.2,9.72.87,11.92,4.69A8,8,0,0,1,58,224.08C54.2,226.28,50,224.52,47.11,221.14Z" style="fill:#fff"></path></g><path d="M50.42,219.93l-1,1-.86-.91,1-.94a6,6,0,0,1-1.41-3l1.59-.55a4.94,4.94,0,0,0,1,2.38l1.53-1.43c-.71-1.25-1.44-2.7-.13-3.93,1-.91,2.46-1,4,.3l1-1,.86.92-1,.93a5.68,5.68,0,0,1,1.19,2.38l-1.55.6a5.2,5.2,0,0,0-.85-1.84l-1.55,1.46c.72,1.24,1.43,2.67.14,3.89C53.42,221.12,51.94,221.2,50.42,219.93Zm3.18-4.72L54.9,214a1,1,0,0,0-1.32,0C53.26,214.25,53.35,214.69,53.6,215.21Zm-.72,3.65c.32-.3.24-.73,0-1.25l-1.26,1.18C52.16,219.16,52.58,219.13,52.88,218.86Z" style="fill:#ebebeb"></path><g style="opacity:0.5"><path d="M32,207.57l9.76-12.83.17,0c7.64,1.12,14.44,10.56,18.95,16.81.78,1.08,1.51,2.09,2.16,2.95,4.37,5.73,12.09,5.47,12.65,5.11l.41.38-10.3,14-.18,0a33,33,0,0,1-21.57-15.62C41,212.86,32.38,207.78,32.3,207.73Zm10-12.22L32.85,207.4c1.54.93,8.85,5.55,11.71,10.69a32.38,32.38,0,0,0,21,15.31l9.63-13.08a10.71,10.71,0,0,1-1.58,0c-1.67-.09-7.42-.75-11-5.47-.65-.86-1.39-1.88-2.17-3C56,205.78,49.37,196.55,42,195.35Z" style="fill:#fff"></path></g><path d="M464.41,169.26a45.75,45.75,0,1,1-51.84-38.59A45.7,45.7,0,0,1,464.41,169.26Z" style="fill:#f5f5f5"></path><path d="M453.64,170.82a34.87,34.87,0,1,1-39.51-29.41A34.83,34.83,0,0,1,453.64,170.82Z" style="fill:#ebebeb"></path><path d="M453.47,169.74c-.2,0-.57-1.45-1.51-4a36.89,36.89,0,0,0-5.52-10,35.53,35.53,0,0,0-5.48-5.61,35.12,35.12,0,0,0-7.61-4.71,33.94,33.94,0,0,0-9.48-2.72,34.61,34.61,0,0,0-5.22-.31,36.15,36.15,0,0,0-5.35.52,36.86,36.86,0,0,0-5.21,1.36,33.14,33.14,0,0,0-4.79,2.08A31.86,31.86,0,0,0,399,149a32.32,32.32,0,0,0-3.68,3.14,34.66,34.66,0,0,0-5.53,7.05,35.1,35.1,0,0,0-3.22,7.15,37,37,0,0,0-1.73,11.28c0,2.73.17,4.25,0,4.29s-.68-1.44-1-4.24a32.13,32.13,0,0,1,1-11.86,35.19,35.19,0,0,1,3.1-7.72,35.72,35.72,0,0,1,5.71-7.68,35.29,35.29,0,0,1,13.63-8.68,38.17,38.17,0,0,1,5.61-1.47,36.81,36.81,0,0,1,5.78-.55,34.89,34.89,0,0,1,5.63.37,35.75,35.75,0,0,1,10.15,3.09,35.93,35.93,0,0,1,8,5.25,35.23,35.23,0,0,1,5.56,6.17,32.22,32.22,0,0,1,5,10.81C453.61,168.16,453.63,169.72,453.47,169.74Z" style="fill:#e0e0e0"></path><path d="M426,195.85l1,6-5.35.85-.94-5.83c-5.35.52-10.7-.32-14-2.15l1.89-7a21.88,21.88,0,0,0,11,2.14l-1.43-8.94c-6.18-.49-13.13-1.41-14.36-9.07-.91-5.67,2.44-11.21,10.74-13.52l-.95-5.95,5.35-.85.94,5.83a24.58,24.58,0,0,1,11.39,1.53l-1.62,7a22.24,22.24,0,0,0-8.64-1.47l1.46,9.1c6.16.44,13,1.38,14.22,8.93C437.57,188,434.27,193.49,426,195.85ZM416.89,173l-1.22-7.6c-2.73,1.09-3.61,2.83-3.33,4.59S414.41,172.67,416.89,173Zm11.27,11.43c-.3-1.88-2-2.64-4.44-3.08l1.18,7.39C427.48,187.76,428.44,186.18,428.16,184.47Z" style="fill:#e0e0e0"></path><path d="M306,85.24a26.72,26.72,0,1,1,8.3-36.82A26.69,26.69,0,0,1,306,85.24Z" style="fill:#f5f5f5"></path><path d="M302.62,79.86a20.36,20.36,0,1,1,6.32-28.06A20.33,20.33,0,0,1,302.62,79.86Z" style="fill:#ebebeb"></path><path d="M303.15,79.52c-.07-.1.64-.65,1.79-1.76a21.51,21.51,0,0,0,4-5.32,20.92,20.92,0,0,0,1.7-4.25,20.34,20.34,0,0,0,.7-5.19,18.11,18.11,0,0,0-.18-2.82,18.73,18.73,0,0,0-.61-2.88,21.1,21.1,0,0,0-1.07-2.86A22.46,22.46,0,0,0,308,51.71a21.58,21.58,0,0,0-2-2.46,20.45,20.45,0,0,0-4.69-3.71,20.42,20.42,0,0,0-2.55-1.22A20.15,20.15,0,0,0,293.67,43a20.57,20.57,0,0,0-4.57,0,21.49,21.49,0,0,0-6.44,1.75,12,12,0,0,1-2.3,1c-.05-.08.61-.7,2-1.54a18.82,18.82,0,0,1,6.56-2.3,20.67,20.67,0,0,1,4.85-.18A20.94,20.94,0,0,1,299.26,43a20.59,20.59,0,0,1,5.42,3,20.21,20.21,0,0,1,2.44,2.21,23,23,0,0,1,2.12,2.65,22.65,22.65,0,0,1,1.66,2.95A20.2,20.2,0,0,1,312,56.88a20.62,20.62,0,0,1,.62,3.11,20.88,20.88,0,0,1,.14,3,21.25,21.25,0,0,1-.9,5.52,20.88,20.88,0,0,1-2,4.44,18.71,18.71,0,0,1-4.58,5.22A6.24,6.24,0,0,1,303.15,79.52Z" style="fill:#e0e0e0"></path><path d="M282.71,71.06l-3,1.94L278,70.35l2.89-1.89a14.92,14.92,0,0,1-2.17-8l4.18-.65a12.88,12.88,0,0,0,1.47,6.38l4.43-2.89c-1.2-3.41-2.36-7.34,1.44-9.81,2.81-1.83,6.56-1.36,9.76,2.52L303,54.11l1.73,2.65-2.9,1.88a14.3,14.3,0,0,1,1.89,6.44l-4.13.8a12.86,12.86,0,0,0-1.26-5l-4.51,2.94c1.23,3.39,2.35,7.27-1.39,9.71C289.63,75.37,285.93,74.9,282.71,71.06Zm10-10.29,3.76-2.45c-1.23-1.2-2.36-1.25-3.24-.68S292.33,59.37,292.72,60.77Zm-3.43,8.73c.93-.6.93-1.7.59-3.1l-3.66,2.38C287.37,69.92,288.44,70.06,289.29,69.5Z" style="fill:#e0e0e0"></path><path d="M448.8,355.27a26.72,26.72,0,1,1-34.63-15A26.69,26.69,0,0,1,448.8,355.27Z" style="fill:#f5f5f5"></path><path d="M442.89,357.6a20.36,20.36,0,1,1-26.39-11.44A20.34,20.34,0,0,1,442.89,357.6Z" style="fill:#ebebeb"></path><path d="M442.65,357a12.41,12.41,0,0,1-1.4-2.08,21.59,21.59,0,0,0-4.47-4.95,20.7,20.7,0,0,0-3.87-2.45,20.36,20.36,0,0,0-5-1.66,18.16,18.16,0,0,0-2.8-.35,19.46,19.46,0,0,0-2.95.06,20.23,20.23,0,0,0-3,.53,20.8,20.8,0,0,0-3,1,22.28,22.28,0,0,0-2.78,1.47,19.45,19.45,0,0,0-2.45,1.82,18.64,18.64,0,0,0-2.07,2.1,19.42,19.42,0,0,0-1.67,2.27,20.47,20.47,0,0,0-2.21,4.75,21.1,21.1,0,0,0-.87,4.49,22,22,0,0,0,.52,6.65,12.51,12.51,0,0,1,.56,2.44c-.09,0-.58-.72-1.14-2.27a19,19,0,0,1-1-6.88A20.42,20.42,0,0,1,406,354a20.09,20.09,0,0,1,1.76-2.48,19.66,19.66,0,0,1,2.2-2.28,19.31,19.31,0,0,1,2.63-2,21.84,21.84,0,0,1,3-1.59,21.37,21.37,0,0,1,3.22-1.08,20.51,20.51,0,0,1,3.24-.55,19.89,19.89,0,0,1,3.18,0,19.66,19.66,0,0,1,3,.42,20.9,20.9,0,0,1,5.25,1.92,20.58,20.58,0,0,1,4,2.76,19,19,0,0,1,4.29,5.48A6,6,0,0,1,442.65,357Z" style="fill:#e0e0e0"></path><path d="M430.54,375.52l1.35,3.28L429,380l-1.32-3.19a15,15,0,0,1-8.25.65l.14-4.23a12.86,12.86,0,0,0,6.54-.26l-2-4.89c-3.58.55-7.65.95-9.38-3.24-1.27-3.1-.11-6.69,4.3-9.12l-1.33-3.25,2.93-1.21,1.31,3.2a14.32,14.32,0,0,1,6.68-.66V358a13,13,0,0,0-5.11.31l2,5c3.56-.57,7.58-.95,9.28,3.18C436.05,369.52,434.91,373.07,430.54,375.52Zm-8.25-11.75-1.71-4.16c-1.41,1-1.67,2.1-1.28,3.06S420.83,363.89,422.29,363.77Zm7.94,5c-.42-1-1.5-1.23-2.94-1.15l1.66,4C430.28,370.73,430.61,369.7,430.23,368.76Z" style="fill:#e0e0e0"></path><path d="M78.63,324.57a26.72,26.72,0,1,1-34.63-15A26.69,26.69,0,0,1,78.63,324.57Z" style="fill:#f5f5f5"></path><path d="M72.72,326.9a20.36,20.36,0,1,1-26.39-11.44A20.34,20.34,0,0,1,72.72,326.9Z" style="fill:#ebebeb"></path><path d="M72.48,326.31a12.41,12.41,0,0,1-1.4-2.08,21.59,21.59,0,0,0-4.47-5,20.7,20.7,0,0,0-3.87-2.45,20.36,20.36,0,0,0-5-1.66,18.16,18.16,0,0,0-2.8-.35,19.46,19.46,0,0,0-2.95.06,21.1,21.1,0,0,0-3,.53,19.82,19.82,0,0,0-5.75,2.48,19.45,19.45,0,0,0-2.45,1.82,19.79,19.79,0,0,0-3.74,4.38,20.22,20.22,0,0,0-2.21,4.74,21.1,21.1,0,0,0-.87,4.49,22,22,0,0,0,.52,6.65,12.33,12.33,0,0,1,.56,2.45,5.93,5.93,0,0,1-1.14-2.28,18.78,18.78,0,0,1-1-6.87,20.41,20.41,0,0,1,3-9.94,20.09,20.09,0,0,1,1.76-2.48,20.49,20.49,0,0,1,2.2-2.28,19.31,19.31,0,0,1,2.63-2,20.65,20.65,0,0,1,6.2-2.67,20.83,20.83,0,0,1,3.25-.55,19.89,19.89,0,0,1,3.18,0,19.66,19.66,0,0,1,3,.42,21,21,0,0,1,5.25,1.92,20.58,20.58,0,0,1,4,2.76,19,19,0,0,1,4.29,5.48A6.2,6.2,0,0,1,72.48,326.31Z" style="fill:#e0e0e0"></path><path d="M60.37,344.82l1.34,3.28-2.92,1.2-1.32-3.19a15,15,0,0,1-8.25.65l.14-4.23a12.86,12.86,0,0,0,6.54-.26l-2-4.89c-3.58.55-7.66.95-9.38-3.24-1.27-3.1-.11-6.69,4.3-9.12l-1.33-3.25,2.92-1.21,1.32,3.2a14.32,14.32,0,0,1,6.68-.66v4.21a13,13,0,0,0-5.11.31l2.05,5c3.56-.57,7.58-1,9.28,3.18C65.88,338.82,64.74,342.37,60.37,344.82Zm-8.25-11.75-1.71-4.16c-1.41,1-1.67,2.1-1.28,3.06S50.66,333.19,52.12,333.07Zm7.94,5c-.42-1-1.5-1.23-2.94-1.15l1.66,4C60.11,340,60.44,339,60.06,338.06Z" style="fill:#e0e0e0"></path><path d="M155.13,50.14s-10.93,5.8-23.07-2.83c-7.52-5.34-23.49-13.58-28.37-8.49l-6,19.49s12.1,2.13,21.92,9.81c9.66,7.56,28.82,7,28.82,7Z" style="fill:#f5f5f5"></path><g style="opacity:0.4"><path d="M121.86,65.75A9.74,9.74,0,0,1,119,51.31c3.26-3.89,10.84-2.91,14.72.35a9.2,9.2,0,0,1,1.14,13C131.55,68.5,126.26,68.28,121.86,65.75Z" style="fill:#fff"></path></g><path d="M125,63.14l-.72,1.44-1.29-.64.7-1.41A6.82,6.82,0,0,1,121,59.89l1.5-1.22a5.84,5.84,0,0,0,2,2.17l1.08-2.16c-1.26-1.06-2.62-2.34-1.69-4.19.68-1.37,2.27-2.05,4.42-1.26L129,51.8l1.29.65-.7,1.41a6.51,6.51,0,0,1,2.22,2.1l-1.44,1.26a5.9,5.9,0,0,0-1.64-1.66l-1.1,2.19c1.27,1.06,2.6,2.32,1.69,4.14C128.67,63.24,127.1,63.91,125,63.14Zm1.57-6.36.92-1.83c-.76-.19-1.22,0-1.43.48S126,56.32,126.52,56.78Zm.66,4.23c.23-.45,0-.89-.48-1.36l-.89,1.78C126.52,61.61,127,61.42,127.18,61Z" style="fill:#ebebeb"></path><g style="opacity:0.5"><path d="M100.19,57.06l5.47-17.71.19,0C114.55,37.5,125.63,45,133,50c1.26.86,2.46,1.67,3.5,2.33,7,4.47,15.23,1.13,15.69.52l.59.25-5.59,19.2-.2,0A37.93,37.93,0,0,1,117.47,64c-5.49-4.73-16.81-6.82-16.92-6.84Zm6-17.15L101,56.55c2,.4,11.75,2.5,16.87,6.92a37.3,37.3,0,0,0,28.76,8.22l5.22-17.93a14.35,14.35,0,0,1-1.69.65c-1.85.56-8.31,2.11-14.06-1.56-1.05-.67-2.25-1.48-3.51-2.34C125.41,45.64,114.57,38.3,106.17,39.91Z" style="fill:#fff"></path></g><path d="M316.25,125.63s-.89,12.34-14.66,18c-8.52,3.52-24,12.66-22.28,19.5l13.35,15.4s8.23-9.11,20-13.34c11.53-4.16,21.28-20.66,21.28-20.66Z" style="fill:#f5f5f5"></path><g style="opacity:0.4"><path d="M311.78,162.11A9.73,9.73,0,0,1,298,156.89c-1.56-4.83,3.3-10.72,8.13-12.28a9.19,9.19,0,0,1,11.57,5.93C319.27,155.37,316.27,159.73,311.78,162.11Z" style="fill:#fff"></path></g><path d="M311.22,158.1l.83,1.38-1.23.75-.82-1.35a6.79,6.79,0,0,1-3.67.88l-.23-1.92a5.76,5.76,0,0,0,2.92-.57l-1.25-2.07c-1.57.5-3.38,1-4.45-.79-.79-1.31-.53-3,1.29-4.41l-.83-1.37,1.23-.75.82,1.34a6.5,6.5,0,0,1,3-.77l.31,1.9a5.83,5.83,0,0,0-2.28.5l1.27,2.1c1.57-.51,3.35-1,4.41.77C313.28,155,313,156.69,311.22,158.1Zm-4.55-4.71-1.06-1.75c-.57.54-.61,1.06-.36,1.47S306,153.55,306.67,153.39Zm3.93,1.69c-.26-.44-.76-.45-1.41-.32l1,1.71C310.76,156,310.84,155.47,310.6,155.08Z" style="fill:#ebebeb"></path><g style="opacity:0.5"><path d="M292.9,175.84l-12.09-14.06.07-.18c3.09-8.33,15.34-13.72,23.45-17.29,1.4-.62,2.72-1.2,3.83-1.73,7.5-3.54,9.06-12.29,8.79-13l.52-.38,13.29,15-.08.19a38,38,0,0,1-22.75,20.53c-6.92,2.13-14.71,10.61-14.79,10.7Zm-11.35-14.19,11.36,13.21c1.42-1.5,8.36-8.62,14.83-10.61a37.27,37.27,0,0,0,22.26-20l-12.41-14a14.47,14.47,0,0,1-.35,1.78c-.51,1.86-2.63,8.17-8.8,11.08-1.12.53-2.45,1.11-3.85,1.73C296.64,148.4,284.66,153.68,281.55,161.65Z" style="fill:#fff"></path></g><path d="M454.86,76s-10.65,1.47-18-9.2c-4.54-6.61-15.12-18.11-20.62-15.42L405.58,65.53a48.34,48.34,0,0,1,15,14.56C426.16,89.15,442,94.45,442,94.45Z" style="fill:#f5f5f5"></path><g style="opacity:0.4"><path d="M423,78.81A8.47,8.47,0,0,1,425,66.15c3.83-2.2,9.72.87,11.92,4.69A8,8,0,0,1,434,81.75C430.13,84,425.88,82.19,423,78.81Z" style="fill:#fff"></path></g><path d="M426.35,77.6l-1,1-.86-.92,1-.94a5.89,5.89,0,0,1-1.41-3l1.59-.55a5,5,0,0,0,1,2.39l1.53-1.44c-.71-1.25-1.44-2.7-.14-3.93,1-.91,2.47-1,4,.3l1-1,.86.92-1,.94a5.57,5.57,0,0,1,1.19,2.38l-1.55.6a5.17,5.17,0,0,0-.85-1.85L430.16,74c.72,1.24,1.43,2.68.14,3.89C429.35,78.79,427.87,78.87,426.35,77.6Zm3.18-4.71,1.3-1.23a1,1,0,0,0-1.32,0C429.19,71.92,429.28,72.36,429.53,72.89Zm-.72,3.64c.32-.3.24-.73,0-1.25l-1.26,1.19C428.09,76.83,428.51,76.81,428.81,76.53Z" style="fill:#ebebeb"></path><g style="opacity:0.5"><path d="M408,65.24l9.76-12.82.17,0c7.64,1.12,14.44,10.56,18.95,16.81.77,1.08,1.51,2.09,2.16,3,4.37,5.73,12.09,5.47,12.65,5.11l.41.38-10.31,14-.17,0A33,33,0,0,1,420,76c-3.06-5.5-11.68-10.59-11.77-10.64ZM418,53l-9.18,12.06c1.54.93,8.84,5.54,11.71,10.68a32.38,32.38,0,0,0,21,15.31L451.13,78a9.45,9.45,0,0,1-1.58,0c-1.67-.09-7.42-.75-11-5.47-.66-.86-1.39-1.88-2.17-3C432,63.46,425.3,54.22,418,53Z" style="fill:#fff"></path></g></g><g id="freepik--Floor--inject-97"><path d="M480.52,472.62c0,.15-103.21.26-230.51.26s-230.53-.11-230.53-.26,103.19-.26,230.53-.26S480.52,472.48,480.52,472.62Z" style="fill:#263238"></path></g><g id="freepik--coins--inject-97"><rect x="60.26" y="438.41" width="62.68" height="11.38" style="fill:#1F75FF"></rect><path d="M66.4,449.87a61.41,61.41,0,0,1,0-11.29,61.41,61.41,0,0,1,0,11.29Z" style="fill:#263238"></path><path d="M63,449.87a61.41,61.41,0,0,1,0-11.29,61.41,61.41,0,0,1,0,11.29Z" style="fill:#263238"></path><path d="M73.93,449.87a61.41,61.41,0,0,1,0-11.29,61.41,61.41,0,0,1,0,11.29Z" style="fill:#263238"></path><path d="M70.51,449.87a59.15,59.15,0,0,1,0-11.29,61.41,61.41,0,0,1,0,11.29Z" style="fill:#263238"></path><path d="M81.47,449.87a59.15,59.15,0,0,1,0-11.29,61.41,61.41,0,0,1,0,11.29Z" style="fill:#263238"></path><path d="M78,449.87a61.41,61.41,0,0,1,0-11.29,61.41,61.41,0,0,1,0,11.29Z" style="fill:#263238"></path><path d="M89,449.87a61.41,61.41,0,0,1,0-11.29,61.41,61.41,0,0,1,0,11.29Z" style="fill:#263238"></path><path d="M85.57,449.87a61.41,61.41,0,0,1,0-11.29,61.41,61.41,0,0,1,0,11.29Z" style="fill:#263238"></path><path d="M96.53,449.87a61.41,61.41,0,0,1,0-11.29,61.41,61.41,0,0,1,0,11.29Z" style="fill:#263238"></path><path d="M93.1,449.87a61.41,61.41,0,0,1,0-11.29,61.41,61.41,0,0,1,0,11.29Z" style="fill:#263238"></path><path d="M104.06,449.87a61.41,61.41,0,0,1,0-11.29,61.41,61.41,0,0,1,0,11.29Z" style="fill:#263238"></path><path d="M100.63,449.87a61.41,61.41,0,0,1,0-11.29,61.41,61.41,0,0,1,0,11.29Z" style="fill:#263238"></path><path d="M111.59,449.87a61.41,61.41,0,0,1,0-11.29,61.41,61.41,0,0,1,0,11.29Z" style="fill:#263238"></path><path d="M108.16,449.87a61.41,61.41,0,0,1,0-11.29,61.41,61.41,0,0,1,0,11.29Z" style="fill:#263238"></path><path d="M119.12,449.87a61.41,61.41,0,0,1,0-11.29,61.41,61.41,0,0,1,0,11.29Z" style="fill:#263238"></path><path d="M115.69,449.87a61.41,61.41,0,0,1,0-11.29,59.15,59.15,0,0,1,0,11.29Z" style="fill:#263238"></path><path d="M122.94,438.41c0,.14-14.13.26-31.56.26s-31.56-.12-31.56-.26,14.13-.26,31.56-.26S122.94,438.26,122.94,438.41Z" style="fill:#263238"></path><rect x="55.35" y="449.7" width="62.68" height="11.38" style="fill:#1F75FF"></rect><path d="M61.49,461.16a61.41,61.41,0,0,1,0-11.29,61.41,61.41,0,0,1,0,11.29Z" style="fill:#263238"></path><path d="M58.06,461.16a61.41,61.41,0,0,1,0-11.29,61.41,61.41,0,0,1,0,11.29Z" style="fill:#263238"></path><path d="M69,461.16a61.41,61.41,0,0,1,0-11.29,61.41,61.41,0,0,1,0,11.29Z" style="fill:#263238"></path><path d="M65.59,461.16a61.41,61.41,0,0,1,0-11.29,61.41,61.41,0,0,1,0,11.29Z" style="fill:#263238"></path><path d="M76.55,461.16a61.41,61.41,0,0,1,0-11.29,61.41,61.41,0,0,1,0,11.29Z" style="fill:#263238"></path><path d="M73.12,461.16a61.41,61.41,0,0,1,0-11.29,61.41,61.41,0,0,1,0,11.29Z" style="fill:#263238"></path><path d="M84.08,461.16a61.41,61.41,0,0,1,0-11.29,61.41,61.41,0,0,1,0,11.29Z" style="fill:#263238"></path><path d="M80.65,461.16a61.41,61.41,0,0,1,0-11.29,59.15,59.15,0,0,1,0,11.29Z" style="fill:#263238"></path><path d="M91.62,461.16a59.15,59.15,0,0,1,0-11.29,61.41,61.41,0,0,1,0,11.29Z" style="fill:#263238"></path><path d="M88.19,461.16a61.41,61.41,0,0,1,0-11.29,61.41,61.41,0,0,1,0,11.29Z" style="fill:#263238"></path><path d="M99.15,461.16a61.41,61.41,0,0,1,0-11.29,61.41,61.41,0,0,1,0,11.29Z" style="fill:#263238"></path><path d="M95.72,461.16a61.41,61.41,0,0,1,0-11.29,61.41,61.41,0,0,1,0,11.29Z" style="fill:#263238"></path><path d="M106.68,461.16a61.41,61.41,0,0,1,0-11.29,61.41,61.41,0,0,1,0,11.29Z" style="fill:#263238"></path><path d="M103.25,461.16a61.41,61.41,0,0,1,0-11.29,61.41,61.41,0,0,1,0,11.29Z" style="fill:#263238"></path><path d="M114.21,461.16a61.41,61.41,0,0,1,0-11.29,61.41,61.41,0,0,1,0,11.29Z" style="fill:#263238"></path><path d="M110.78,461.16a61.41,61.41,0,0,1,0-11.29,61.41,61.41,0,0,1,0,11.29Z" style="fill:#263238"></path><path d="M118,449.7c0,.14-14.1.26-31.49.26s-31.48-.12-31.48-.26,14.09-.26,31.48-.26S118,449.56,118,449.7Z" style="fill:#263238"></path><rect x="51.32" y="461.16" width="62.68" height="11.38" style="fill:#1F75FF"></rect><path d="M57.46,472.62a61.41,61.41,0,0,1,0-11.29,61.41,61.41,0,0,1,0,11.29Z" style="fill:#263238"></path><path d="M54,472.62a61.41,61.41,0,0,1,0-11.29,61.41,61.41,0,0,1,0,11.29Z" style="fill:#263238"></path><path d="M65,472.62a61.41,61.41,0,0,1,0-11.29,61.41,61.41,0,0,1,0,11.29Z" style="fill:#263238"></path><path d="M61.56,472.62a61.41,61.41,0,0,1,0-11.29,59.15,59.15,0,0,1,0,11.29Z" style="fill:#263238"></path><path d="M72.52,472.62a61.41,61.41,0,0,1,0-11.29,59.15,59.15,0,0,1,0,11.29Z" style="fill:#263238"></path><path d="M69.1,472.62a61.41,61.41,0,0,1,0-11.29,61.41,61.41,0,0,1,0,11.29Z" style="fill:#263238"></path><path d="M80.06,472.62a61.41,61.41,0,0,1,0-11.29,61.41,61.41,0,0,1,0,11.29Z" style="fill:#263238"></path><path d="M76.63,472.62a61.41,61.41,0,0,1,0-11.29,61.41,61.41,0,0,1,0,11.29Z" style="fill:#263238"></path><path d="M87.59,472.62a61.41,61.41,0,0,1,0-11.29,61.41,61.41,0,0,1,0,11.29Z" style="fill:#263238"></path><path d="M84.16,472.62a61.41,61.41,0,0,1,0-11.29,61.41,61.41,0,0,1,0,11.29Z" style="fill:#263238"></path><path d="M95.12,472.62a61.41,61.41,0,0,1,0-11.29,61.41,61.41,0,0,1,0,11.29Z" style="fill:#263238"></path><path d="M91.69,472.62a61.41,61.41,0,0,1,0-11.29,61.41,61.41,0,0,1,0,11.29Z" style="fill:#263238"></path><path d="M102.65,472.62a61.41,61.41,0,0,1,0-11.29,61.41,61.41,0,0,1,0,11.29Z" style="fill:#263238"></path><path d="M99.22,472.62a61.41,61.41,0,0,1,0-11.29,61.41,61.41,0,0,1,0,11.29Z" style="fill:#263238"></path><path d="M110.18,472.62a61.41,61.41,0,0,1,0-11.29,61.41,61.41,0,0,1,0,11.29Z" style="fill:#263238"></path><path d="M106.75,472.62a61.41,61.41,0,0,1,0-11.29,61.41,61.41,0,0,1,0,11.29Z" style="fill:#263238"></path><path d="M114,461.16c0,.15-14.1.26-31.48.26S51,461.31,51,461.16s14.09-.26,31.49-.26S114,461,114,461.16Z" style="fill:#263238"></path><g style="opacity:0.30000000000000004"><path d="M63.86,449.81a95.79,95.79,0,0,0,29,2.11c9.61-.64,19.33-2.05,29-1.94Z"></path></g><g style="opacity:0.30000000000000004"><path d="M52.09,461.31a95.72,95.72,0,0,0,29,2.1c9.62-.64,19.33-2.05,29-1.93Z"></path></g><path d="M62.43,439.09c0,.14-.35.26-.78.26s-.79-.12-.79-.26.35-.27.79-.27S62.43,438.94,62.43,439.09Z" style="fill:#fff"></path><path d="M71.14,439.12a12.84,12.84,0,0,1-3.6.26,12.84,12.84,0,0,1-3.6-.26,12.41,12.41,0,0,1,3.6-.26A12.41,12.41,0,0,1,71.14,439.12Z" style="fill:#fff"></path><path d="M81.08,439.12a12.84,12.84,0,0,1-3.6.26,12.79,12.79,0,0,1-3.59-.26,12.36,12.36,0,0,1,3.59-.26A12.41,12.41,0,0,1,81.08,439.12Z" style="fill:#fff"></path><rect x="404" y="410.95" width="67.43" height="12.25" style="fill:#1F75FF"></rect><path d="M410.61,423.28a65.93,65.93,0,0,1,0-12.14,65.93,65.93,0,0,1,0,12.14Z" style="fill:#263238"></path><path d="M406.92,423.28a65.93,65.93,0,0,1,0-12.14,65.93,65.93,0,0,1,0,12.14Z" style="fill:#263238"></path><path d="M418.71,423.28a65.93,65.93,0,0,1,0-12.14,65.93,65.93,0,0,1,0,12.14Z" style="fill:#263238"></path><path d="M415,423.28a65.93,65.93,0,0,1,0-12.14,63.67,63.67,0,0,1,0,12.14Z" style="fill:#263238"></path><path d="M426.82,423.28a63.67,63.67,0,0,1,0-12.14,65.93,65.93,0,0,1,0,12.14Z" style="fill:#263238"></path><path d="M423.13,423.28a65.93,65.93,0,0,1,0-12.14,65.93,65.93,0,0,1,0,12.14Z" style="fill:#263238"></path><path d="M434.92,423.28a65.93,65.93,0,0,1,0-12.14,65.93,65.93,0,0,1,0,12.14Z" style="fill:#263238"></path><path d="M431.23,423.28a65.93,65.93,0,0,1,0-12.14,65.93,65.93,0,0,1,0,12.14Z" style="fill:#263238"></path><path d="M443,423.28a65.93,65.93,0,0,1,0-12.14,65.93,65.93,0,0,1,0,12.14Z" style="fill:#263238"></path><path d="M439.33,423.28a65.93,65.93,0,0,1,0-12.14,65.93,65.93,0,0,1,0,12.14Z" style="fill:#263238"></path><path d="M451.12,423.28a65.93,65.93,0,0,1,0-12.14,65.93,65.93,0,0,1,0,12.14Z" style="fill:#263238"></path><path d="M447.43,423.28a65.93,65.93,0,0,1,0-12.14,63.67,63.67,0,0,1,0,12.14Z" style="fill:#263238"></path><path d="M459.23,423.28a65.93,65.93,0,0,1,0-12.14,65.93,65.93,0,0,1,0,12.14Z" style="fill:#263238"></path><path d="M455.54,423.28a65.93,65.93,0,0,1,0-12.14,65.93,65.93,0,0,1,0,12.14Z" style="fill:#263238"></path><path d="M467.33,423.28a65.93,65.93,0,0,1,0-12.14,65.93,65.93,0,0,1,0,12.14Z" style="fill:#263238"></path><path d="M463.64,423.28a65.93,65.93,0,0,1,0-12.14,65.93,65.93,0,0,1,0,12.14Z" style="fill:#263238"></path><path d="M471.44,411c0,.16-15.17.28-33.88.28s-33.87-.12-33.87-.28,15.16-.28,33.87-.28S471.44,410.8,471.44,411Z" style="fill:#263238"></path><rect x="399.59" y="423.39" width="67.43" height="12.25" style="fill:#1F75FF"></rect><path d="M406.2,435.72a66,66,0,0,1,0-12.15,66,66,0,0,1,0,12.15Z" style="fill:#263238"></path><path d="M402.51,435.72a66,66,0,0,1,0-12.15,66,66,0,0,1,0,12.15Z" style="fill:#263238"></path><path d="M414.3,435.72a66,66,0,0,1,0-12.15,66,66,0,0,1,0,12.15Z" style="fill:#263238"></path><path d="M410.61,435.72a66,66,0,0,1,0-12.15,66,66,0,0,1,0,12.15Z" style="fill:#263238"></path><path d="M422.4,435.72a66,66,0,0,1,0-12.15,66,66,0,0,1,0,12.15Z" style="fill:#263238"></path><path d="M418.71,435.72a66,66,0,0,1,0-12.15,66,66,0,0,1,0,12.15Z" style="fill:#263238"></path><path d="M430.5,435.72a66,66,0,0,1,0-12.15,66,66,0,0,1,0,12.15Z" style="fill:#263238"></path><path d="M426.82,435.72a63.78,63.78,0,0,1,0-12.15,66,66,0,0,1,0,12.15Z" style="fill:#263238"></path><path d="M438.61,435.72a66,66,0,0,1,0-12.15,66,66,0,0,1,0,12.15Z" style="fill:#263238"></path><path d="M434.92,435.72a66,66,0,0,1,0-12.15,66,66,0,0,1,0,12.15Z" style="fill:#263238"></path><path d="M446.71,435.72a66,66,0,0,1,0-12.15,66,66,0,0,1,0,12.15Z" style="fill:#263238"></path><path d="M443,435.72a66,66,0,0,1,0-12.15,66,66,0,0,1,0,12.15Z" style="fill:#263238"></path><path d="M454.81,435.72a66,66,0,0,1,0-12.15,66,66,0,0,1,0,12.15Z" style="fill:#263238"></path><path d="M451.12,435.72a66,66,0,0,1,0-12.15,66,66,0,0,1,0,12.15Z" style="fill:#263238"></path><path d="M462.91,435.72a66,66,0,0,1,0-12.15,66,66,0,0,1,0,12.15Z" style="fill:#263238"></path><path d="M459.23,435.72a66,66,0,0,1,0-12.15,66,66,0,0,1,0,12.15Z" style="fill:#263238"></path><path d="M467,423.39c0,.16-15.16.28-33.87.28s-33.87-.12-33.87-.28,15.16-.28,33.87-.28S467,423.24,467,423.39Z" style="fill:#263238"></path><rect x="405.1" y="435.72" width="67.43" height="12.25" style="fill:#1F75FF"></rect><path d="M411.71,448.05a66,66,0,0,1,0-12.15,66,66,0,0,1,0,12.15Z" style="fill:#263238"></path><path d="M408,448.05a66,66,0,0,1,0-12.15,66,66,0,0,1,0,12.15Z" style="fill:#263238"></path><path d="M419.81,448.05a66,66,0,0,1,0-12.15,66,66,0,0,1,0,12.15Z" style="fill:#263238"></path><path d="M416.12,448.05a66,66,0,0,1,0-12.15,66,66,0,0,1,0,12.15Z" style="fill:#263238"></path><path d="M427.91,448.05a66,66,0,0,1,0-12.15,66,66,0,0,1,0,12.15Z" style="fill:#263238"></path><path d="M424.22,448.05a66,66,0,0,1,0-12.15,66,66,0,0,1,0,12.15Z" style="fill:#263238"></path><path d="M436,448.05a66,66,0,0,1,0-12.15,63.78,63.78,0,0,1,0,12.15Z" style="fill:#263238"></path><path d="M432.33,448.05a66,66,0,0,1,0-12.15,66,66,0,0,1,0,12.15Z" style="fill:#263238"></path><path d="M444.12,448.05a66,66,0,0,1,0-12.15,66,66,0,0,1,0,12.15Z" style="fill:#263238"></path><path d="M440.43,448.05a66,66,0,0,1,0-12.15,66,66,0,0,1,0,12.15Z" style="fill:#263238"></path><path d="M452.22,448.05a66,66,0,0,1,0-12.15,66,66,0,0,1,0,12.15Z" style="fill:#263238"></path><path d="M448.53,448.05a66,66,0,0,1,0-12.15,66,66,0,0,1,0,12.15Z" style="fill:#263238"></path><path d="M460.32,448.05a66,66,0,0,1,0-12.15,66,66,0,0,1,0,12.15Z" style="fill:#263238"></path><path d="M456.63,448.05a66,66,0,0,1,0-12.15,66,66,0,0,1,0,12.15Z" style="fill:#263238"></path><path d="M468.42,448.05a66,66,0,0,1,0-12.15,63.78,63.78,0,0,1,0,12.15Z" style="fill:#263238"></path><path d="M464.74,448.05a66,66,0,0,1,0-12.15,66,66,0,0,1,0,12.15Z" style="fill:#263238"></path><path d="M472.53,435.72c0,.16-15.2.28-33.95.28s-34-.12-34-.28,15.2-.28,34-.28S472.53,435.57,472.53,435.72Z" style="fill:#263238"></path><rect x="399.81" y="447.87" width="67.43" height="12.25" style="fill:#1F75FF"></rect><path d="M406.42,460.2a66,66,0,0,1,0-12.15,66,66,0,0,1,0,12.15Z" style="fill:#263238"></path><path d="M402.73,460.2a66,66,0,0,1,0-12.15,66,66,0,0,1,0,12.15Z" style="fill:#263238"></path><path d="M414.52,460.2a66,66,0,0,1,0-12.15,66,66,0,0,1,0,12.15Z" style="fill:#263238"></path><path d="M410.83,460.2a66,66,0,0,1,0-12.15,63.78,63.78,0,0,1,0,12.15Z" style="fill:#263238"></path><path d="M422.63,460.2a66,66,0,0,1,0-12.15,66,66,0,0,1,0,12.15Z" style="fill:#263238"></path><path d="M418.94,460.2a66,66,0,0,1,0-12.15,66,66,0,0,1,0,12.15Z" style="fill:#263238"></path><path d="M430.73,460.2a66,66,0,0,1,0-12.15,66,66,0,0,1,0,12.15Z" style="fill:#263238"></path><path d="M427,460.2a66,66,0,0,1,0-12.15,66,66,0,0,1,0,12.15Z" style="fill:#263238"></path><path d="M438.83,460.2a66,66,0,0,1,0-12.15,66,66,0,0,1,0,12.15Z" style="fill:#263238"></path><path d="M435.14,460.2a66,66,0,0,1,0-12.15,66,66,0,0,1,0,12.15Z" style="fill:#263238"></path><path d="M446.93,460.2a66,66,0,0,1,0-12.15,66,66,0,0,1,0,12.15Z" style="fill:#263238"></path><path d="M443.25,460.2a63.78,63.78,0,0,1,0-12.15,66,66,0,0,1,0,12.15Z" style="fill:#263238"></path><path d="M455,460.2a66,66,0,0,1,0-12.15,66,66,0,0,1,0,12.15Z" style="fill:#263238"></path><path d="M451.35,460.2a66,66,0,0,1,0-12.15,66,66,0,0,1,0,12.15Z" style="fill:#263238"></path><path d="M463.14,460.2a66,66,0,0,1,0-12.15,66,66,0,0,1,0,12.15Z" style="fill:#263238"></path><path d="M459.45,460.2a66,66,0,0,1,0-12.15,66,66,0,0,1,0,12.15Z" style="fill:#263238"></path><path d="M467.25,447.87c0,.16-15.17.28-33.88.28s-33.87-.12-33.87-.28,15.16-.28,33.87-.28S467.25,447.72,467.25,447.87Z" style="fill:#263238"></path><rect x="406.57" y="460.29" width="67.43" height="12.25" style="fill:#1F75FF"></rect><path d="M413.18,472.62a66,66,0,0,1,0-12.15,66,66,0,0,1,0,12.15Z" style="fill:#263238"></path><path d="M409.49,472.62a66,66,0,0,1,0-12.15,66,66,0,0,1,0,12.15Z" style="fill:#263238"></path><path d="M421.28,472.62a66,66,0,0,1,0-12.15,66,66,0,0,1,0,12.15Z" style="fill:#263238"></path><path d="M417.59,472.62a66,66,0,0,1,0-12.15,66,66,0,0,1,0,12.15Z" style="fill:#263238"></path><path d="M429.38,472.62a66,66,0,0,1,0-12.15,66,66,0,0,1,0,12.15Z" style="fill:#263238"></path><path d="M425.7,472.62a63.78,63.78,0,0,1,0-12.15,66,66,0,0,1,0,12.15Z" style="fill:#263238"></path><path d="M437.49,472.62a66,66,0,0,1,0-12.15,66,66,0,0,1,0,12.15Z" style="fill:#263238"></path><path d="M433.8,472.62a66,66,0,0,1,0-12.15,66,66,0,0,1,0,12.15Z" style="fill:#263238"></path><path d="M445.59,472.62a66,66,0,0,1,0-12.15,66,66,0,0,1,0,12.15Z" style="fill:#263238"></path><path d="M441.9,472.62a66,66,0,0,1,0-12.15,66,66,0,0,1,0,12.15Z" style="fill:#263238"></path><path d="M453.69,472.62a66,66,0,0,1,0-12.15,66,66,0,0,1,0,12.15Z" style="fill:#263238"></path><path d="M450,472.62a66,66,0,0,1,0-12.15,66,66,0,0,1,0,12.15Z" style="fill:#263238"></path><path d="M461.79,472.62a66,66,0,0,1,0-12.15,66,66,0,0,1,0,12.15Z" style="fill:#263238"></path><path d="M458.11,472.62a66,66,0,0,1,0-12.15,66,66,0,0,1,0,12.15Z" style="fill:#263238"></path><path d="M469.9,472.62a66,66,0,0,1,0-12.15,66,66,0,0,1,0,12.15Z" style="fill:#263238"></path><path d="M466.21,472.62a66,66,0,0,1,0-12.15,66,66,0,0,1,0,12.15Z" style="fill:#263238"></path><path d="M474,460.29c0,.16-15.16.28-33.87.28s-33.87-.12-33.87-.28,15.16-.28,33.87-.28S474,460.14,474,460.29Z" style="fill:#263238"></path><g style="opacity:0.30000000000000004"><path d="M405.1,435.72A102.78,102.78,0,0,0,436.25,438c10.35-.69,20.8-2.21,31.17-2.09Z"></path></g><g style="opacity:0.30000000000000004"><path d="M405.71,423.53a102.78,102.78,0,0,0,31.15,2.27c10.35-.69,20.8-2.21,31.17-2.09Z"></path></g><g style="opacity:0.30000000000000004"><path d="M409,448a102.78,102.78,0,0,0,31.15,2.27c10.35-.69,20.8-2.21,31.17-2.08Z"></path></g><g style="opacity:0.30000000000000004"><path d="M406.33,460.22a103.1,103.1,0,0,0,31.15,2.26c10.35-.68,20.8-2.21,31.17-2.08Z"></path></g><path d="M405.24,419.33a20.24,20.24,0,0,1,0-6.71,20.24,20.24,0,0,1,0,6.71Z" style="fill:#fff"></path><path d="M401,432.41a23.22,23.22,0,0,1,0-7.19,23.22,23.22,0,0,1,0,7.19Z" style="fill:#fff"></path><path d="M407,445a18.31,18.31,0,0,1,0-6.38,18.31,18.31,0,0,1,0,6.38Z" style="fill:#fff"></path><path d="M400.82,456.62a14.75,14.75,0,0,1,0-5.72,14.75,14.75,0,0,1,0,5.72Z" style="fill:#fff"></path><path d="M425.52,424.4c0,.15-5,.28-11.12.28s-11.12-.13-11.12-.28a108.79,108.79,0,0,1,11.12-.28A108.79,108.79,0,0,1,425.52,424.4Z" style="fill:#fff"></path><path d="M432.72,412.62a110.55,110.55,0,0,1-11.21.28,110.27,110.27,0,0,1-11.2-.28c0-.15,5-.28,11.2-.28S432.72,412.47,432.72,412.62Z" style="fill:#fff"></path><path d="M443.51,412.79a24.32,24.32,0,0,1-7.36,0,24.32,24.32,0,0,1,7.36,0Z" style="fill:#fff"></path></g><g id="freepik--Character--inject-97"><polygon points="100.82 158.7 129.24 173.31 170.53 146.38 184.39 163.3 140.42 198.06 109.44 198.07 90.14 170.7 100.82 158.7" style="fill:#455a64"></polygon><path d="M109.43,198.1h0L90.1,170.7l0,0,10.69-12h0l28.41,14.61,41.3-26.93,0,0,13.87,16.93,0,0-44,34.77h-31Z" style="fill:#455a64"></path><g style="opacity:0.30000000000000004"><polygon points="100.82 158.7 129.24 173.31 171.18 145.55 184.39 163.3 140.42 198.06 109.44 198.07 90.14 170.7 100.82 158.7"></polygon></g><path d="M252.13,159.31a54,54,0,1,1-29.56-70.26A53.92,53.92,0,0,1,252.13,159.31Z" style="fill:#1F75FF"></path><path d="M240.24,154.45a41.12,41.12,0,1,1-22.52-53.54A41.08,41.08,0,0,1,240.24,154.45Z" style="fill:#1F75FF"></path><path d="M240.24,154.45a5,5,0,0,1,.18-.65L241,152c.13-.41.29-.87.45-1.36s.26-1.08.4-1.69a29.23,29.23,0,0,0,.8-4.24,39,39,0,0,0-.13-11.79,40.83,40.83,0,0,0-38.74-34.56,43.41,43.41,0,0,0-5.8.14c-1,.1-1.94.3-2.91.44a21.11,21.11,0,0,0-2.92.63A37.73,37.73,0,0,0,181,104.24a39.44,39.44,0,0,0-9.62,8.15,40.08,40.08,0,0,0-9.72,23.74,39.36,39.36,0,0,0,1.15,12.57,46.79,46.79,0,0,0,1.91,5.87,47.82,47.82,0,0,0,2.79,5.37,44.31,44.31,0,0,0,3.41,4.85,42.92,42.92,0,0,0,4,4.16,40.93,40.93,0,0,0,51.87,2.51,39.24,39.24,0,0,0,8.35-8.32,29.43,29.43,0,0,0,2.4-3.58c.33-.54.65-1,.9-1.49l.63-1.29.87-1.75a4.09,4.09,0,0,1,.32-.58,5.54,5.54,0,0,1-.24.62c-.2.44-.46,1-.79,1.79l-.6,1.32c-.24.47-.55,1-.87,1.51a28.52,28.52,0,0,1-2.35,3.65,39,39,0,0,1-8.33,8.5,41.39,41.39,0,0,1-33.19,7.56,41.69,41.69,0,0,1-19.5-9.86,38.07,38.07,0,0,1-7.61-9.17,47.39,47.39,0,0,1-2.86-5.48,48.21,48.21,0,0,1-2-6,40.07,40.07,0,0,1-1.19-12.83,41,41,0,0,1,9.92-24.24,40.49,40.49,0,0,1,9.84-8.31,46.37,46.37,0,0,1,5.6-2.89A45.64,45.64,0,0,1,192,98.72a22.13,22.13,0,0,1,3-.63c1-.15,2-.34,3-.44a43.36,43.36,0,0,1,5.91-.14,41.66,41.66,0,0,1,20.81,6.64A41.35,41.35,0,0,1,243,132.8a38.87,38.87,0,0,1,0,11.9,28.32,28.32,0,0,1-.88,4.26c-.16.61-.28,1.18-.44,1.69l-.5,1.35-.69,1.84A4.88,4.88,0,0,1,240.24,154.45Z" style="fill:#263238"></path><g style="opacity:0.30000000000000004"><path d="M239.78,154.73c-.23-.09.29-1.83.88-5a43.86,43.86,0,0,0,.42-13.44,41.81,41.81,0,0,0-2.16-9,40.55,40.55,0,0,0-4.85-9.32,39.39,39.39,0,0,0-7.9-8.41,39.26,39.26,0,0,0-5.06-3.41,39.25,39.25,0,0,0-11.74-4.38,39.59,39.59,0,0,0-6.06-.73,40,40,0,0,0-11.49,1.19,40.82,40.82,0,0,0-9.77,3.87,42.14,42.14,0,0,0-7.5,5.36A44,44,0,0,0,166.06,122c-1.62,2.77-2.37,4.43-2.6,4.34s.19-1.87,1.53-4.9a38.22,38.22,0,0,1,8-11.5A41.33,41.33,0,0,1,191.1,99.48a38.59,38.59,0,0,1,6-1.18,39.37,39.37,0,0,1,6.36-.29,41,41,0,0,1,6.55.75,44.53,44.53,0,0,1,6.53,1.84,44.06,44.06,0,0,1,6.13,2.88,41.06,41.06,0,0,1,5.44,3.72,39.18,39.18,0,0,1,4.62,4.37,39.91,39.91,0,0,1,3.74,4.81,41.06,41.06,0,0,1,6.83,19.68,38.35,38.35,0,0,1-1.44,14C240.87,153.19,240,154.79,239.78,154.73Z"></path></g><g style="opacity:0.30000000000000004"><path d="M197.2,163.34,194.58,170l-6-2.34,2.55-6.49c-5.76-2.67-10.69-6.73-13-10.58l6.12-6a25.83,25.83,0,0,0,9.9,8.76l3.9-9.94c-6-4.2-12.5-9.3-9.16-17.81,2.48-6.31,9.19-9.93,19-7.31l2.6-6.61,5.95,2.33L214,120.53a29,29,0,0,1,10.67,8.38l-5.85,6.15a26.34,26.34,0,0,0-7.9-6.67l-4,10.12c6,4.14,12.4,9.2,9.11,17.59C213.62,162.29,207,165.88,197.2,163.34Zm4.37-28.65,3.32-8.46c-3.44-.52-5.37.72-6.14,2.68S199.28,132.83,201.57,134.69Zm4.61,18.37c.82-2.09-.46-3.9-2.67-5.8l-3.23,8.22C203.52,156,205.43,155,206.18,153.06Z"></path></g><path d="M64.46,110.8,68.91,155c.76,7.52,3.41,18.4,15.23,16.66h0c10.15-2.28,11.77-12.32,11.06-19.33-.34-3.33-.62-6.1-.63-6.44,0,0,11.14-2.2,10.83-13.41-.15-5.42-1.37-16.56-2.59-26.62A20.89,20.89,0,0,0,81.23,87.48l-1.08,0C68.51,88.67,63,99.2,64.46,110.8Z" style="fill:#ffbe9d"></path><path d="M94.57,145.87a27.19,27.19,0,0,1-14.77-3.73s3.89,8,15,6.58Z" style="fill:#eb996e"></path><path d="M84.34,112.54c-.19.25-1.59-.63-3.46-.47s-3.15,1.23-3.38,1,.08-.53.64-1a4.61,4.61,0,0,1,2.67-1.1,4.46,4.46,0,0,1,2.78.67C84.21,112,84.44,112.43,84.34,112.54Z" style="fill:#263238"></path><path d="M84.72,117.17a1.51,1.51,0,0,1-1.39,1.59,1.45,1.45,0,0,1-1.62-1.3,1.52,1.52,0,0,1,1.4-1.59A1.44,1.44,0,0,1,84.72,117.17Z" style="fill:#263238"></path><path d="M90.47,125a11.69,11.69,0,0,1,2.78-.62c.44-.06.85-.16.91-.47a2.2,2.2,0,0,0-.35-1.29c-.45-1-.93-2.14-1.43-3.3-2-4.69-3.46-8.56-3.27-8.64s2,3.66,4,8.36l1.38,3.32a2.58,2.58,0,0,1,.3,1.72,1.13,1.13,0,0,1-.7.67,2.82,2.82,0,0,1-.74.13A10.85,10.85,0,0,1,90.47,125Z" style="fill:#263238"></path><path d="M82.76,105.64c-.14.43-1.66.29-3.44.58s-3.19.86-3.44.48c-.12-.18.12-.59.68-1a5.82,5.82,0,0,1,2.53-1,5.73,5.73,0,0,1,2.71.22C82.47,105.11,82.81,105.43,82.76,105.64Z" style="fill:#263238"></path><path d="M100.82,107.08c-.16.36-1.65.15-3.42.3s-3.2.53-3.42.2c-.1-.16.15-.49.73-.83a6.7,6.7,0,0,1,5.22-.38C100.57,106.62,100.89,106.91,100.82,107.08Z" style="fill:#263238"></path><path d="M65.7,119.06c-.19-.08-7.79-2-7.24,5.68s8.12,5.52,8.12,5.3S65.7,119.06,65.7,119.06Z" style="fill:#ffbe9d"></path><path d="M64,127.31s-.12.11-.34.23a1.38,1.38,0,0,1-1,.09c-.83-.24-1.6-1.48-1.74-2.85a4.38,4.38,0,0,1,.24-1.94,1.54,1.54,0,0,1,.93-1.09.67.67,0,0,1,.81.31c.12.2.08.36.12.37s.16-.14.07-.45a.82.82,0,0,0-.33-.46,1,1,0,0,0-.75-.14,1.87,1.87,0,0,0-1.31,1.28,4.54,4.54,0,0,0-.31,2.17c.16,1.54,1.06,2.93,2.19,3.17a1.46,1.46,0,0,0,1.2-.29C64,127.5,64.06,127.33,64,127.31Z" style="fill:#eb996e"></path><path d="M89.27,130.44c.06-.2-1.48-.48-2.69-1.76a8.81,8.81,0,0,1-1.28-1.87c-.28-.53-.49-.86-.57-.82s0,.4.18,1a5.66,5.66,0,0,0,1.23,2.12,4.59,4.59,0,0,0,2.11,1.27C88.86,130.54,89.26,130.51,89.27,130.44Z" style="fill:#263238"></path><path d="M101.39,111.32c-.2.25-1.6-.64-3.47-.47s-3.15,1.23-3.37,1,.07-.53.63-1a4.78,4.78,0,0,1,2.68-1.1,4.55,4.55,0,0,1,2.78.67C101.25,110.81,101.48,111.21,101.39,111.32Z" style="fill:#263238"></path><path d="M100.41,116.23a1.52,1.52,0,0,1-1.4,1.59,1.45,1.45,0,0,1-1.61-1.31,1.51,1.51,0,0,1,1.39-1.58A1.44,1.44,0,0,1,100.41,116.23Z" style="fill:#263238"></path><path d="M108.89,90.21a6,6,0,0,0-7.77-1.52,8.28,8.28,0,0,0-15-5.5,3.41,3.41,0,0,0-1.9-2.07,6.62,6.62,0,0,0-2.83-.5,13.14,13.14,0,0,0-11.35,6.56A14.32,14.32,0,0,0,58.51,93c-3.13,4.37-2.77,13.63,2.05,21.13L62.05,119a4.5,4.5,0,0,1,3.2.41c1.13.81,1.79,2.5,3.43,1.64.83-.43,1.42-2.35,1.61-3.27a43.67,43.67,0,0,0-.21-18.56,14,14,0,0,1,4-3.6l-.11.14c3-1.43,6.37-2.89,9.48-1.77,2.41.87,4,3.09,5.95,4.79a17.53,17.53,0,0,0,13.08,4.33c.52,3.11.76,7.56,1.27,10.67l2.07-5.31v0a12,12,0,0,0,.44-1.17l.05-.12v0h0a26.4,26.4,0,0,0,1.43-2.23,6.62,6.62,0,0,0,.31-6.84A6,6,0,0,0,108.89,90.21Z" style="fill:#263238"></path><polygon points="106.97 105.29 106.96 105.28 106.96 105.28 106.97 105.29" style="fill:#263238"></polygon><path d="M104.35,90.84s0,0,.07.16a2.1,2.1,0,0,1,.13.48,3.31,3.31,0,0,1-.24,1.84,3.37,3.37,0,0,1-.74,1.08,3.07,3.07,0,0,1-1.32.75,3.48,3.48,0,0,1-3.31-.83l.17-.19a2.13,2.13,0,0,1,.7,1.43,2.77,2.77,0,0,1-.63,2,3.06,3.06,0,0,1-1.72,1,4.85,4.85,0,0,1-3.22-.5,10.42,10.42,0,0,1-1.84-1.24,4.59,4.59,0,0,1-.6-.54s.24.16.66.46a11.56,11.56,0,0,0,1.85,1.15,4.7,4.7,0,0,0,3.1.44,2.91,2.91,0,0,0,1.58-.9,2.52,2.52,0,0,0,.57-1.83,1.89,1.89,0,0,0-.62-1.27l.18-.18a3.23,3.23,0,0,0,3.07.8,3,3,0,0,0,2-1.69,3.42,3.42,0,0,0,.3-1.75C104.42,91.07,104.33,90.85,104.35,90.84Z" style="fill:#455a64"></path><path d="M93.87,83.57a.77.77,0,0,1,.17.06,2.59,2.59,0,0,1,.46.24,3.65,3.65,0,0,1,1.32,1.36A3,3,0,0,1,95.87,88a2.24,2.24,0,0,1-1.28,1.11A2.32,2.32,0,0,1,92.77,89a2.13,2.13,0,0,1-.47-.37l.21-.15a2.16,2.16,0,0,1,.13,1.72,2.31,2.31,0,0,1-1,1.26,3.12,3.12,0,0,1-2.59.29,4.15,4.15,0,0,1-1.52-.9,2.13,2.13,0,0,1-.43-.48s.17.16.49.41a4.34,4.34,0,0,0,1.51.8,3,3,0,0,0,2.42-.31,2.16,2.16,0,0,0,.87-1.15,1.9,1.9,0,0,0-.12-1.51l-.51-.89.71.74a1.88,1.88,0,0,0,.41.32,2.1,2.1,0,0,0,1.61.13,2.05,2.05,0,0,0,1.15-1,2.79,2.79,0,0,0,0-2.58A3.86,3.86,0,0,0,94.45,84C94.09,83.69,93.86,83.59,93.87,83.57Z" style="fill:#455a64"></path><path d="M118.68,433.48l-.8,38,50,1.17c-.18-4.52-25.79-14.18-25.79-14.18l1.57-24.31Z" style="fill:#455a64"></path><g style="opacity:0.6000000000000001"><path d="M126.67,456a1.93,1.93,0,0,0-1.47,2.16,2,2,0,0,0,2.26,1.4,2,2,0,0,0,1.55-2.3,2.08,2.08,0,0,0-2.53-1.21" style="fill:#fff"></path></g><g style="opacity:0.6000000000000001"><path d="M117.88,471.45l.24-3.83L166,470.18s2.2,1,1.91,2.44Z" style="fill:#fff"></path></g><path d="M142.89,458.22c0,.23-1.24.3-2.46,1s-1.89,1.66-2.11,1.57.18-1.42,1.67-2.26S142.94,458,142.89,458.22Z" style="fill:#263238"></path><path d="M148.07,460.39c.05.22-1,.59-1.87,1.55s-1.12,2-1.36,2-.37-1.32.72-2.49S148.07,460.17,148.07,460.39Z" style="fill:#263238"></path><path d="M150.89,466.39c-.22,0-.53-1.12.13-2.37s1.82-1.72,1.91-1.53-.62.86-1.15,1.89S151.14,466.37,150.89,466.39Z" style="fill:#263238"></path><path d="M142.59,452.64c-.1.21-1.22-.14-2.6-.08s-2.47.44-2.59.24.94-1,2.56-1S142.72,452.46,142.59,452.64Z" style="fill:#263238"></path><path d="M141.55,447a5.11,5.11,0,0,1-2.5-.07,12.27,12.27,0,0,1-4-1.58,3.13,3.13,0,0,1-.74-.57,1,1,0,0,1-.08-1.23,1.37,1.37,0,0,1,1.08-.51,3.56,3.56,0,0,1,.94.15,9.61,9.61,0,0,1,1.54.54,8.5,8.5,0,0,1,2.27,1.49c1.14,1,1.51,1.91,1.42,1.95s-.65-.66-1.81-1.53a10.64,10.64,0,0,0-2.2-1.24A11.41,11.41,0,0,0,136,444c-.52-.14-1-.16-1.12.06s-.06.12,0,.27a2.44,2.44,0,0,0,.55.42,12.27,12.27,0,0,0,1.3.74,14.72,14.72,0,0,0,2.4.94A16.74,16.74,0,0,1,141.55,447Z" style="fill:#263238"></path><path d="M141.22,447.33a3.68,3.68,0,0,1-.6-2.3,7.49,7.49,0,0,1,.41-2.58,7.65,7.65,0,0,1,.68-1.42,2,2,0,0,1,1.63-1.16,1.19,1.19,0,0,1,1,.69,3.13,3.13,0,0,1,.23.87,5,5,0,0,1,0,1.59,5.3,5.3,0,0,1-1.13,2.42c-1,1.2-2,1.45-2.06,1.37s.79-.54,1.57-1.7a5.34,5.34,0,0,0,.85-2.2,4.84,4.84,0,0,0,0-1.37c-.07-.5-.26-.91-.46-.87s-.68.36-.89.76a7.33,7.33,0,0,0-.66,1.27,8.5,8.5,0,0,0-.55,2.35C141.12,446.43,141.36,447.3,141.22,447.33Z" style="fill:#263238"></path><path d="M71.88,417.87,51.45,444.74l35.3,27C89,468.38,75.64,448,75.64,448l13.83-16.64Z" style="fill:#455a64"></path><g style="opacity:0.6000000000000001"><path d="M65.83,438.25a1.71,1.71,0,0,0-2.19.79,1.74,1.74,0,0,0,.9,2.18,1.8,1.8,0,0,0,2.31-.84,1.85,1.85,0,0,0-1.18-2.19" style="fill:#fff"></path></g><g style="opacity:0.6000000000000001"><path d="M51.45,444.74l2.17-2.63,33,26.85s1.07,1.85.09,2.76Z" style="fill:#fff"></path></g><path d="M76.34,448.3c-.13.16-1-.42-2.3-.55s-2.23.21-2.34,0,.87-.93,2.39-.75S76.49,448.18,76.34,448.3Z" style="fill:#263238"></path><path d="M78.93,452.58c-.08.18-1-.11-2.15.13s-1.85.84-2,.7.43-1.14,1.82-1.41S79.05,452.42,78.93,452.58Z" style="fill:#263238"></path><path d="M77.82,458.36c-.18-.08.2-1.08,1.33-1.63s2.21-.29,2.17-.1-.89.29-1.81.75S78,458.48,77.82,458.36Z" style="fill:#263238"></path><path d="M79,444.14c-.18.09-.8-.73-1.82-1.42s-2-1-2-1.18,1.19-.23,2.39.59S79.23,444.08,79,444.14Z" style="fill:#263238"></path><path d="M81.24,439.55c0,.07-.81-.35-1.76-1.36A10.84,10.84,0,0,1,78,436.24a11.67,11.67,0,0,1-.62-1.28,2.7,2.7,0,0,1-.24-.8.87.87,0,0,1,.59-.93,1.21,1.21,0,0,1,1,.21,3.06,3.06,0,0,1,.6.59,7.92,7.92,0,0,1,.82,1.19,7.82,7.82,0,0,1,.86,2.26,3.53,3.53,0,0,1,0,2.15c-.12,0-.13-.82-.51-2.05a9.21,9.21,0,0,0-.93-2,9.48,9.48,0,0,0-.79-1.07c-.3-.38-.62-.63-.84-.54s-.1.05-.1.21a2.47,2.47,0,0,0,.17.59,12.39,12.39,0,0,0,1.78,3.14C80.68,438.91,81.31,439.46,81.24,439.55Z" style="fill:#263238"></path><path d="M80.84,439.61c-.08,0,0-.87.77-2A6.52,6.52,0,0,1,83.25,436a7.2,7.2,0,0,1,1.23-.67,1.86,1.86,0,0,1,1.78,0,1,1,0,0,1,.38,1,2.61,2.61,0,0,1-.29.75,4.57,4.57,0,0,1-2.94,2.27,2.94,2.94,0,0,1-2.2-.08,18.16,18.16,0,0,0,2-.41A4.65,4.65,0,0,0,85,437.77a4,4,0,0,0,.71-1c.21-.39.29-.79.13-.86a1.26,1.26,0,0,0-1,.08,6.74,6.74,0,0,0-1.14.57A7.17,7.17,0,0,0,82,438C81.23,438.91,81,439.66,80.84,439.61Z" style="fill:#263238"></path><path d="M77.83,267.83l6.07,19.76A32.17,32.17,0,0,0,92,301c3.92,3.87,8.53,8.46,9.28,9.37l18.44,59.84L115.46,450l31.78,2.16s12.5-81.48,10.48-94.09-14.84-96.7-14.84-96.7l-3.37-5.85Z" style="fill:#263238"></path><polygon points="104.3 312.53 101.08 371.32 58.81 428.77 85.31 446.84 142.32 380.27 142.88 303.26 104.3 312.53" style="fill:#263238"></polygon><path d="M101.31,310.39s0,.09.12.27.17.49.29.83c.27.76.63,1.84,1.1,3.2,1,2.84,2.3,6.9,4,11.94L120.05,367l0,.05v.05c-.17,3.44-.36,7-.55,10.7-1,19.39-2,36.94-2.67,49.68-.37,6.33-.66,11.46-.87,15.06-.12,1.74-.21,3.11-.27,4.09,0,.44-.06.79-.08,1.06a2.52,2.52,0,0,1-.05.36,1.23,1.23,0,0,1,0-.36c0-.27,0-.63,0-1.07,0-1,.09-2.35.16-4.1.17-3.59.4-8.73.69-15.06.64-12.75,1.53-30.3,2.5-49.69.19-3.67.38-7.26.56-10.7l0,.11c-5.2-16.07-9.78-30.25-13.07-40.45-1.61-5.06-2.91-9.13-3.82-12-.42-1.38-.76-2.47-1-3.24l-.24-.84A1,1,0,0,1,101.31,310.39Z" style="fill:#455a64"></path><path d="M67.65,150.65S57.21,167,59.23,180.56C60.25,187.43,78,257,78,257l-.2,23.92,68.08-14.06-6.85-24.26-20.22-71.56L95,151Z" style="fill:#455a64"></path><g style="opacity:0.30000000000000004"><path d="M75.19,185.73s33,23.53,44.59,23.24l9.86.28-1.52-5.35Z"></path></g><path d="M82.1,189.31A14,14,0,0,1,79.54,191a45.26,45.26,0,0,1-13.88,5.08,13.12,13.12,0,0,1-3,.36,26.23,26.23,0,0,1,3-.72,64,64,0,0,0,7-2.1,62.27,62.27,0,0,0,6.73-3A25.92,25.92,0,0,1,82.1,189.31Z" style="fill:#263238"></path><path d="M131.26,217.5c0,.14-13.12,3.63-29.38,7.79s-29.49,7.42-29.52,7.28,13.12-3.62,29.39-7.78S131.23,217.37,131.26,217.5Z" style="fill:#263238"></path><path d="M140.51,249.73a3.64,3.64,0,0,1-.63.15l-1.82.34c-1.57.31-3.85.76-6.65,1.39-5.61,1.24-13.3,3.21-21.78,5.44s-16.16,4.28-21.75,5.62c-2.79.68-5.06,1.19-6.64,1.52l-1.81.35a4.83,4.83,0,0,1-.65.09,2.48,2.48,0,0,1,.62-.19l1.8-.45,6.59-1.68,21.71-5.76c8.48-2.23,16.19-4.15,21.83-5.3,2.81-.58,5.11-1,6.7-1.23l1.83-.24A2.9,2.9,0,0,1,140.51,249.73Z" style="fill:#263238"></path><path d="M190.84,159.85a13.62,13.62,0,0,1,2.07-5.57c1.85-2.93,6.83-6.27,6.91-8.56s2.66-1.31,3,1.43c.19,1.75-1.91,7.1-1.91,7.1s4.29-.2,6.49-2.54,10.67-7.88,12.05-6.88c1.57,1.13-.72,2.36-1.58,3.27-.66.69-5.92,5.61-5.92,5.61s12.18-4.12,13.9-4c1.88.13.6,2.14-.16,2.4-.49.17,1.52,1,.44,2.83-.73,1.25-5.44,3.88-6.82,4.31l-2.85.91,9-1.71s1.92.92,0,2.27c-.84.6-26,12.32-28,13.06-3.46,1.27-8.47,2.9-8.47,2.9l-4.48-14.63Z" style="fill:#ffbe9d"></path><path d="M225.64,152.11a41.9,41.9,0,0,1-6.95,3.95c-3.95,2-7.33,3.2-7.39,3a11.61,11.61,0,0,1,2.07-1.09l5.06-2.46,5.06-2.5A10,10,0,0,1,225.64,152.11Z" style="fill:#eb996e"></path><path d="M68,181.64s44.51,26.91,65.24,21.56S195.68,179,195.68,179L186,156.47l-55.52,20s-39.75-18.58-48.28-21.19C69.69,151.43,52.65,168,68,181.64Z" style="fill:#455a64"></path><path d="M97.93,161.64l.59.2c.38.15,1,.35,1.71.66,1.5.59,3.7,1.53,6.53,2.76,5.64,2.49,13.78,6.22,23.85,11h-.15l55.49-20,.25-.09.1.24L196,178.88l.11.26-.26.12-8.08,3.56c-8.11,3.54-16.09,6.87-23.84,10s-15.29,5.93-22.6,8.3c-1.83.56-3.62,1.17-5.44,1.65l-2.69.74a23.29,23.29,0,0,1-2.73.48,38.73,38.73,0,0,1-10.59-.46,98.26,98.26,0,0,1-18.24-5.24,213.28,213.28,0,0,1-24.9-11.58c-2.85-1.55-5-2.8-6.51-3.66l-1.66-1c-.38-.23-.56-.36-.56-.36s.21.1.59.31l1.69,1c1.49.84,3.69,2.06,6.56,3.57a226,226,0,0,0,24.94,11.4A99.27,99.27,0,0,0,119.91,203a38.63,38.63,0,0,0,10.45.42A24.89,24.89,0,0,0,133,203l2.67-.74c1.8-.48,3.59-1.1,5.42-1.66,7.28-2.37,14.8-5.24,22.55-8.32s15.71-6.43,23.82-10l8.07-3.56-.14.38-9.63-22.53.35.16-55.55,19.89-.08,0-.07,0c-10-4.83-18.16-8.62-23.77-11.17-2.81-1.26-5-2.23-6.48-2.86l-1.69-.7C98.12,161.74,97.93,161.64,97.93,161.64Z" style="fill:#263238"></path><path d="M90,159.17a7.6,7.6,0,0,1-1.26-.52c-.8-.35-2-.87-3.41-1.41a24.32,24.32,0,0,0-5.26-1.36,14.64,14.64,0,0,0-6.53.54,10.39,10.39,0,0,0-5.35,3.81h0a18.75,18.75,0,0,0-3.8,6.34c-.6,1.73-.76,2.8-.83,2.79a3.37,3.37,0,0,1,.07-.77,14.38,14.38,0,0,1,.49-2.11,17.65,17.65,0,0,1,3.72-6.57l0,0a10.65,10.65,0,0,1,5.57-4,14.81,14.81,0,0,1,6.76-.52,22.83,22.83,0,0,1,5.33,1.5,34,34,0,0,1,3.37,1.57A6.47,6.47,0,0,1,90,159.17Z" style="fill:#263238"></path><path d="M108.83,167.25a4.47,4.47,0,0,1-.36,1.16c-.26.73-.67,1.78-1.19,3.07-1,2.58-2.55,6.11-4.36,10s-3.55,7.26-4.87,9.71c-.66,1.23-1.21,2.21-1.61,2.88a5.23,5.23,0,0,1-.65,1,5.19,5.19,0,0,1,.47-1.11c.4-.79.88-1.78,1.46-2.95,1.24-2.48,2.93-5.93,4.73-9.76s3.37-7.34,4.49-9.87l1.34-3A6.35,6.35,0,0,1,108.83,167.25Z" style="fill:#263238"></path><path d="M134.16,202.29c-.15,0-1.07-5.56-2.06-12.45s-1.68-12.5-1.54-12.53,1.06,5.56,2.06,12.45S134.3,202.27,134.16,202.29Z" style="fill:#263238"></path><path d="M168.91,190.47a3.35,3.35,0,0,1-.54-.87c-.32-.58-.76-1.42-1.29-2.47-1.08-2.09-2.52-5-4.09-8.21s-3-6.15-4-8.29c-.49-1.06-.88-1.93-1.14-2.53a4.17,4.17,0,0,1-.36-1,4,4,0,0,1,.54.87c.32.58.76,1.42,1.29,2.47,1.07,2.09,2.52,5,4.09,8.22s3,6.15,3.95,8.29c.49,1.06.88,1.93,1.14,2.53A4.42,4.42,0,0,1,168.91,190.47Z" style="fill:#263238"></path></g><g id="freepik--piggy-bank--inject-97"><polygon points="167.89 413.01 194.89 472.62 207.92 472.62 209.78 468.07 212.1 472.62 220.65 472.62 219.65 437.83 219.23 417.27 167.89 413.01" style="fill:#1F75FF"></polygon><polygon points="167.89 413.01 194.89 472.62 207.92 472.62 209.78 468.07 212.1 472.62 220.65 472.62 219.65 437.83 219.23 417.27 167.89 413.01" style="opacity:0.30000000000000004"></polygon><polygon points="286.04 419.4 312.37 472.62 325.4 472.62 327.27 468.46 329.58 472.62 338.13 472.62 337.14 440.77 336.71 421.95 286.04 419.4" style="fill:#1F75FF"></polygon><polygon points="286.04 419.4 312.37 472.62 325.4 472.62 327.27 468.46 329.58 472.62 338.13 472.62 337.14 440.77 336.71 421.95 286.04 419.4" style="opacity:0.30000000000000004"></polygon><path d="M435.79,262.55l.25.08.7.31a11.55,11.55,0,0,1,2.44,1.63,13.73,13.73,0,0,1,4.74,9.49,12.2,12.2,0,0,1-1.83,7.21,14,14,0,0,1-6.5,5.55,11.51,11.51,0,0,1-9.36,0,6.93,6.93,0,0,1-3.48-3.68,5.39,5.39,0,0,1,.48-5.15,6.14,6.14,0,0,1,4.59-2.45,7.22,7.22,0,0,1,4.81,1.59,10.4,10.4,0,0,1,3.86,8.49,13.26,13.26,0,0,1-3,8,12.42,12.42,0,0,1-2.91,2.63,14.31,14.31,0,0,1-3.29,1.48,15.09,15.09,0,0,1-6.15.46,16.41,16.41,0,0,1-4.49-1.23,15.43,15.43,0,0,1-2.57-1.43l-.61-.46c-.13-.1-.2-.16-.19-.17a20.24,20.24,0,0,0,3.45,1.87,16.18,16.18,0,0,0,4.44,1.13,15,15,0,0,0,6-.52,13.77,13.77,0,0,0,3.18-1.47,11.81,11.81,0,0,0,2.79-2.56A12.84,12.84,0,0,0,436,285.6a9.87,9.87,0,0,0-3.69-8.07,6.67,6.67,0,0,0-4.47-1.48,5.66,5.66,0,0,0-4.2,2.23,4.92,4.92,0,0,0-.42,4.66,6.43,6.43,0,0,0,3.22,3.41,11.09,11.09,0,0,0,9,0,13.56,13.56,0,0,0,6.31-5.34,11.76,11.76,0,0,0,1.83-7,13.31,13.31,0,0,0-1.66-5.77,13.75,13.75,0,0,0-2.84-3.59A14.91,14.91,0,0,0,435.79,262.55Z" style="fill:#1F75FF"></path><path d="M422.9,316.48c3.92,88.45-70.23,132.58-154.17,132.58s-152-57.47-152-128.36,68.05-128.36,152-128.36S419.76,245.66,422.9,316.48Z" style="fill:#1F75FF"></path><path d="M258.14,224s10.08-3.2,19.51,7.46,22.55,28.82,22.55,28.82c-1.18,5.91-4.63,10.52-11.32,13.26Z" style="opacity:0.30000000000000004"></path><ellipse cx="168.8" cy="372.78" rx="52.04" ry="39.88" style="fill:#1F75FF"></ellipse><path d="M217.33,266.17s30.5-47.32,44.47-42.19,27.08,49.6,27.08,49.6" style="fill:#1F75FF"></path><path d="M182.84,255.32l-1.42-12.81s-19.1-8-36.2-11.89-20.47,0-20.47,0l27.05,37.91Z" style="fill:#1F75FF"></path><path d="M223.55,209.94l10.12,6s49-13,86.66,0l-13.81-11.76S260.87,194.38,223.55,209.94Z" style="opacity:0.30000000000000004"></path><ellipse cx="168.8" cy="372.78" rx="52.04" ry="39.88" style="opacity:0.30000000000000004"></ellipse><ellipse cx="155.57" cy="372.78" rx="48.75" ry="39.88" style="fill:#1F75FF"></ellipse><rect x="131.63" y="354.08" width="10.43" height="37.42" rx="3.34" style="opacity:0.30000000000000004"></rect><rect x="159.64" y="354.08" width="10.43" height="37.42" rx="3.34" style="opacity:0.30000000000000004"></rect><path d="M179.88,256.58c4.39-2.48,6.75-6.18,5.09-12.28,0,0-22.65-9.77-39.75-13.68s-20.47,0-20.47,0l27.05,37.91Z" style="opacity:0.30000000000000004"></path><path d="M181.42,257.62s-1.27-.87-3.41-2.3c-10.1-6.73-39.58-26-47-26.21-10.26-.29-10.27,8.55-10.26,15.4,0,4.85,4,47,4,47" style="fill:#1F75FF"></path><path d="M288.88,273.58a1.21,1.21,0,0,1-.11-.29q-.12-.33-.3-.87l-1.12-3.35c-1-2.9-2.45-7.09-4.46-12.19a156.11,156.11,0,0,0-8-17.48,60.68,60.68,0,0,0-6.19-9.47,22.84,22.84,0,0,0-4.23-4.16,8.06,8.06,0,0,0-5.56-1.89,14.34,14.34,0,0,0-5.7,2,36.9,36.9,0,0,0-4.92,3.38,84.39,84.39,0,0,0-8.24,7.78,190.13,190.13,0,0,0-12.34,14.75c-3.33,4.36-5.89,8-7.65,10.49l-2,2.9-.52.75a1.31,1.31,0,0,1-.2.25l.15-.28.49-.78c.43-.68,1.08-1.68,1.93-2.95,1.71-2.55,4.23-6.21,7.52-10.6a183.59,183.59,0,0,1,12.29-14.86,81.9,81.9,0,0,1,8.27-7.84,37.62,37.62,0,0,1,5-3.45,14.92,14.92,0,0,1,5.92-2,6.84,6.84,0,0,1,3.17.45,12.57,12.57,0,0,1,2.73,1.54,23.9,23.9,0,0,1,4.33,4.25,61.57,61.57,0,0,1,6.21,9.57,151.58,151.58,0,0,1,7.92,17.58c2,5.12,3.37,9.33,4.3,12.26.47,1.46.81,2.6,1,3.38.1.36.18.66.25.88A1.21,1.21,0,0,1,288.88,273.58Z" style="fill:#263238"></path><path d="M306.52,204.19l.25.18.7.57,2.66,2.22,9.72,8.25.65.55-.82-.23A152.84,152.84,0,0,0,279.52,210a159.86,159.86,0,0,0-45.44,6.11l-.06,0-.06,0-7.7-4.51-2-1.22-.51-.32a.91.91,0,0,1-.17-.12l.19.08.54.29,2.07,1.14,7.77,4.39-.13,0a153.66,153.66,0,0,1,19.41-4.4c3.88-.64,8-1.11,12.43-1.49s9-.53,13.69-.44a152.24,152.24,0,0,1,22.35,1.87,148.73,148.73,0,0,1,17.91,4l-.17.32L310,207.32l-2.6-2.3-.66-.61A1.2,1.2,0,0,1,306.52,204.19Z" style="fill:#263238"></path><g style="opacity:0.2"><path d="M250.15,335.61c-.23,1.43-1.7,2.5-3.79,3.22a25.45,25.45,0,0,1-7.79,1.15,25.8,25.8,0,0,1-7.82-1c-2.1-.67-3.59-1.71-3.85-3.13s.81-2.94,2.9-4.17a19.42,19.42,0,0,1,17.35-.19C249.27,332.69,250.38,334.2,250.15,335.61Z" style="fill:#fff"></path></g><path d="M184.65,340.77a1.36,1.36,0,0,1-.29-.17l-.8-.54-1.31-.88c-.53-.32-1.16-.65-1.87-1.05a43.6,43.6,0,0,0-12.87-4.37,63.13,63.13,0,0,0-9.38-.88,68.42,68.42,0,0,0-10.79.79,55.06,55.06,0,0,0-22.89,8.91,46,46,0,0,0-5,4.1,41.3,41.3,0,0,0-4.24,4.67,40.6,40.6,0,0,0-5.84,10.35,36.14,36.14,0,0,0-1.28,19.89,33.9,33.9,0,0,0,2.63,7.29,31.65,31.65,0,0,0,3.19,4.92l1.39,1.64,1.12,1.1.68.68c.15.16.23.24.22.25a1.33,1.33,0,0,1-.25-.21l-.73-.65-1.16-1.07-1.42-1.61a31.25,31.25,0,0,1-3.3-4.91,33.76,33.76,0,0,1-2.72-7.34,36.22,36.22,0,0,1,1.18-20.15,39.09,39.09,0,0,1,2.5-5.35,39.63,39.63,0,0,1,3.39-5.14,43.21,43.21,0,0,1,4.28-4.74,47.06,47.06,0,0,1,5.1-4.15,55,55,0,0,1,23.12-8.95,66.81,66.81,0,0,1,10.86-.75,63.35,63.35,0,0,1,9.44.94A42.79,42.79,0,0,1,180.48,338c.7.42,1.33.77,1.86,1.1l1.28.93.78.58C184.57,340.69,184.66,340.76,184.65,340.77Z" style="fill:#263238"></path><path d="M141.76,357.58a8.54,8.54,0,0,1,.12,1.59c0,1.12.11,2.58.18,4.35.16,3.66.46,8.73.59,14.33,0,1.41,0,2.78,0,4.1a20.92,20.92,0,0,1-.28,3.84,7.26,7.26,0,0,1-3.54,5.34,4.33,4.33,0,0,1-4.3-.22,3,3,0,0,1-.85-.85,1.17,1.17,0,0,1-.19-.37,5,5,0,0,0,1.15,1.05,4.19,4.19,0,0,0,4,.07,7,7,0,0,0,3.24-5.11,21.57,21.57,0,0,0,.24-3.75c0-1.32,0-2.69-.05-4.08-.13-5.6-.38-10.67-.44-14.34,0-1.84,0-3.33,0-4.36A11.31,11.31,0,0,1,141.76,357.58Z" style="fill:#263238"></path><path d="M169.41,357.58a10.81,10.81,0,0,1,.11,1.59c0,1.12.11,2.58.18,4.35.16,3.66.46,8.73.6,14.33,0,1.41,0,2.78,0,4.1a21.82,21.82,0,0,1-.29,3.84,7.24,7.24,0,0,1-3.54,5.34,4.34,4.34,0,0,1-4.3-.22,3.2,3.2,0,0,1-.85-.85c-.15-.23-.2-.37-.18-.37a4.83,4.83,0,0,0,1.14,1.05,4.19,4.19,0,0,0,4,.07,7,7,0,0,0,3.24-5.11,21.54,21.54,0,0,0,.25-3.75c0-1.32,0-2.69-.05-4.08-.14-5.6-.38-10.67-.44-14.34,0-1.84,0-3.33,0-4.36A8.42,8.42,0,0,1,169.41,357.58Z" style="fill:#263238"></path><path d="M203.74,381.47a4.72,4.72,0,0,1-.22.69c-.17.44-.36,1.11-.74,1.92a37.68,37.68,0,0,1-3.65,6.66,48.12,48.12,0,0,1-7.41,8.48,54.69,54.69,0,0,1-5.22,4.15,52.8,52.8,0,0,1-6.16,3.63,54.83,54.83,0,0,1-13,4.7,52.08,52.08,0,0,1-11.21,1.13c-3.2,0-5.79-.2-7.57-.32l-2.06-.17a3.31,3.31,0,0,1-.71-.09,3.61,3.61,0,0,1,.72,0l2.06.06c1.78.07,4.37.19,7.56.16a53.07,53.07,0,0,0,11.11-1.23,55.68,55.68,0,0,0,12.83-4.69,52.47,52.47,0,0,0,6.11-3.59,58.53,58.53,0,0,0,5.19-4.08,49.52,49.52,0,0,0,7.43-8.34A42.29,42.29,0,0,0,202.6,384c.4-.79.62-1.45.83-1.88A3,3,0,0,1,203.74,381.47Z" style="fill:#263238"></path><path d="M141.16,356.47a7.88,7.88,0,0,0-.69-1,4,4,0,0,0-2.86-1.3,5.54,5.54,0,0,0-4.21,1.89,5.48,5.48,0,0,0-1.28,2.46,12.58,12.58,0,0,0-.3,3.05c0,4.3.05,8.21,0,11,0,1.32,0,2.44,0,3.34a6.21,6.21,0,0,1-.08,1.22,5,5,0,0,1-.12-1.22c0-.9-.07-2-.12-3.34-.07-2.82-.15-6.72-.18-11a12.91,12.91,0,0,1,.32-3.18,6.17,6.17,0,0,1,1.42-2.66,5.85,5.85,0,0,1,4.6-1.92,4.12,4.12,0,0,1,3,1.53,3.37,3.37,0,0,1,.46.8C141.15,356.35,141.18,356.46,141.16,356.47Z" style="fill:#fff"></path><path d="M159.48,358.77c.14,0,.26,5.27.26,11.77s-.12,11.78-.26,11.78-.26-5.27-.26-11.78S159.34,358.77,159.48,358.77Z" style="fill:#fff"></path><path d="M151.09,336.07a2.25,2.25,0,0,1-.61.05c-.41,0-1,0-1.76,0a45.24,45.24,0,0,0-6.42.7,42.51,42.51,0,0,0-33.55,31.85c-.2.73-.29,1.32-.39,1.71a2.81,2.81,0,0,1-.17.59,2.34,2.34,0,0,1,.06-.61c.07-.4.13-1,.3-1.74a38.51,38.51,0,0,1,1.84-6.23,41.12,41.12,0,0,1,31.85-25.93,38.3,38.3,0,0,1,6.47-.54c.77,0,1.37.05,1.77.06A3.27,3.27,0,0,1,151.09,336.07Z" style="fill:#fff"></path><path d="M124.94,285.13a2.06,2.06,0,0,1-.18.57l-.62,1.58c-.28.68-.61,1.52-1,2.51s-.79,2.1-1.17,3.36-.86,2.62-1.26,4.12-.81,3.1-1.22,4.79a95,95,0,0,0-2.34,22.47c.06,1.74.08,3.4.21,4.94s.23,3,.38,4.29.31,2.49.45,3.53.29,1.93.42,2.65.21,1.24.28,1.68a2.18,2.18,0,0,1,.06.59,2.53,2.53,0,0,1-.16-.57l-.38-1.66c-.16-.72-.35-1.61-.51-2.64s-.39-2.22-.53-3.53-.34-2.75-.44-4.31-.19-3.21-.26-5A90,90,0,0,1,119.07,302c.43-1.7.81-3.31,1.28-4.8s.88-2.87,1.32-4.12.87-2.36,1.24-3.34.74-1.82,1-2.49.52-1.14.71-1.54A2.58,2.58,0,0,1,124.94,285.13Z" style="fill:#fff"></path><path d="M126.44,233.13s-.41.54-1,1.59a15.27,15.27,0,0,0-1.67,4.8,46.74,46.74,0,0,0-.62,7.57c-.08,2.87-.09,6,0,9.34.16,6.63.69,12.62,1.19,16.93.27,2.1.48,3.82.64,5.11l.18,1.39a3,3,0,0,1,0,.49,1.4,1.4,0,0,1-.13-.47c-.08-.38-.17-.83-.28-1.38-.22-1.19-.5-2.93-.8-5.09a153.09,153.09,0,0,1-1.35-17c-.08-3.32,0-6.49,0-9.37a42.7,42.7,0,0,1,.74-7.63,14.54,14.54,0,0,1,1.85-4.83,8.89,8.89,0,0,1,.84-1.13C126.3,233.24,126.42,233.12,126.44,233.13Z" style="fill:#fff"></path><path d="M223.78,201.8a6.38,6.38,0,0,1-.64.26l-1.86.66-6.85,2.35a227.35,227.35,0,0,0-22.22,8.74,103.47,103.47,0,0,0-20.37,12.34c-2.39,1.9-4.23,3.55-5.47,4.73-.63.57-1.09,1.05-1.42,1.36a3,3,0,0,1-.52.45,3.94,3.94,0,0,1,.44-.52c.31-.33.75-.84,1.36-1.44a70.58,70.58,0,0,1,5.38-4.87A97.69,97.69,0,0,1,192,213.34a200.88,200.88,0,0,1,22.32-8.62c2.91-.95,5.27-1.7,6.91-2.2l1.89-.56A3.16,3.16,0,0,1,223.78,201.8Z" style="fill:#fff"></path><path d="M258.58,226.59s-.14.14-.45.36l-1.33.94c-1.16.8-2.82,2-4.84,3.52s-4.36,3.41-6.88,5.59-5.19,4.72-7.87,7.48-5.08,5.56-7.19,8.15-3.89,5-5.33,7.09-2.58,3.77-3.33,5l-.89,1.36a2.82,2.82,0,0,1-.34.46,1.92,1.92,0,0,1,.25-.51c.21-.38.48-.85.81-1.42.7-1.23,1.79-3,3.2-5.07s3.18-4.55,5.26-7.18,4.51-5.41,7.18-8.21,5.4-5.29,7.93-7.48,4.93-4,7-5.53,3.75-2.64,4.95-3.39l1.39-.86A2.88,2.88,0,0,1,258.58,226.59Z" style="fill:#fff"></path><path d="M412.7,296.16a12.53,12.53,0,0,1,1.19,2.53,53.42,53.42,0,0,1,3.3,13,12.62,12.62,0,0,1,.16,2.78,17.26,17.26,0,0,1-.53-2.73c-.29-1.68-.73-4-1.37-6.53s-1.36-4.79-1.91-6.41A18.41,18.41,0,0,1,412.7,296.16Z" style="fill:#fff"></path><path d="M388.78,410.79s-.17.14-.5.38l-1.47,1-2.4,1.69L382.88,415l-1.79,1.16a199.47,199.47,0,0,1-22.17,12.66c-2.42,1.18-5,2.36-7.67,3.58l-4.15,1.76L345,435l-2.2.84-4.52,1.73-4.72,1.63c-1.59.58-3.23,1.07-4.9,1.58s-3.33,1.07-5.06,1.51a206.53,206.53,0,0,1-21.82,4.91,183.92,183.92,0,0,1-23.88,2.57,161.1,161.1,0,0,1-24-.75l-2.89-.28c-.95-.1-1.9-.26-2.84-.39l-5.61-.79-5.45-1-2.67-.51-2.63-.6a192.39,192.39,0,0,1-36-11.7,153.17,153.17,0,0,1-22.49-12c-2.58-1.58-4.41-3-5.72-3.94l-1.45-1.07c-.33-.24-.49-.38-.49-.38l.52.34,1.49,1c1.32.88,3.17,2.31,5.76,3.86a158.27,158.27,0,0,0,22.53,11.88A195.22,195.22,0,0,0,231.87,445l2.62.59,2.67.5,5.44,1,5.59.78c.94.13,1.89.29,2.84.38l2.88.28a160.23,160.23,0,0,0,23.94.74,183.05,183.05,0,0,0,23.81-2.55,211,211,0,0,0,21.78-4.87c1.73-.44,3.39-1,5.06-1.5s3.29-1,4.88-1.56l4.72-1.62,4.51-1.71,2.2-.84,2.13-.89,4.15-1.74c2.67-1.21,5.25-2.37,7.67-3.54A209.49,209.49,0,0,0,381,416q.94-.62,1.8-1.14l1.55-1.06,2.42-1.64,1.5-1Z" style="fill:#263238"></path><polygon points="345.7 421.5 365.8 472.89 379.54 472.89 382.53 468.42 386.06 472.89 390.91 472.89 392.72 391.44 345.7 421.5" style="fill:#1F75FF"></polygon><path d="M219.45,428.73l17,44.16h15.62l3.19-5.11,3.08,5.11h3.87s1.7-49.82,0-51.23S219.45,428.73,219.45,428.73Z" style="fill:#1F75FF"></path><path d="M417.89,330a1.17,1.17,0,0,1,0,.3c0,.22,0,.5-.07.86-.08.79-.18,1.89-.31,3.29-.07.72-.15,1.52-.24,2.38s-.29,1.81-.45,2.82c-.36,2-.65,4.32-1.3,6.81-.29,1.26-.6,2.57-.92,3.94s-.8,2.75-1.22,4.2c-.8,2.92-2,5.94-3.16,9.13A118.95,118.95,0,0,1,386.76,401c-2.38,2.44-4.58,4.81-6.88,6.79-1.12,1-2.17,2-3.26,2.92l-3.14,2.54c-2,1.66-3.93,2.92-5.59,4.11-.84.59-1.61,1.15-2.34,1.63l-2.05,1.24-2.83,1.7-.75.43-.26.14s.07-.07.23-.18l.72-.48,2.79-1.78,2-1.28c.73-.49,1.48-1.06,2.31-1.65,1.64-1.22,3.58-2.5,5.53-4.17l3.11-2.55c1.08-.89,2.11-1.92,3.23-2.93,2.27-2,4.46-4.36,6.81-6.8a121,121,0,0,0,23.38-37.13c1.18-3.17,2.37-6.17,3.18-9.08.43-1.44.91-2.82,1.25-4.18s.65-2.66,1-3.91c.68-2.48,1-4.78,1.37-6.78.18-1,.37-1.94.5-2.8s.19-1.65.28-2.37c.17-1.4.31-2.5.4-3.28.05-.35.09-.63.12-.86A1.19,1.19,0,0,1,417.89,330Z" style="fill:#fff"></path><g style="opacity:0.2"><path d="M396.15,286.68c-4.56-11.31-14.51-22-26-26.65a14.86,14.86,0,0,0-20.31,13,1.7,1.7,0,0,1,0,.22c-.36,7.24,2.49,14.26,6,20.62s7.66,12.38,10.37,19.1a48.7,48.7,0,0,1,.4,35c-2.68,7.12-7.12,14.71-3.1,21.8,2.64,4.66,7.95,6.95,13.28,6.47,10.21-.93,15.51-10.15,20.35-18.53,3.89-6.74,7.1-17.22,7.28-25.13A110.53,110.53,0,0,0,396.15,286.68Z" style="fill:#fff"></path></g><g style="opacity:0.2"><path d="M357.91,257.53l.76,0,.06,0Z" style="fill:#fff"></path></g><path d="M241.38,318.62c-.37.1-1-1.39-1.94-3.55a12.07,12.07,0,0,0-2.17-3.27,5.53,5.53,0,0,0-3.75-1.84,6.23,6.23,0,0,0-4,1.52,9.94,9.94,0,0,0-2.36,3c-1,2.07-1.45,3.6-1.84,3.53s-.6-1.64.13-4.22a9.68,9.68,0,0,1,2.45-4.12,8,8,0,0,1,5.67-2.35,6.79,6.79,0,0,1,3.22.92,8.41,8.41,0,0,1,2.26,1.92,11,11,0,0,1,2.11,4.25C241.78,317,241.7,318.53,241.38,318.62Z" style="fill:#263238"></path><path d="M165.43,312.51a7.19,7.19,0,1,1-7.19-7.19A7.19,7.19,0,0,1,165.43,312.51Z" style="fill:#263238"></path><path d="M393.79,252.37a3.32,3.32,0,0,1-.49-.54L392,250.22c-.58-.71-1.28-1.57-2.14-2.53s-1.79-2.11-2.91-3.29-2.3-2.52-3.65-3.87-2.81-2.79-4.35-4.28c-3.15-2.93-6.72-6-10.64-9.07s-7.84-5.69-11.47-8c-1.84-1.12-3.57-2.21-5.24-3.13s-3.23-1.8-4.67-2.55-2.76-1.4-3.92-2-2.16-1.05-3-1.42l-1.9-.89a3.37,3.37,0,0,1-.65-.35,4.76,4.76,0,0,1,.69.25l1.94.8c.84.35,1.87.79,3,1.35s2.52,1.15,4,1.91,3,1.55,4.71,2.51,3.43,2,5.28,3.09c3.66,2.29,7.59,4.95,11.54,8s7.51,6.17,10.65,9.13c1.54,1.51,3,2.93,4.33,4.33s2.54,2.7,3.62,3.92,2,2.36,2.85,3.35,1.53,1.87,2.07,2.6l1.27,1.67A3.17,3.17,0,0,1,393.79,252.37Z" style="fill:#fff"></path><path d="M318.19,220.06a4.11,4.11,0,0,1-.78-.23l-2.19-.75c-1-.35-2.11-.75-3.49-1.15s-2.91-.94-4.66-1.37l-2.73-.72c-.95-.25-2-.44-3-.68-2.06-.49-4.29-.85-6.63-1.27a130.33,130.33,0,0,0-15.4-1.45,127.07,127.07,0,0,0-15.46.57c-2.36.28-4.62.51-6.7.88-1,.18-2.06.31-3,.51l-2.77.56c-1.77.33-3.34.76-4.73,1.1s-2.58.65-3.55.94l-2.23.63a6.3,6.3,0,0,1-.79.19,3.68,3.68,0,0,1,.76-.29l2.2-.72c1-.32,2.14-.69,3.53-1s3-.82,4.73-1.17l2.77-.6c1-.2,2-.35,3-.53,2.09-.4,4.35-.65,6.72-.94a114.29,114.29,0,0,1,31,.89c2.35.43,4.59.81,6.66,1.32,1,.25,2,.45,3,.71l2.73.76c1.75.45,3.29,1,4.65,1.44s2.53.86,3.47,1.24l2.16.85A4.94,4.94,0,0,1,318.19,220.06Z" style="fill:#fff"></path></g><g id="freepik--Plants--inject-97"><path d="M357.9,432a7.77,7.77,0,0,1,4,4.55,13.74,13.74,0,0,1,.53,6.15c-.45,4-2.73,8-5.17,11.23-3.37-2.94-4.14-8.06-4.37-10.69-.36-4.14,1.5-11.86,5-11.24" style="fill:#455a64"></path><path d="M361.19,460.54a6.61,6.61,0,0,1,2.14-6.29,8.81,8.81,0,0,1,6.47-2,3.69,3.69,0,0,1,2.84,1.28,2.81,2.81,0,0,1,0,2.86,5.67,5.67,0,0,1-2.12,2.09c-2.91,1.83-6.07,3.07-9.37,2.08" style="fill:#455a64"></path><path d="M356.88,472.79A4.15,4.15,0,0,1,357,472c.1-.57.24-1.32.4-2.22a23.21,23.21,0,0,1,2.29-7.09,14.33,14.33,0,0,1,5.09-5.41,9.5,9.5,0,0,1,2.08-.91c.25-.09.46-.12.59-.16l.22,0a15.18,15.18,0,0,0-2.78,1.28A14.65,14.65,0,0,0,360,462.8a25.12,25.12,0,0,0-2.35,7c-.2.93-.36,1.69-.49,2.21A5.73,5.73,0,0,1,356.88,472.79Z" style="fill:#263238"></path><path d="M357,438a1.26,1.26,0,0,1,0,.36c0,.26,0,.61.06,1,0,.89.1,2.19.16,3.79.1,3.2.18,7.63.16,12.52s-.14,9.32-.27,12.52c-.07,1.6-.13,2.89-.19,3.79,0,.42,0,.76-.07,1a2.19,2.19,0,0,1,0,.36,1.48,1.48,0,0,1,0-.36c0-.27,0-.61,0-1,0-.93,0-2.21.09-3.79.08-3.2.17-7.62.19-12.51s0-9.31-.08-12.51c0-1.58,0-2.87-.06-3.8,0-.42,0-.76,0-1A2.45,2.45,0,0,1,357,438Z" style="fill:#263238"></path><path d="M355.37,463a15.46,15.46,0,0,0-8.44-11.32c-1.13-.54-2.6-.89-3.52-.06s-.72,2.34-.27,3.51a13.22,13.22,0,0,0,12.15,8.2" style="fill:#455a64"></path><path d="M347.47,455.44a3.69,3.69,0,0,1,.72.31,8.38,8.38,0,0,1,.8.43,11.77,11.77,0,0,1,1,.64,13.53,13.53,0,0,1,1.18.89,14.2,14.2,0,0,1,1.25,1.14,16.76,16.76,0,0,1,2.37,3,16.22,16.22,0,0,1,1.57,3.54,15.34,15.34,0,0,1,.6,3.1,10.63,10.63,0,0,1,.05,1.21,6.62,6.62,0,0,1,0,.92,4,4,0,0,1-.09.77c-.07,0,.05-1.11-.15-2.88a12,12,0,0,0-.23-1.43,14.24,14.24,0,0,0-.42-1.61,17.23,17.23,0,0,0-1.56-3.47,18,18,0,0,0-2.31-3c-.42-.41-.81-.81-1.22-1.14a14,14,0,0,0-1.14-.9C348.46,456,347.44,455.49,347.47,455.44Z" style="fill:#263238"></path><path d="M33.68,433.58a7.71,7.71,0,0,1,5,3.44,13.62,13.62,0,0,1,2,5.85c.53,4-.69,8.45-2.29,12.14-4-2-6-6.82-6.83-9.31-1.36-3.93-1.42-11.87,2.12-12.12" style="fill:#455a64"></path><path d="M43.78,460.46a6.62,6.62,0,0,1,.55-6.61,8.78,8.78,0,0,1,5.79-3.53,3.69,3.69,0,0,1,3.07.55,2.85,2.85,0,0,1,.74,2.77,5.82,5.82,0,0,1-1.56,2.54c-2.38,2.48-5.15,4.44-8.59,4.28" style="fill:#455a64"></path><path d="M42.57,473.4a4.65,4.65,0,0,1-.09-.83c0-.58-.08-1.34-.14-2.25a23,23,0,0,1,.51-7.43,14.14,14.14,0,0,1,3.62-6.48,9.76,9.76,0,0,1,1.79-1.4c.23-.14.42-.22.55-.29s.19-.09.2-.08a14.33,14.33,0,0,0-2.39,1.91A14.58,14.58,0,0,0,43.13,463a24.86,24.86,0,0,0-.58,7.35c0,.95.05,1.73.05,2.26A4.55,4.55,0,0,1,42.57,473.4Z" style="fill:#263238"></path><path d="M34.26,439.62a2.6,2.6,0,0,1,.13.34c.08.25.18.58.31,1,.26.86.62,2.11,1.06,3.65.88,3.08,2,7.35,3.2,12.1s2.12,9.08,2.77,12.21c.32,1.57.57,2.85.73,3.73.08.41.14.75.19,1a2.47,2.47,0,0,1,0,.36,2.24,2.24,0,0,1-.1-.35l-.24-1c-.2-.91-.48-2.17-.83-3.7-.7-3.13-1.68-7.44-2.85-12.19s-2.28-9-3.11-12.12c-.4-1.52-.73-2.76-1-3.66-.11-.41-.19-.75-.26-1A2.29,2.29,0,0,1,34.26,439.62Z" style="fill:#263238"></path><path d="M38.72,464.23a15.47,15.47,0,0,0-10.93-8.94c-1.22-.25-2.73-.23-3.43.8s-.12,2.45.6,3.47a13.2,13.2,0,0,0,13.77,5" style="fill:#455a64"></path><path d="M29.24,458.84A4.25,4.25,0,0,1,30,459a8,8,0,0,1,.88.22,11.9,11.9,0,0,1,1.16.38,13.18,13.18,0,0,1,1.35.57,15.63,15.63,0,0,1,1.49.8,15.94,15.94,0,0,1,5.43,5.44,16.67,16.67,0,0,1,.78,1.5c.23.48.39.94.55,1.37a10.87,10.87,0,0,1,.34,1.16,5.94,5.94,0,0,1,.2.89,3.42,3.42,0,0,1,.1.78c-.06,0-.22-1.09-.84-2.76a13.07,13.07,0,0,0-.57-1.34c-.21-.47-.5-1-.79-1.46a18.38,18.38,0,0,0-2.36-3,17.9,17.9,0,0,0-3-2.36c-.5-.3-1-.59-1.45-.81a13.54,13.54,0,0,0-1.33-.6C30.32,459.1,29.22,458.9,29.24,458.84Z" style="fill:#263238"></path></g></svg>